<svg xmlns="http://www.w3.org/2000/svg" width="221.791" height="99.765" viewBox="0 0 221.791 99.765">
  <g id="Groupe_55" data-name="Groupe 55" transform="translate(-1059.199 -986.637)">
    <path id="heart-svgrepo-com" d="M27.3,11.773s-3.608-7.69-11.727-7.69C6.7,4.083,2.042,11.6,2.042,19.118,2.042,31.6,27.3,47.083,27.3,47.083S52.409,31.747,52.409,19.118c0-7.668-4.81-15.035-13.38-15.035S27.3,11.773,27.3,11.773Z" transform="translate(1215.638 1027.394) rotate(-20)" opacity="0.08"/>
    <g id="Free_Icons" transform="translate(1055.199 987.637)">
      <g id="Groupe_17" data-name="Groupe 17" transform="translate(5.5 0.5)">
        <path id="Tracé_8" data-name="Tracé 8" d="M56.078,74.259,30.789,91.119,5.5,74.259V48.97L30.789.5,56.078,48.97Z" transform="translate(-5.5 -0.5)" fill="none" stroke="#d6d1cb" stroke-linejoin="round" stroke-miterlimit="10" stroke-width="3"/>
        <line id="Ligne_11" data-name="Ligne 11" y2="63.108" transform="translate(25.243 33.658)" fill="none" stroke="#d6d1cb" stroke-linecap="round" stroke-linejoin="round" stroke-miterlimit="10" stroke-width="3"/>
        <path id="Tracé_9" data-name="Tracé 9" d="M37.5,14.5,22.752,27.144,8,14.5" transform="translate(2.537 44.507)" fill="none" stroke="#d6d1cb" stroke-linecap="round" stroke-linejoin="round" stroke-miterlimit="10" stroke-width="3"/>
        <path id="Tracé_10" data-name="Tracé 10" d="M30.074,11.5,19.537,19.93,9,11.5" transform="translate(5.752 34.863)" fill="none" stroke="#d6d1cb" stroke-linecap="round" stroke-linejoin="round" stroke-miterlimit="10" stroke-width="3"/>
      </g>
    </g>
  </g>
</svg>
