<svg xmlns="http://www.w3.org/2000/svg" width="807.407" height="714.401" viewBox="0 0 807.407 714.401">
  <g id="Groupe_56" data-name="Groupe 56" transform="translate(-189.55 -169.774)">
    <g id="Groupe_12" data-name="Groupe 12" transform="translate(249.947 -0.391)" opacity="0.49">
      <path id="Tracé_5" data-name="Tracé 5" d="M131.053-393.507s16.584,1.021,22.112-3.062,2.466-11.482,0-13.267-9.866-.34-9.866,6.123.51,18.711,9.866,19.731,18.285-11.056,27.556-15.649,9.525-2.721,9.525-2.721" transform="translate(240 1177)" fill="none" stroke="#1b1b1b" stroke-linecap="round" stroke-width="2"/>
      <circle id="Ellipse_2" data-name="Ellipse 2" cx="1.932" cy="1.932" r="1.932" transform="translate(432.856 771.96)" fill="#1b1b1b"/>
    </g>
    <g id="monitor-tv-svgrepo-com" transform="translate(175.498 819.287) rotate(-31)" opacity="0.08">
      <g id="Groupe_14" data-name="Groupe 14" transform="translate(0 27.284)">
        <g id="Groupe_13" data-name="Groupe 13" transform="translate(0 0)">
          <path id="Tracé_6" data-name="Tracé 6" d="M203.548,85.062V81.115H205.7a1.216,1.216,0,0,0,0-2.432h-2.152v-1a1.216,1.216,0,1,0-2.432,0v1.1c-2.439.384-4.108,1.92-4.108,3.935v.74c0,2.013,1.638,3.5,4.108,3.866v3.947h-2.152a1.216,1.216,0,1,0,0,2.432h2.152v1a1.216,1.216,0,1,0,2.432,0V93.61c2.47-.366,4.108-1.853,4.108-3.866v-.814C207.655,86.915,206.017,85.428,203.548,85.062Zm-2.432-.218c-.941-.212-1.676-.682-1.676-1.392v-.74c0-.733.744-1.227,1.676-1.454Zm4.108,4.9c0,.71-.735,1.18-1.676,1.392v-3.6c.941.212,1.676.682,1.676,1.392Z" transform="translate(-179.229 -72.025)" fill="#1b1b1b"/>
          <path id="Tracé_7" data-name="Tracé 7" d="M41.827,27.284H4.377A4.382,4.382,0,0,0,0,31.661V55.736a4.382,4.382,0,0,0,4.377,4.377h9.917l-1.286,6.019H9.423a1.216,1.216,0,1,0,0,2.432H36.781a1.216,1.216,0,1,0,0-2.432H33.2L31.91,60.114h9.917A4.382,4.382,0,0,0,46.2,55.736V31.661A4.382,4.382,0,0,0,41.827,27.284ZM15.5,66.132l1.286-6.019H29.423l1.286,6.019Zm28.278-10.4a1.948,1.948,0,0,1-1.945,1.945H4.377a1.948,1.948,0,0,1-1.945-1.945v-.547H43.773v.547Zm0-2.979H2.432v-21.1a1.948,1.948,0,0,1,1.945-1.945h37.45a1.948,1.948,0,0,1,1.945,1.945Z" transform="translate(0 -27.284)" fill="#1b1b1b"/>
        </g>
      </g>
    </g>
    <path id="wifi-svgrepo-com" d="M24.029,30.224a6.487,6.487,0,1,0,6.487,6.487h0a6.5,6.5,0,0,0-6.487-6.487Zm0,9.158A2.671,2.671,0,1,1,26.7,36.712h0a2.674,2.674,0,0,1-2.671,2.671Zm22.72-26.916A35.237,35.237,0,0,0,24.111,2.753l-.082,0A35.276,35.276,0,0,0,1.3,12.481l.014-.014a1.908,1.908,0,1,0,2.7,2.7h0A31.717,31.717,0,0,1,23.943,6.57l.087,0a31.96,31.96,0,0,1,20.038,8.616l-.017-.015a1.908,1.908,0,0,0,2.7-2.7h0Zm-22.72,3.8A25.8,25.8,0,0,0,7.4,23.379l.011-.009a1.908,1.908,0,0,0,2.7,2.7h0a22.239,22.239,0,0,1,13.855-5.98l.064,0A22.276,22.276,0,0,1,37.958,26.08l-.012-.011a1.908,1.908,0,0,0,2.7-2.7h0a25.744,25.744,0,0,0-16.555-7.1l-.06,0Z" transform="matrix(0.966, 0.259, -0.259, 0.966, 504.959, 166.924)" opacity="0.08"/>
    <path id="like-svgrepo-com" d="M4.858,54.452A2.858,2.858,0,0,1,2,51.593V28.726a2.858,2.858,0,0,1,2.858-2.858h8.575V54.452ZM53.306,23.009H36.81V8.717C36.81,3,28.017,3,28.017,3s0,11.434-2.933,14.292C23.5,18.844,21.063,24,19.151,25.867V54.452H49.576a5.82,5.82,0,0,0,5.765-4.694l3.716-20.009a5.76,5.76,0,0,0-5.751-6.74Z" transform="matrix(0.899, -0.438, 0.438, 0.899, 919.931, 384.96)" fill="#1b1b1b" opacity="0.08"/>
    <path id="heart-svgrepo-com" d="M13.34,7.522S11.726,4.083,8.095,4.083c-3.968,0-6.053,3.363-6.053,6.725,0,5.582,11.3,12.509,11.3,12.509s11.23-6.86,11.23-12.509c0-3.43-2.152-6.725-5.985-6.725A5.842,5.842,0,0,0,13.34,7.522Z" transform="translate(876.685 631.872) rotate(-20)" opacity="0.08"/>
    <path id="heart-svgrepo-com-2" data-name="heart-svgrepo-com" d="M11.763,7.042A5.332,5.332,0,0,0,7.249,4.083c-3.414,0-5.207,2.893-5.207,5.786,0,4.8,9.721,10.762,9.721,10.762s9.662-5.9,9.662-10.762c0-2.951-1.851-5.786-5.149-5.786A5.026,5.026,0,0,0,11.763,7.042Z" transform="translate(532.742 475.291) rotate(45)" opacity="0.08"/>
    <path id="play-svgrepo-com" d="M33.441,17.118l-18.9-9.451A5.208,5.208,0,0,0,7,12.325V30.193a5.208,5.208,0,0,0,7.538,4.658l18.9-9.452A4.63,4.63,0,0,0,33.441,17.118Z" transform="translate(458.5 848.767)" fill="#222" opacity="0.08"/>
  </g>
</svg>
