<?xml version="1.0" standalone="no"?>
<!DOCTYPE svg PUBLIC "-//W3C//DTD SVG 20010904//EN"
 "http://www.w3.org/TR/2001/REC-SVG-20010904/DTD/svg10.dtd">
<svg version="1.0" xmlns="http://www.w3.org/2000/svg"
 width="1350.000000pt" height="1350.000000pt" viewBox="0 0 1350.000000 1350.000000"
 preserveAspectRatio="xMidYMid meet">

<g transform="translate(0.000000,1350.000000) scale(0.100000,-0.100000)"
fill="#000000" stroke="none">
<path d="M5700 13240 c6 -11 22 -23 35 -26 14 -3 25 -11 25 -16 0 -6 -10 -8
-22 -4 -13 3 -31 6 -40 6 -11 0 -18 8 -18 19 0 11 -5 23 -11 27 -8 5 -10 -1
-5 -19 3 -14 2 -29 -4 -32 -12 -7 -14 -65 -2 -65 4 0 13 5 19 11 8 8 13 8 18
-1 8 -13 -22 -50 -41 -50 -7 0 -22 -11 -33 -25 -18 -23 -18 -29 -6 -58 11 -27
11 -39 -2 -77 -19 -57 -28 -67 -48 -50 -12 10 -19 10 -27 2 -9 -9 -9 -12 0
-13 7 -1 16 -2 22 -3 21 -3 37 -40 30 -70 -3 -17 -6 -89 -5 -161 1 -71 -2
-138 -7 -147 -9 -19 -62 -25 -86 -10 -21 14 -2 42 28 42 16 0 31 4 34 9 11 18
-6 41 -31 41 -33 0 -27 30 10 48 18 9 27 21 27 38 0 30 -11 31 -28 3 -10 -16
-17 -18 -25 -10 -8 8 -6 16 6 29 22 24 21 29 -3 35 -17 4 -19 11 -14 39 9 44
21 58 51 58 15 0 23 5 20 13 -2 7 -17 11 -36 9 l-32 -3 1 53 c2 73 17 108 45
108 20 0 35 17 35 39 0 4 -10 7 -22 7 -33 -1 -31 36 2 45 l25 6 -28 12 c-24 9
-28 16 -26 49 2 22 -4 48 -13 60 l-15 23 -11 -28 c-12 -33 -20 -94 -33 -253
-19 -235 -22 -321 -23 -560 l-1 -245 110 -6 c61 -4 127 -7 147 -8 37 -1 37 -1
26 -32 -8 -23 -23 -37 -54 -51 -43 -18 -55 -33 -33 -40 14 -5 0 -38 -16 -38
-16 0 -37 25 -28 33 3 4 -4 7 -16 7 -21 0 -21 -1 -7 -22 21 -30 20 -51 -4 -66
-11 -7 -20 -21 -20 -32 0 -14 -10 -22 -32 -28 -22 -6 -32 -14 -30 -24 1 -9 -4
-18 -13 -22 -8 -3 -15 -14 -15 -24 0 -24 -19 -42 -46 -42 -29 0 -54 -35 -54
-76 0 -23 -8 -38 -32 -58 -17 -14 -35 -26 -40 -26 -4 0 -8 -24 -8 -53 0 -41
-5 -58 -20 -72 -11 -10 -20 -26 -20 -35 0 -10 -7 -20 -15 -24 -8 -3 -15 -18
-15 -34 0 -15 -4 -32 -9 -38 -18 -18 -41 -119 -41 -179 0 -38 -5 -68 -15 -81
-8 -10 -15 -28 -15 -39 -1 -11 -8 -38 -16 -60 -24 -66 -34 -196 -34 -458 0
-163 -3 -246 -10 -242 -13 8 -13 -10 -1 -33 5 -9 18 -53 29 -97 11 -44 30
-111 43 -150 27 -81 29 -204 4 -242 -10 -15 -15 -50 -15 -110 l0 -87 -42 41
c-58 55 -135 98 -151 85 -7 -6 -18 -32 -26 -58 -13 -43 -13 -51 2 -77 10 -16
17 -50 17 -80 0 -80 20 -229 36 -262 13 -29 14 -29 9 20 -16 175 -17 210 -2
230 14 18 16 18 22 3 6 -14 9 -14 33 -2 69 36 98 0 66 -84 -22 -59 -22 -165 0
-188 9 -8 17 -30 17 -47 2 -51 6 -63 45 -138 29 -56 39 -143 26 -222 -5 -34
-5 -60 0 -63 5 -3 4 -12 -2 -19 -7 -8 -9 -18 -6 -23 3 -4 -9 -7 -27 -5 l-32 4
30 -26 c17 -14 44 -29 60 -33 33 -9 43 -32 65 -157 7 -38 16 -74 20 -80 4 -5
12 -37 20 -70 7 -33 34 -121 60 -195 42 -118 49 -148 54 -240 3 -58 20 -174
37 -259 l32 -154 -22 -18 c-12 -10 -29 -15 -38 -12 -10 4 -14 2 -10 -4 4 -5
-7 -31 -23 -56 -23 -37 -33 -44 -51 -40 -16 5 -20 3 -14 -6 4 -7 -4 -5 -19 4
-30 20 -36 17 -39 -14 -2 -24 -37 -30 -37 -5 0 8 -4 12 -10 9 -17 -11 -11 -23
18 -33 l27 -9 -25 -8 c-14 -4 -38 -16 -53 -27 -22 -16 -31 -17 -42 -8 -8 7
-22 10 -30 6 -9 -3 -15 0 -15 9 0 20 -13 26 -30 13 -12 -8 -12 -9 3 -4 11 3
16 2 12 -4 -11 -18 -35 -10 -45 15 -5 14 -14 25 -20 25 -6 0 -9 -4 -5 -9 10
-17 -12 -21 -25 -6 -10 12 -10 15 1 15 9 0 10 3 2 11 -6 6 -21 8 -32 4 -19 -6
-13 -12 46 -56 37 -27 73 -47 79 -45 12 5 13 -18 1 -30 -7 -8 -70 31 -136 84
l-44 36 7 -34 c4 -22 24 -52 52 -81 44 -45 50 -69 18 -69 -8 0 -48 -17 -88
-38 -72 -38 -74 -38 -96 -20 -15 12 -37 18 -69 17 -25 -1 -36 -4 -23 -6 12 -2
22 -9 22 -15 0 -5 -7 -8 -14 -5 -11 4 -13 1 -9 -11 4 -9 11 -20 17 -25 14 -10
-35 -4 -52 6 -9 6 -9 13 0 30 10 20 10 21 -5 8 -22 -17 -22 -37 -1 -49 21 -12
10 -32 -17 -32 -11 0 -31 -7 -44 -16 -14 -9 -36 -14 -50 -12 -13 3 -22 1 -19
-3 3 -5 -4 -9 -16 -9 -12 0 -18 4 -15 10 8 13 2 13 -29 -2 -21 -9 -23 -14 -14
-25 8 -10 8 -17 -1 -26 -13 -13 -24 -3 -114 103 -21 25 -36 40 -33 34 8 -17
39 -174 35 -177 -27 -17 -160 -77 -171 -77 -8 0 -27 -9 -41 -20 -14 -12 -41
-26 -59 -32 -18 -6 -76 -37 -128 -68 -52 -32 -120 -69 -150 -83 -31 -13 -61
-31 -68 -39 -12 -15 -70 -42 -167 -79 -75 -28 -90 -38 -75 -53 7 -7 84 -10
238 -7 557 9 660 6 762 -19 82 -20 99 -28 127 -58 18 -20 33 -42 33 -49 0 -17
30 -16 105 2 81 19 132 18 182 -4 130 -60 188 -215 124 -339 -21 -41 -46 -66
-106 -105 l-39 -27 -23 28 c-28 34 -29 21 -2 -36 17 -35 20 -55 16 -99 -3 -30
-13 -63 -21 -72 -9 -10 -21 -31 -27 -49 -6 -18 -33 -48 -64 -72 -29 -23 -56
-48 -59 -56 -3 -7 -12 -14 -21 -14 -26 0 -16 -14 33 -47 102 -69 140 -111 153
-168 6 -29 10 -79 7 -111 -4 -49 -10 -62 -36 -86 -18 -15 -32 -31 -32 -34 0
-3 -11 -19 -25 -36 -37 -44 -40 -71 -16 -128 30 -70 28 -170 -5 -170 -7 0 -27
-20 -44 -45 -17 -25 -36 -44 -42 -42 -14 3 -35 -36 -49 -93 -8 -31 -24 -57
-54 -86 -31 -30 -40 -45 -34 -57 6 -9 3 -26 -6 -43 -8 -16 -15 -34 -15 -41 0
-17 -205 -223 -222 -223 -42 0 -239 54 -295 81 -60 29 -113 83 -113 116 0 25
174 143 210 143 8 0 24 -10 37 -22 l23 -21 0 26 c0 14 4 28 9 32 6 3 65 12
133 20 68 8 137 18 153 24 17 5 49 14 73 20 23 7 42 16 42 22 0 12 -65 4 -151
-17 -73 -18 -140 -18 -165 1 -10 8 -35 15 -55 15 -40 0 -64 20 -74 63 -8 30
-40 54 -50 37 -3 -5 0 -31 8 -57 18 -64 14 -76 -36 -102 -23 -12 -58 -32 -77
-44 -30 -19 -49 -22 -134 -21 -108 1 -106 4 -31 -49 14 -10 25 -28 25 -41 0
-27 -30 -118 -55 -165 -9 -18 -12 -30 -6 -27 6 4 16 -2 23 -13 9 -15 16 -17
25 -9 10 8 15 4 23 -17 19 -50 11 -123 -25 -232 -20 -58 -33 -108 -31 -111 3
-3 13 1 22 9 16 13 17 9 11 -56 -13 -141 -75 -329 -138 -420 -64 -91 -163
-183 -236 -218 -67 -31 -71 -32 -205 -31 -76 0 -138 -3 -138 -8 0 -4 20 -8 45
-8 25 0 45 -4 45 -9 0 -15 -53 -20 -107 -9 -43 9 -57 8 -75 -4 -13 -9 -36 -15
-52 -15 -18 0 -35 -9 -46 -22 -14 -20 -25 -22 -113 -22 -53 0 -106 5 -116 11
-26 14 -31 13 -31 -6 0 -12 6 -15 21 -11 15 4 19 1 16 -11 -2 -9 -9 -16 -16
-14 -9 2 -11 -3 -8 -13 9 -21 -3 -51 -13 -35 -4 7 -13 9 -19 6 -17 -11 -13
-20 12 -31 17 -8 22 -18 22 -45 1 -46 -3 -52 -24 -38 -14 9 -30 7 -69 -5 -28
-10 -59 -17 -68 -17 -23 0 -117 -99 -110 -116 3 -7 1 -16 -5 -19 -14 -9 -82
15 -99 35 -8 10 -29 26 -45 37 -34 20 -145 137 -145 152 0 5 -10 22 -23 38
-38 45 -70 149 -68 217 2 66 32 147 69 186 27 29 83 134 105 200 19 54 38 101
83 198 19 41 34 80 34 89 0 9 9 30 19 47 11 17 25 51 31 76 7 24 20 55 30 68
15 18 18 37 16 88 -2 36 0 66 3 68 4 3 5 22 3 43 -4 41 -2 130 3 178 2 17 7
57 11 90 3 33 11 66 16 72 14 17 38 156 38 217 0 27 4 63 9 80 33 108 40 140
34 166 -3 17 0 36 6 44 7 8 14 36 15 63 2 26 13 70 25 98 12 27 20 58 17 70
-3 11 2 29 10 39 16 22 19 60 4 51 -14 -9 -12 16 5 65 8 23 15 53 15 66 0 12
5 26 12 30 8 5 9 -2 5 -24 -5 -24 -3 -32 8 -32 8 0 15 6 15 13 0 6 3 22 6 35
5 16 2 22 -10 22 -9 0 -16 6 -16 14 0 23 22 76 31 76 5 0 9 11 9 25 0 20 5 25
24 25 25 0 27 3 64 115 39 120 60 290 38 312 -2 3 -10 -15 -17 -39 -7 -23 -16
-47 -21 -52 -4 -6 -8 -21 -8 -35 0 -15 -5 -33 -11 -41 -7 -11 -9 6 -4 60 7 87
18 136 45 202 11 26 20 54 20 62 0 23 -42 20 -70 -4 -13 -11 -31 -20 -41 -20
-24 0 -114 -46 -152 -79 -18 -15 -50 -38 -72 -53 -38 -25 -84 -67 -114 -103
-7 -9 -19 -36 -26 -58 -7 -23 -20 -55 -28 -72 -8 -16 -24 -49 -36 -71 -12 -23
-21 -49 -21 -58 0 -8 -9 -20 -19 -26 -11 -5 -25 -27 -32 -47 -6 -21 -29 -59
-50 -84 -22 -26 -39 -51 -39 -55 0 -5 -11 -31 -24 -59 -13 -27 -31 -66 -40
-85 -9 -19 -20 -42 -25 -50 -28 -53 -41 -84 -41 -98 0 -9 -12 -35 -25 -57 -14
-22 -25 -52 -25 -67 0 -37 -10 -58 -27 -58 -9 0 -47 21 -87 46 -39 26 -107 70
-151 99 -202 132 -196 129 -235 115 -19 -7 -73 -33 -119 -59 -123 -68 -319
-240 -295 -259 16 -13 115 -76 277 -176 152 -94 159 -97 200 -91 54 9 61 14
46 31 -8 10 -6 20 13 43 25 32 48 40 48 16 0 -8 -7 -15 -15 -15 -8 0 -15 -4
-15 -10 0 -13 17 -13 26 1 4 7 21 9 44 5 27 -4 41 -2 50 9 18 22 5 45 -26 45
-20 0 -25 4 -20 16 3 9 6 18 6 20 0 3 16 2 35 -2 25 -4 35 -3 35 6 0 9 7 7 20
-5 34 -31 24 -50 -62 -118 -53 -42 -25 -64 67 -52 43 5 54 3 59 -10 9 -26 -4
-38 -34 -31 -24 4 -27 2 -23 -14 3 -11 12 -20 19 -20 19 0 17 -83 -4 -180
l-17 -75 -47 -5 c-81 -10 -82 -30 -5 -69 l32 -16 -1 -98 c-1 -60 -6 -108 -14
-123 -11 -19 -11 -27 -2 -36 13 -13 17 -68 5 -68 -5 0 -28 18 -53 41 -104 93
-140 121 -140 106 0 -8 7 -17 15 -21 8 -3 15 -13 15 -22 0 -8 -4 -14 -9 -12
-15 6 -83 61 -134 110 -28 27 -54 48 -58 48 -4 0 -28 19 -53 43 -24 24 -64 52
-87 63 -23 10 -50 27 -60 37 -10 11 -23 17 -29 15 -10 -3 104 -101 215 -185
37 -27 107 -93 331 -308 29 -27 59 -55 67 -62 9 -7 18 -37 22 -70 4 -32 11
-76 16 -98 19 -86 10 -263 -21 -405 -37 -178 -102 -436 -146 -585 -60 -204
-64 -219 -75 -265 -6 -25 -14 -67 -19 -95 -5 -27 -14 -77 -20 -110 -7 -33 -11
-72 -11 -87 1 -15 -3 -29 -8 -32 -4 -3 -6 -16 -4 -30 3 -13 0 -33 -6 -44 -9
-16 -7 -24 6 -37 9 -10 16 -31 15 -52 -1 -19 3 -44 9 -54 8 -16 14 -17 30 -8
15 8 24 8 32 0 19 -19 45 -12 59 17 16 33 32 35 36 5 2 -13 8 -23 13 -23 13 0
79 -69 79 -83 0 -5 7 -4 15 3 8 7 15 19 15 26 0 20 24 17 45 -6 10 -11 26 -20
37 -20 10 0 18 -6 18 -14 0 -16 45 -27 57 -15 10 10 53 0 53 -13 0 -5 9 -6 20
-3 11 4 20 2 20 -4 0 -17 30 0 30 18 1 14 2 14 11 -1 6 -12 22 -18 43 -18 25
0 35 -5 39 -20 3 -14 14 -20 32 -20 16 0 35 -10 50 -27 l24 -28 15 37 c9 21
22 61 28 90 l12 53 6 -63 c3 -34 10 -66 17 -70 6 -4 13 -21 15 -37 2 -22 8
-30 23 -30 14 0 19 6 17 18 -4 24 19 21 25 -4 4 -14 12 -19 24 -16 10 3 24 -2
30 -9 8 -10 22 -13 41 -9 17 4 35 2 43 -5 8 -6 19 -9 25 -5 6 4 17 1 25 -5 8
-6 23 -9 34 -5 10 3 22 1 26 -5 3 -5 14 -10 24 -10 10 0 32 -7 50 -16 18 -9
44 -14 58 -11 15 3 32 -1 40 -9 7 -7 20 -11 27 -8 8 3 25 -1 38 -9 13 -9 61
-23 108 -32 47 -9 92 -21 101 -25 9 -5 37 -7 62 -5 28 2 52 -2 64 -10 10 -8
26 -15 37 -15 10 0 34 -13 52 -30 20 -17 40 -27 49 -24 8 4 22 1 30 -6 20 -16
31 15 45 122 9 71 14 87 40 113 42 41 65 27 66 -42 0 -30 10 -69 23 -97 13
-25 25 -64 28 -86 5 -36 8 -40 32 -38 15 1 32 -2 40 -6 7 -4 56 -10 109 -12
109 -4 202 -13 214 -20 5 -3 92 -7 196 -9 103 -3 257 -7 342 -11 85 -4 175 -7
200 -8 31 -1 49 -7 58 -19 8 -10 19 -16 25 -14 7 3 26 -1 42 -7 17 -7 65 -11
110 -9 235 9 497 9 553 -1 55 -9 67 -8 99 9 27 15 37 17 41 7 5 -15 32 -16 32
0 0 6 6 3 14 -7 8 -11 19 -16 30 -12 17 7 22 27 6 27 -5 0 -10 5 -10 12 0 6 7
4 18 -5 10 -10 21 -15 24 -12 3 3 35 -1 71 -9 59 -12 67 -12 67 2 0 11 8 13
35 9 19 -3 37 -2 40 3 3 5 37 7 77 5 73 -4 97 -17 76 -43 -7 -7 2 -5 21 5 22
12 34 15 39 7 12 -19 124 -25 155 -9 18 9 36 11 56 5 19 -5 33 -4 40 3 9 9 13
7 17 -8 5 -19 11 -20 82 -14 42 3 89 3 104 -2 14 -4 29 -5 31 -2 5 4 99 4 172
-1 17 -1 36 2 42 7 7 5 20 7 28 3 8 -3 15 -1 15 5 0 11 53 0 58 -13 2 -4 8 -5
13 -2 18 11 59 11 66 1 4 -7 12 1 19 18 9 20 13 24 14 12 0 -10 7 -25 15 -33
13 -14 15 -14 15 0 0 10 9 16 23 17 60 2 109 8 113 12 3 3 17 -1 31 -8 14 -8
36 -10 51 -6 34 8 54 8 69 -2 8 -5 15 1 19 17 5 21 9 24 25 15 10 -5 19 -6 19
-2 0 4 7 0 14 -10 12 -15 18 -16 40 -6 19 9 29 9 40 0 11 -9 16 -9 21 0 6 8
10 7 16 -2 8 -12 10 -12 18 0 7 11 9 11 13 0 4 -12 7 -12 21 -1 12 10 21 11
36 3 28 -16 37 -14 49 12 8 17 11 18 11 5 1 -21 17 -24 23 -6 3 9 9 8 22 -5
20 -20 42 -22 52 -6 4 8 10 6 17 -6 9 -17 11 -16 23 6 10 19 13 20 14 7 0 -14
10 -18 48 -19 26 -1 52 0 57 1 57 13 85 12 85 -4 0 -16 11 -21 23 -10 4 4 21
9 39 11 18 2 38 4 43 5 6 1 20 -2 33 -6 14 -5 22 -3 22 4 0 6 5 8 12 4 15 -9
82 -9 97 0 6 4 17 3 24 -3 9 -7 25 -4 54 9 41 18 41 18 47 -3 4 -13 9 -18 13
-12 10 13 150 18 171 6 9 -5 29 -5 46 0 62 19 336 32 611 29 179 -1 237 1 254
10 30 16 56 23 78 21 11 -1 24 3 28 9 5 8 32 10 89 5 65 -6 84 -4 94 7 8 10
23 13 54 8 24 -3 57 -3 73 1 17 4 64 10 105 13 95 6 219 24 245 35 11 5 54 14
95 21 41 6 86 13 100 15 14 3 36 7 50 10 14 3 52 8 85 12 33 3 65 9 70 13 6 3
30 7 55 8 25 1 46 6 48 12 2 5 16 10 31 10 15 0 31 4 37 10 5 5 44 12 86 15
42 3 117 13 165 23 85 17 143 18 143 4 0 -12 -152 -114 -215 -145 -33 -16 -78
-40 -100 -53 -44 -26 -261 -134 -270 -134 -2 0 -34 -20 -71 -45 -83 -57 -220
-127 -304 -154 -105 -34 -393 -111 -417 -111 -12 0 -25 -5 -28 -10 -4 -6 -15
-8 -24 -5 -28 8 -420 -54 -424 -68 -3 -11 36 -66 51 -72 19 -7 32 3 32 24 0
15 13 21 68 29 37 6 77 14 90 18 16 4 22 2 22 -9 0 -8 -10 -22 -22 -31 -23
-16 -22 -16 17 -11 22 3 67 8 100 10 82 7 196 31 325 68 89 26 144 40 155 41
6 1 10 -23 10 -54 0 -30 5 -56 10 -58 6 -1 11 7 11 19 1 12 9 26 18 31 9 5 16
15 16 23 0 16 29 34 46 28 6 -2 17 3 24 12 7 8 16 15 21 15 12 0 9 -100 -4
-120 -8 -13 -5 -23 9 -43 20 -27 60 -38 51 -14 -3 8 -1 20 4 28 8 12 11 11 20
-3 13 -23 45 -23 57 -1 9 14 10 14 16 -4 9 -29 47 -38 53 -12 3 10 9 16 14 13
5 -3 9 4 9 15 0 12 -4 21 -8 21 -4 0 -14 21 -20 47 -7 27 -26 64 -42 84 -31
39 -27 66 9 56 15 -4 27 3 42 25 21 29 150 98 184 98 9 0 43 9 76 20 83 28
146 16 207 -40 24 -22 48 -40 53 -40 5 0 9 -11 9 -25 0 -20 -5 -25 -24 -25
-59 0 -37 -62 40 -115 56 -39 82 -41 49 -5 -25 28 -8 45 30 30 16 -6 46 -8 67
-5 36 6 38 5 38 -19 0 -30 37 -61 55 -46 9 7 16 5 25 -5 7 -8 20 -15 29 -15
26 0 95 27 99 38 5 15 -50 50 -97 61 -45 10 -100 56 -152 130 -26 35 -28 41
-11 32 28 -15 29 -14 35 11 l6 22 29 -27 c30 -29 42 -27 42 7 0 12 5 28 11 36
9 13 10 13 6 -1 -3 -9 3 -23 14 -33 25 -21 28 -20 21 6 -5 22 -5 22 19 5 36
-26 100 -59 105 -54 2 2 -9 21 -24 43 -43 59 -292 194 -357 194 -35 0 -7 22
118 89 115 62 236 134 330 195 27 18 27 18 27 -5 0 -15 -8 -28 -22 -34 -37
-17 -44 -39 -20 -66 27 -28 28 -39 2 -39 -13 0 -22 9 -26 26 -7 28 -30 29 -48
2 -8 -13 -6 -22 8 -37 10 -11 15 -25 11 -30 -11 -19 -35 -12 -45 14 -11 30
-16 30 -60 8 -31 -15 -32 -17 -15 -30 11 -7 27 -13 38 -13 10 0 21 -9 24 -20
3 -11 9 -20 13 -20 18 0 40 -33 35 -51 -9 -26 -1 -24 57 13 l49 32 -25 19
c-30 22 -34 47 -8 47 23 0 42 -19 42 -43 0 -18 1 -18 23 -3 12 9 39 27 60 41
20 14 37 29 37 33 0 4 -14 13 -31 19 -18 7 -29 17 -27 25 7 21 35 21 57 -1 12
-12 25 -21 31 -21 9 0 113 87 118 100 1 4 -20 30 -48 60 -27 29 -50 59 -50 65
0 16 64 65 84 65 27 0 18 -38 -11 -52 -40 -19 -40 -42 -1 -53 26 -8 34 -16 36
-38 3 -23 6 -26 18 -16 8 6 14 18 14 25 0 8 7 14 15 14 8 0 19 10 26 22 9 18
9 20 -4 15 -18 -7 -47 22 -47 47 0 9 7 19 15 23 19 7 55 -24 55 -46 0 -11 3
-12 12 -3 9 9 5 17 -15 36 -15 14 -27 33 -27 43 0 13 -3 14 -12 5 -32 -32 -71
6 -48 48 9 17 14 18 31 9 11 -5 23 -17 25 -24 3 -8 15 -17 27 -21 11 -4 29
-16 38 -28 13 -16 21 -18 29 -10 9 9 5 18 -15 38 -30 30 -30 60 2 64 15 2 24
-4 29 -20 4 -13 7 -26 6 -30 -4 -14 27 4 32 19 4 9 5 16 4 17 -27 10 -44 28
-46 50 -5 36 29 35 56 -2 18 -24 21 -25 27 -9 5 11 0 23 -15 35 -12 10 -21 26
-19 35 4 16 7 15 29 -6 l25 -24 22 30 c26 36 25 38 -16 39 -27 1 -30 4 -25 22
12 38 55 49 73 19 7 -14 12 -15 22 -6 9 9 3 15 -25 27 -32 13 -36 19 -30 38 3
13 20 39 35 59 16 20 29 43 29 51 0 8 5 19 11 25 9 9 8 18 -5 37 -20 31 -27
32 -51 6 -19 -21 -13 -42 7 -22 17 17 38 15 38 -4 0 -23 -48 -66 -69 -62 -16
4 -51 -31 -51 -50 0 -5 7 -15 15 -22 21 -17 19 -46 -5 -70 -25 -25 -33 -25
-25 0 4 12 1 28 -6 36 -10 12 -14 10 -26 -12 -12 -23 -11 -29 2 -44 19 -21 19
-44 0 -60 -16 -14 -35 -6 -35 16 0 19 -6 18 -30 -6 -22 -22 -19 -40 6 -40 18
0 18 -39 0 -46 -8 -3 -24 0 -36 6 -22 12 -32 6 -43 -24 -3 -9 -57 39 -57 51 0
3 23 34 50 69 67 86 208 303 249 384 52 102 71 130 90 130 17 0 61 -39 61 -54
0 -5 26 -43 58 -85 31 -42 75 -103 97 -135 28 -42 41 -54 43 -42 2 9 -9 33
-25 53 -34 43 -114 151 -168 228 -22 32 -59 79 -82 105 -24 26 -43 52 -43 59
0 40 -43 -33 -111 -186 -7 -18 -18 -33 -24 -33 -10 0 -217 -304 -223 -327 -2
-7 -9 -13 -15 -14 -7 0 -26 -18 -43 -39 -49 -61 -227 -191 -242 -176 -3 4 -1
15 6 24 62 86 93 163 99 252 5 57 1 76 -26 143 -49 124 -115 567 -115 777 -1
184 22 917 29 960 12 73 22 351 18 495 -7 222 -10 260 -21 282 -6 10 -14 71
-17 134 -4 63 -13 123 -20 134 -7 11 -20 63 -30 115 -10 52 -22 101 -28 108
-12 16 0 216 18 297 8 33 17 96 20 140 7 90 27 173 55 225 16 31 17 48 10 155
-5 69 -13 121 -19 123 -6 2 -11 21 -11 41 0 30 -8 48 -41 84 -53 61 -91 88
-109 77 -11 -7 -7 -15 16 -42 16 -18 47 -60 69 -93 22 -33 44 -63 49 -66 17
-13 36 -85 36 -142 0 -38 -7 -72 -20 -99 -11 -23 -20 -52 -20 -65 0 -13 -5
-23 -10 -23 -13 0 -51 -61 -44 -72 3 -4 -4 -8 -15 -8 -23 0 -36 16 -21 25 18
11 -8 34 -32 27 -18 -4 -20 -2 -14 21 3 15 2 35 -3 44 -5 10 -24 50 -42 88
-42 88 -112 158 -175 175 -24 7 -48 10 -52 6 -8 -9 35 -46 53 -46 17 0 28 -31
16 -43 -6 -6 2 -28 22 -61 18 -28 38 -74 46 -103 15 -61 30 -204 23 -217 -3
-5 -5 -23 -4 -40 0 -17 -3 -35 -8 -41 -5 -6 -9 -20 -9 -30 0 -11 -2 -82 -4
-158 -2 -76 1 -140 5 -143 5 -3 4 -12 -3 -20 -9 -11 -9 -24 -1 -52 6 -20 14
-66 17 -102 3 -36 8 -82 12 -102 3 -20 2 -62 -1 -92 -7 -51 -10 -57 -43 -72
-29 -14 -36 -15 -43 -3 -6 8 -4 19 5 29 8 9 11 21 6 29 -5 7 -8 37 -7 67 1 31
-3 59 -10 64 -7 6 -10 46 -9 112 1 57 -2 108 -6 114 -22 28 -30 211 -12 277
15 56 10 114 -12 144 -11 14 -16 16 -26 5 -18 -17 -28 -15 -22 6 2 10 -2 24
-10 31 -13 10 -16 7 -22 -18 -3 -16 -13 -32 -22 -35 -9 -4 -13 -13 -9 -23 4
-9 1 -20 -5 -24 -7 -4 -14 -16 -16 -26 -1 -10 -8 -45 -14 -78 -7 -33 -13 -89
-13 -125 -1 -36 -6 -74 -12 -85 -5 -11 -8 -53 -6 -93 3 -63 6 -72 23 -72 10 0
18 -3 17 -7 -2 -10 24 -66 35 -74 5 -3 1 -31 -8 -62 -17 -60 -14 -79 13 -75
27 5 29 -48 3 -62 -12 -6 -21 -20 -21 -31 0 -15 -6 -19 -26 -17 -28 3 -32 -1
-60 -64 -11 -25 -14 -49 -10 -70 14 -66 14 -103 0 -122 -19 -28 -19 -87 0 -80
20 8 28 -12 11 -26 -18 -15 -19 -34 -4 -58 8 -13 6 -33 -11 -82 -12 -36 -26
-70 -32 -77 -5 -7 -7 -16 -4 -21 3 -6 -1 -15 -9 -22 -8 -7 -15 -18 -15 -25 0
-7 -6 -15 -13 -18 -21 -8 -70 -86 -72 -115 -4 -54 -17 -83 -32 -77 -12 4 -14
0 -10 -16 3 -12 1 -32 -5 -43 -6 -11 -12 -38 -13 -58 -2 -30 0 -36 10 -28 9 8
15 8 20 0 7 -12 36 1 66 31 14 14 18 27 13 41 -5 18 -3 20 21 16 28 -6 85 17
85 33 0 12 62 39 73 32 5 -3 4 -10 -2 -16 -16 -16 -13 -27 8 -27 10 0 22 7 25
16 8 22 25 8 19 -16 -3 -11 0 -20 6 -20 6 0 11 6 11 13 0 7 14 26 30 42 17 16
30 34 30 41 0 7 4 15 8 18 4 2 9 -18 10 -45 2 -42 -1 -49 -17 -49 -17 0 -20
-9 -25 -62 -3 -35 -5 -70 -4 -79 3 -38 -121 -175 -200 -222 -32 -19 -33 -19
-55 -1 -17 15 -19 15 -9 2 10 -12 11 -22 3 -35 -6 -10 -11 -13 -11 -7 0 20
-48 33 -100 27 -36 -4 -50 -2 -50 6 0 8 -11 11 -28 10 -15 -2 -32 -1 -37 3 -6
3 -29 9 -53 13 -23 4 -56 14 -73 22 -33 16 -48 11 -31 -10 24 -29 -24 -37 -72
-12 -15 8 -35 15 -42 15 -8 0 -22 4 -32 9 -55 27 -92 41 -128 50 -70 18 -185
126 -252 237 -84 141 -101 231 -84 469 9 143 -1 212 -30 207 -20 -3 -32 30
-29 79 1 23 -6 45 -18 61 -25 31 -28 47 -41 188 -7 83 -7 124 2 150 37 113 45
118 193 116 61 -1 117 -5 125 -9 12 -6 24 9 52 60 55 102 62 110 82 94 9 -8
20 -11 24 -7 4 4 0 13 -8 19 -8 7 -23 24 -32 38 -15 24 -25 27 -95 34 -93 8
-165 24 -175 39 -4 6 -8 30 -8 53 0 23 -4 45 -10 48 -5 3 -10 -3 -10 -14 0
-48 -48 -124 -92 -147 -27 -14 -37 -14 -72 -3 -57 18 -96 38 -96 49 0 17 23
11 47 -12 13 -12 26 -18 30 -14 5 4 -6 20 -22 34 -17 15 -38 38 -47 52 -8 14
-43 58 -77 98 -33 41 -68 90 -78 110 -9 20 -24 46 -33 57 -10 11 -21 38 -25
60 -4 21 -21 57 -37 78 -55 68 -49 150 14 217 12 14 60 65 105 114 83 88 83
88 83 143 0 67 18 143 35 143 15 0 46 33 49 53 1 8 18 30 39 49 21 20 37 45
37 57 0 27 25 78 53 109 21 22 11 32 -11 10 -7 -7 -34 -11 -64 -9 -56 2 -125
37 -183 91 -16 16 -57 39 -90 51 -33 12 -105 46 -161 76 -55 29 -108 53 -118
53 -9 0 -51 18 -92 40 -42 22 -82 40 -90 40 -9 0 -39 11 -67 24 -88 42 -169
76 -178 76 -4 0 -27 13 -51 29 -24 16 -52 31 -63 35 -11 3 -45 32 -76 64 -31
32 -80 71 -110 87 -93 50 -166 84 -193 91 -15 3 -49 31 -76 62 l-50 56 0 114
c0 62 4 121 10 131 10 20 29 136 39 246 5 55 17 91 54 167 26 53 47 106 47
118 0 11 4 28 9 38 16 32 43 116 61 188 24 97 31 107 94 138 43 21 64 40 96
88 l40 60 0 112 c0 84 5 123 19 161 10 28 22 70 26 95 4 25 16 78 26 119 11
41 19 89 19 107 0 18 7 59 15 91 8 31 15 92 15 134 0 69 -3 81 -26 108 -14 17
-34 31 -44 31 -10 0 -22 5 -25 10 -3 6 -21 10 -39 10 -64 0 -69 12 -58 140 7
76 17 131 31 163 12 27 21 66 21 88 0 22 6 50 14 62 8 12 17 52 21 88 7 62 9
67 34 72 45 8 200 -7 330 -33 84 -16 89 -14 55 23 -17 17 -41 47 -53 64 -17
25 -27 31 -39 25 -9 -4 -84 -7 -167 -6 l-150 3 2 23 c1 13 -2 84 -7 158 -5 74
-10 174 -11 223 -1 48 -6 90 -11 93 -5 4 -7 17 -3 31 11 44 7 210 -5 233 -7
13 -14 35 -16 50 -3 15 -14 45 -24 66 -11 21 -20 58 -20 82 0 32 -6 49 -25 68
-14 14 -25 28 -25 32 0 4 -18 27 -40 51 -22 25 -46 59 -55 77 -8 18 -30 46
-49 61 -18 15 -41 44 -51 63 -19 38 -61 92 -112 145 -18 19 -33 37 -33 40 0
22 -35 75 -50 75 -9 0 -25 9 -34 19 -10 11 -30 23 -45 26 -17 3 -31 17 -40 37
-8 17 -21 38 -30 47 -32 32 -81 99 -81 110 0 14 -42 31 -76 31 -13 0 -32 8
-42 18 -40 38 -83 62 -110 62 -17 0 -41 11 -62 30 -18 17 -40 30 -47 30 -7 0
-30 17 -52 38 -45 43 -67 55 -136 71 -27 7 -55 18 -61 26 -6 8 -21 15 -33 15
-24 0 -65 23 -94 52 -13 13 -25 17 -40 12 -12 -4 -80 -7 -152 -6 -71 1 -137
-2 -144 -7 -10 -6 -22 -6 -34 1 -14 7 -22 7 -27 -1 -4 -7 -54 -13 -130 -17
-74 -3 -130 -10 -138 -17 -8 -6 -46 -12 -84 -13 -38 -1 -75 -7 -81 -13 -6 -6
-25 -11 -43 -11 -20 0 -37 -7 -45 -20 -11 -15 -28 -20 -78 -21 -56 -2 -66 0
-74 17 -11 25 9 348 42 674 13 131 13 130 1 130 -5 0 -15 -19 -21 -42 -15 -54
-27 -68 -39 -48 -6 8 -9 22 -9 30 2 31 -1 32 -21 7 -11 -14 -20 -36 -20 -49 0
-13 -6 -33 -14 -43 -10 -14 -11 -25 -5 -38 12 -22 4 -36 -27 -47 -32 -12 -34
-65 -4 -73 25 -7 26 -27 1 -27 -20 0 -31 -34 -31 -100 0 -28 6 -41 23 -53 21
-14 22 -20 23 -178 1 -90 2 -168 3 -173 0 -4 12 -1 26 8 24 16 26 16 32 0 9
-25 -33 -56 -71 -52 -27 3 -31 -1 -39 -32 -5 -19 -13 -39 -18 -45 -5 -5 -9
-17 -9 -28 0 -14 -5 -17 -20 -12 -11 3 -20 2 -20 -4 0 -5 -14 -9 -31 -9 -20 1
-35 -5 -41 -15 -5 -10 -18 -17 -28 -17 -10 0 -21 -4 -25 -9 -25 -42 -168 -64
-235 -37 -22 9 -56 16 -75 16 -39 0 -48 17 -13 22 37 5 34 34 -3 42 -36 7 -30
22 11 28 17 2 25 9 25 23 0 16 -7 20 -32 20 -18 1 -35 4 -39 7 -12 13 9 30 32
25 26 -5 53 18 38 33 -5 4 -22 10 -39 12 -41 4 -38 22 5 26 21 2 51 17 80 41
59 50 82 61 122 61 46 0 113 61 103 93 -3 12 -7 33 -8 47 -1 16 -10 26 -27 31
-31 9 -27 11 31 14 55 3 69 10 69 34 0 10 7 24 15 31 21 17 19 44 -5 65 -11
10 -20 28 -20 39 -1 12 -7 32 -14 45 -13 23 -12 26 18 40 27 14 31 22 34 64 2
27 -2 55 -9 63 -8 10 -8 14 0 14 6 0 11 7 11 15 0 14 -14 20 -65 27 -11 2 -21
11 -23 20 -2 13 4 16 27 16 47 -2 92 48 61 67 -6 4 -17 1 -25 -5 -20 -17 -104
-19 -142 -3 -49 20 -66 18 -53 -7z m482 -132 c3 -18 3 -40 0 -50 -7 -28 -27
-15 -24 15 1 14 -2 28 -8 32 -8 5 -7 11 1 21 18 22 26 17 31 -18z m-17 -179
c8 -36 1 -47 -20 -29 -23 19 -18 79 6 65 4 -3 10 -19 14 -36z m-500 -89 c3 -6
-4 -10 -17 -10 -18 0 -20 2 -8 10 19 12 18 12 25 0z m495 6 c0 -11 -19 -15
-25 -6 -3 5 1 10 9 10 9 0 16 -2 16 -4z m-5 -65 c-4 -9 -8 -24 -9 -34 0 -9 -5
-17 -11 -18 -15 0 -18 37 -5 61 13 24 35 16 25 -9z m-9 -138 c-2 -27 -4 -56
-5 -65 0 -10 -7 -18 -15 -18 -14 0 -16 46 -2 68 3 6 2 13 -4 17 -18 11 -11 45
10 45 17 0 19 -6 16 -47z m1 -149 c8 -22 -11 -37 -37 -29 -20 6 -21 8 -4 26
21 23 33 24 41 3z m1729 -511 c-10 -10 -19 5 -10 18 6 11 8 11 12 0 2 -7 1
-15 -2 -18z m-899 -100 c-3 -10 -5 -4 -5 12 0 17 2 24 5 18 2 -7 2 -21 0 -30z
m116 -48 c4 -8 2 -17 -3 -20 -6 -4 -10 3 -10 14 0 25 6 27 13 6z m112 -119
c11 -2 22 -13 25 -27 l6 -24 13 23 c12 22 14 23 31 7 11 -10 39 -18 67 -20
101 -5 93 0 93 -50 0 -25 3 -45 8 -46 36 -4 113 -5 99 -2 -11 3 -17 12 -14 21
2 10 10 15 18 13 8 -1 23 -4 35 -5 46 -6 61 -39 22 -52 -37 -11 7 -27 58 -19
27 4 52 2 66 -6 13 -7 34 -13 47 -14 13 0 34 -13 48 -29 19 -22 27 -25 38 -16
10 8 18 8 33 -1 29 -18 35 -60 11 -77 -14 -9 -19 -25 -19 -57 0 -35 -4 -45
-20 -50 -11 -3 -24 -4 -28 -1 -17 10 -72 16 -72 8 0 -5 11 -14 25 -20 23 -10
30 -23 26 -44 0 -5 7 -8 17 -8 29 0 42 -19 30 -45 -7 -16 -16 -21 -31 -17 -17
4 -19 2 -13 -19 4 -13 9 -33 11 -43 3 -11 10 -23 17 -28 10 -6 10 -10 -2 -18
-8 -5 -22 -10 -31 -10 -9 0 -22 -7 -29 -14 -6 -8 -37 -20 -68 -27 -31 -7 -61
-15 -67 -19 -5 -4 -19 -5 -30 -3 -36 8 -188 -2 -207 -14 -15 -9 20 -17 157
-36 50 -7 97 -17 105 -22 8 -5 24 -8 35 -7 26 3 49 -13 41 -27 -4 -6 -16 -11
-27 -11 -10 0 -19 -5 -19 -10 0 -6 6 -10 13 -9 34 4 77 -2 77 -12 0 -6 -9 -8
-21 -4 -16 5 -22 1 -32 -24 -6 -17 -16 -31 -22 -32 -5 0 -23 -2 -40 -3 -204
-17 -236 -18 -247 -8 -22 18 -198 20 -198 2 0 -14 65 -30 170 -40 52 -6 160
-17 240 -27 138 -16 146 -18 173 -46 l27 -30 -24 -32 -25 -33 22 -6 c12 -3 38
-6 57 -6 20 0 46 -7 58 -16 20 -14 22 -14 22 0 0 18 16 21 26 5 3 -6 17 -8 30
-5 38 10 69 -2 71 -27 0 -12 3 -30 5 -40 2 -13 -13 -27 -57 -50 -48 -27 -68
-32 -102 -29 -34 3 -43 1 -43 -12 0 -11 -10 -16 -37 -16 -21 0 -56 -1 -77 -1
-23 0 -51 -9 -67 -20 -15 -10 -32 -19 -38 -19 -6 0 -11 -13 -11 -29 0 -32 -16
-43 -41 -30 -13 6 -23 0 -42 -29 -13 -21 -28 -53 -32 -71 -7 -31 -5 -33 15
-26 15 5 27 1 41 -14 19 -21 19 -21 -13 -51 -18 -16 -39 -30 -46 -30 -7 0 -24
-7 -37 -16 -14 -9 -25 -13 -25 -10 0 4 -10 0 -22 -8 -12 -9 -32 -16 -44 -16
-12 0 -53 -18 -90 -40 -38 -22 -74 -40 -80 -40 -6 0 -17 -7 -24 -15 -7 -9 -20
-15 -29 -14 -9 1 -25 -2 -36 -6 -11 -4 -35 -14 -52 -21 -30 -12 -33 -17 -35
-61 -3 -67 -1 -124 5 -148 3 -16 12 -20 43 -19 23 1 43 -4 49 -12 7 -10 41
-16 106 -21 89 -5 96 -7 91 -25 -7 -30 49 -21 64 10 6 13 15 23 18 22 4 -1 23
13 42 29 45 40 126 81 159 81 31 0 32 -11 4 -36 -47 -42 -60 -98 -37 -161 9
-26 24 -39 63 -58 90 -43 97 -43 155 14 l53 50 -5 54 c-3 33 -13 65 -26 84
-27 39 -27 43 1 43 58 -1 108 -38 185 -139 l23 -30 -20 -39 c-16 -31 -32 -44
-79 -65 -33 -15 -75 -30 -93 -33 -19 -3 -44 -10 -56 -16 -13 -6 -53 -9 -95 -6
-40 3 -79 3 -85 1 -16 -6 -17 -23 -2 -23 6 0 29 -15 51 -34 69 -59 101 -70
213 -70 83 0 107 4 143 22 23 12 42 27 42 33 0 6 14 28 31 50 16 21 33 54 36
74 l6 35 75 -3 76 -2 18 -55 c10 -30 23 -69 29 -87 16 -51 -2 -213 -27 -234
-8 -6 -14 -18 -14 -26 0 -15 -49 -115 -60 -123 -4 -3 -10 -23 -13 -45 -12 -93
-21 -121 -43 -129 -7 -3 -11 -11 -9 -18 3 -7 -8 -22 -25 -33 -24 -16 -27 -21
-14 -28 13 -7 8 -15 -25 -39 -23 -16 -41 -36 -41 -44 0 -9 -7 -14 -17 -12 -10
2 -22 -8 -30 -24 -8 -15 -27 -38 -43 -52 -17 -13 -30 -32 -30 -40 0 -8 -9 -20
-20 -26 -10 -6 -17 -16 -14 -24 3 -8 -3 -16 -15 -19 -13 -3 -21 -14 -22 -29
-4 -69 -17 -98 -44 -98 -7 0 -25 -16 -39 -35 -15 -19 -33 -35 -41 -35 -20 0
-43 -52 -38 -87 3 -17 0 -34 -6 -37 -6 -4 -11 0 -11 8 0 9 -4 16 -9 16 -16 0
-23 -40 -11 -55 9 -11 8 -20 -8 -40 -13 -17 -22 -49 -27 -97 -4 -40 -16 -92
-27 -117 -10 -24 -17 -50 -14 -56 7 -20 -74 -66 -103 -58 -26 7 -41 71 -20 84
10 6 8 9 -8 9 -17 0 -23 6 -23 23 0 13 -11 30 -29 41 -16 11 -27 25 -24 32 6
15 -14 54 -27 54 -16 0 -49 37 -64 74 -8 19 -23 37 -33 40 -10 3 -27 22 -37
41 -24 45 -57 75 -63 58 -3 -7 -13 -13 -24 -13 -24 0 -25 -27 -2 -60 10 -14
16 -35 14 -49 -2 -17 9 -34 38 -62 47 -45 49 -58 20 -105 -24 -40 -61 -45 -94
-14 -21 19 -23 20 -71 3 -34 -12 -89 -17 -184 -19 -235 -4 -326 -13 -346 -35
-19 -22 -44 -25 -44 -6 0 7 10 23 23 37 12 14 31 42 40 62 11 24 27 40 42 44
14 3 25 10 25 16 0 5 -5 6 -10 3 -6 -4 -17 -1 -25 5 -16 14 -20 50 -6 50 10 0
34 61 26 68 -2 2 -10 -7 -16 -22 -7 -14 -18 -26 -25 -26 -7 0 -22 -13 -34 -29
-11 -17 -28 -32 -38 -35 -9 -3 -30 -37 -46 -76 -17 -38 -34 -70 -38 -70 -5 0
-14 -12 -20 -27 -7 -16 -20 -38 -31 -50 -19 -22 -16 -43 6 -43 12 0 40 -50 32
-58 -2 -3 -21 3 -41 13 -20 9 -47 15 -59 12 -53 -10 -124 108 -154 255 -7 32
-23 77 -37 100 -13 24 -27 51 -30 61 -4 9 -10 17 -15 17 -5 0 -14 11 -19 24
-5 13 -20 26 -36 30 -16 4 -34 16 -42 27 -7 11 -18 17 -23 14 -5 -3 -6 0 -4 7
3 8 -6 18 -25 25 -16 6 -30 18 -30 27 0 9 -6 17 -12 17 -7 1 -20 2 -28 3 -8 1
-21 -3 -28 -8 -18 -13 -25 -1 -12 23 9 18 8 21 -11 21 -18 0 -21 -5 -17 -32 3
-18 8 -41 13 -50 10 -25 -13 -23 -42 4 -13 12 -23 30 -23 40 0 19 -44 42 -66
34 -16 -6 -64 46 -64 70 0 11 -7 29 -15 40 -8 10 -15 27 -15 37 0 17 -13 21
-57 17 -21 -1 -22 1 -12 29 9 25 8 34 -6 47 -9 9 -15 25 -12 34 2 10 -4 25
-14 34 -11 9 -19 25 -19 35 0 11 -5 23 -10 26 -6 3 -7 18 -4 32 4 14 2 28 -3
32 -6 3 -12 25 -16 48 -4 36 -2 43 14 48 20 7 27 35 8 35 -7 0 -9 10 -5 25 8
33 -1 50 -19 35 -10 -8 -15 -6 -20 10 -9 27 0 37 19 21 11 -9 15 -7 20 14 8
33 2 42 -35 50 -22 5 -27 10 -20 19 7 9 6 18 -2 32 -7 10 -14 32 -15 48 -1 16
-7 35 -14 43 -10 13 -14 12 -26 -4 -13 -16 -14 -15 -7 12 11 44 7 87 -12 107
-8 9 -13 24 -10 32 4 9 2 18 -3 21 -5 3 -8 30 -5 60 3 47 1 56 -16 65 -25 14
-24 36 1 43 12 3 20 0 20 -8 0 -7 7 -18 15 -25 8 -7 12 -16 9 -21 -7 -12 17
-11 35 0 12 8 13 15 4 34 -9 19 -8 25 8 35 12 8 19 24 19 44 0 30 1 31 19 14
19 -17 20 -17 30 3 8 13 26 22 56 27 50 7 72 -4 77 -39 3 -20 8 -22 58 -18 30
2 63 7 73 13 25 13 47 -7 47 -42 0 -33 24 -59 33 -35 13 31 34 5 32 -41 -1
-37 3 -47 24 -60 15 -9 33 -24 41 -34 8 -10 26 -21 39 -25 20 -6 23 -4 17 10
-4 12 0 18 14 22 29 8 14 23 -23 23 -40 0 -82 21 -82 40 0 21 33 25 54 6 13
-12 29 -15 64 -10 26 4 47 11 47 16 0 5 -4 7 -10 3 -10 -6 -125 48 -153 73
-10 9 -25 30 -33 47 -14 31 -14 33 27 95 26 37 60 74 87 91 61 39 176 63 264
56 87 -7 143 -37 242 -129 41 -37 77 -65 80 -60 8 13 -38 75 -86 117 -50 43
-23 30 42 -20 25 -19 58 -42 74 -51 39 -21 125 -23 155 -1 18 12 29 13 43 6
14 -7 19 -6 23 6 3 8 8 23 11 33 13 35 12 87 -1 102 -7 8 -15 24 -16 34 -3 12
-16 23 -37 28 -17 5 -32 13 -32 18 0 5 -10 12 -22 15 -13 4 -37 18 -55 31 -17
13 -34 24 -38 24 -8 0 -64 40 -87 63 -10 9 -24 17 -31 17 -22 0 -75 29 -80 45
-8 20 -69 16 -87 -5 -26 -31 -159 -78 -242 -85 -47 -4 -81 -12 -89 -21 -6 -8
-23 -14 -37 -14 -27 0 -72 -13 -132 -37 -19 -7 -59 -15 -89 -18 -35 -2 -64
-11 -84 -26 -23 -17 -36 -20 -55 -13 -31 11 -48 59 -25 68 9 4 13 16 11 33 -2
20 3 30 26 43 36 19 49 45 18 36 -25 -8 -38 10 -22 29 10 12 9 15 -4 15 -9 0
-16 -4 -16 -10 0 -5 -5 -10 -11 -10 -6 0 -8 9 -4 21 5 15 2 22 -14 26 -17 4
-20 11 -15 27 3 11 12 27 19 34 10 11 14 8 25 -18 14 -34 37 -36 32 -2 -3 17
3 21 35 24 25 2 38 8 38 18 0 11 -14 15 -61 15 l-60 0 1 65 c1 68 32 173 50
167 17 -6 34 27 28 56 -5 24 -3 27 21 27 16 0 26 5 26 15 0 8 4 15 9 15 5 0
14 14 20 30 5 17 14 30 20 30 5 0 30 20 55 45 25 24 56 47 68 50 53 12 257 26
453 31 147 4 238 11 303 24 177 36 156 40 -153 24 -60 -3 -191 -7 -290 -9 -99
-2 -190 -7 -202 -10 -34 -8 -53 4 -53 35 0 31 17 49 45 49 37 -1 160 23 190
36 17 7 39 16 49 19 35 12 6 20 -59 18 -35 -2 -66 2 -70 8 -3 5 -19 10 -34 10
-15 0 -33 6 -40 13 -10 10 -14 9 -22 -5 -11 -19 -69 -26 -69 -8 0 6 7 10 15
10 18 0 20 16 3 23 -26 10 29 50 79 57 65 11 123 35 123 53 0 11 -14 12 -76 4
-88 -10 -105 -6 -101 25 2 18 -3 22 -27 22 -16 1 -31 7 -33 13 -3 9 -17 11
-44 7 -32 -5 -39 -4 -39 10 0 9 -5 16 -11 16 -5 0 -7 5 -4 10 10 16 -23 24
-40 10 -13 -11 -14 -10 -9 4 9 22 -2 20 -28 -6 -14 -14 -23 -18 -26 -10 -2 7
-8 12 -13 12 -6 0 -7 -4 -4 -10 3 -5 -1 -10 -11 -10 -12 0 -15 6 -12 24 5 27
-7 55 -18 43 -4 -4 -9 -32 -10 -63 -2 -46 0 -55 12 -50 11 4 13 0 8 -19 -4
-15 -2 -25 5 -25 6 0 11 -4 11 -10 0 -24 -20 -7 -36 30 -16 36 -22 40 -49 38
-25 -2 -31 1 -33 20 -2 13 3 24 12 28 9 3 13 11 9 18 -4 6 -8 40 -9 76 -1 36
1 55 5 42 9 -34 21 -29 45 20 12 25 29 44 41 46 11 2 29 12 40 21 11 10 40 23
65 31 74 22 170 69 170 84 0 17 22 26 66 26 19 0 51 7 71 15 19 8 46 15 59 15
14 0 30 10 40 25 11 16 26 25 43 25 14 0 43 9 64 20 20 11 53 20 72 20 24 0
37 6 45 20 15 27 50 25 95 -6 31 -21 42 -24 59 -15 25 12 123 33 151 31 128
-6 208 -1 226 15 14 14 29 16 64 12 27 -4 45 -3 45 3 0 20 41 9 51 -14 6 -13
26 -31 45 -40 l35 -16 -3 27 c-2 22 2 29 20 31 26 4 25 3 12 37 -16 43 0 52
29 16 15 -18 35 -33 46 -35z m-1585 -580 c0 -11 -19 -15 -25 -6 -3 5 1 10 9
10 9 0 16 -2 16 -4z m-100 -56 c0 -5 -4 -10 -10 -10 -5 0 -10 5 -10 10 0 6 5
10 10 10 6 0 10 -4 10 -10z m330 -316 c0 -8 -4 -12 -10 -9 -5 3 -10 10 -10 16
0 5 5 9 10 9 6 0 10 -7 10 -16z m2070 -104 c11 -7 7 -10 -17 -10 -17 0 -35 5
-38 10 -8 13 35 13 55 0z m-2600 -106 c0 -8 -4 -14 -10 -14 -5 0 -10 9 -10 21
0 11 5 17 10 14 6 -3 10 -13 10 -21z m3 -63 c19 -43 22 -61 7 -61 -5 0 -10
-16 -10 -35 0 -43 -14 -45 -35 -5 -19 37 -19 66 0 74 8 3 15 10 15 16 0 5 -7
10 -15 10 -8 0 -15 -7 -15 -15 0 -8 -7 -15 -15 -15 -22 0 -18 29 8 51 31 26
40 23 60 -20z m-54 -185 c6 -7 12 -30 13 -50 1 -23 6 -36 15 -36 7 0 13 -7 13
-15 0 -9 10 -19 23 -24 22 -8 24 -15 30 -106 1 -19 5 -35 8 -35 4 0 7 -28 7
-62 1 -35 1 -83 1 -107 0 -26 -6 -52 -14 -61 -8 -9 -15 -28 -15 -42 0 -15 -7
-29 -16 -32 -15 -6 -15 -8 1 -26 15 -17 16 -24 7 -46 -7 -13 -12 -34 -12 -44
0 -28 -19 -25 -30 5 -11 30 -31 32 -55 5 -25 -28 -49 -26 -41 3 3 12 6 41 6
65 0 31 4 42 15 42 17 0 20 16 6 25 -16 9 -11 123 6 140 13 13 10 15 -21 15
-32 0 -36 3 -45 35 -6 23 -6 48 1 72 5 20 8 48 6 63 -3 22 0 26 21 28 14 1 29
6 34 11 11 11 11 96 1 154 -5 29 -3 37 8 37 9 0 21 -6 27 -14z m2991 -36 c26
-26 26 -30 -10 -70 -29 -32 -44 -64 -39 -86 5 -27 -1 -36 -16 -24 -8 7 -15 18
-15 25 0 22 -37 46 -66 43 -26 -3 -30 2 -43 39 -19 52 -11 62 22 29 37 -37 65
-34 69 6 3 30 15 39 76 57 1 1 11 -8 22 -19z m-126 -11 c-8 -14 -24 -10 -24 6
0 9 6 12 15 9 8 -4 12 -10 9 -15z m-384 2 c0 -14 -18 -23 -31 -15 -8 4 -7 9 2
15 18 11 29 11 29 0z m290 -62 c0 -5 -7 -9 -15 -9 -8 0 -15 7 -15 15 0 9 6 12
15 9 8 -4 15 -10 15 -15z m-2840 -45 c0 -8 -5 -12 -10 -9 -6 4 -8 11 -5 16 9
14 15 11 15 -7z m2643 -50 c-27 -20 -46 -17 -25 4 9 10 23 17 30 14 9 -3 8 -8
-5 -18z m111 11 c37 -16 45 -32 24 -53 -9 -9 0 -12 43 -12 67 0 84 -10 74 -41
-6 -20 -5 -22 6 -11 7 6 26 12 42 12 24 0 27 -3 22 -20 -6 -19 -3 -20 33 -14
34 5 42 3 51 -14 16 -31 14 -33 -24 -26 -20 3 -35 2 -35 -3 0 -5 -13 -24 -30
-43 -22 -24 -33 -30 -42 -23 -35 29 -93 53 -126 53 -20 0 -55 5 -77 11 -41 11
-95 53 -95 75 0 6 -16 14 -37 17 -29 5 -42 2 -65 -18 -29 -24 -58 -33 -58 -17
0 12 62 49 105 62 73 24 103 40 108 60 6 24 31 26 81 5z m220 -41 c9 -3 16
-15 16 -26 0 -17 -4 -19 -27 -13 -38 9 -52 23 -33 35 18 11 23 12 44 4z
m-2657 -70 c-3 -3 -12 -4 -19 -1 -8 3 -5 6 6 6 11 1 17 -2 13 -5z m709 -169
c48 -15 124 -68 113 -79 -3 -3 -33 6 -66 20 -46 18 -80 24 -135 24 -73 1 -247
-22 -280 -35 -10 -4 -18 -3 -18 2 0 6 32 26 71 46 67 35 76 37 168 37 58 0
117 -6 147 -15z m1693 -62 c29 -10 64 -28 79 -40 l27 -23 -35 7 c-19 3 -39 12
-43 20 -8 14 -39 18 -50 6 -4 -3 -58 -5 -120 -4 -75 1 -131 -3 -170 -14 -32
-8 -61 -15 -65 -15 -14 1 44 42 93 66 45 23 59 25 141 21 51 -3 114 -13 143
-24z m-1174 -63 c-3 -5 -11 -10 -16 -10 -6 0 -7 5 -4 10 3 6 11 10 16 10 6 0
7 -4 4 -10z m1019 -66 c18 -46 1 -66 -47 -57 -34 7 -41 17 -33 49 5 19 13 24
40 24 22 0 36 -6 40 -16z m-2511 -90 c-1 -5 -11 -10 -23 -12 -16 -3 -20 2 -20
24 0 25 1 26 23 12 12 -9 21 -19 20 -24z m3507 -271 c0 -40 -17 -52 -26 -18
-9 34 4 84 17 64 5 -7 9 -28 9 -46z m-49 -70 c16 -40 3 -155 -23 -209 -40 -87
-78 -66 -46 25 11 31 22 87 24 124 2 38 6 73 10 78 10 17 24 9 35 -18z m-3321
-379 c0 -8 -5 -12 -10 -9 -6 4 -8 11 -5 16 9 14 15 11 15 -7z m1940 -1293 c27
-52 -5 -173 -84 -316 -41 -75 -139 -158 -211 -179 -134 -39 -134 -38 -209 -20
-39 9 -91 28 -116 42 -65 36 -157 129 -187 187 -39 75 -83 213 -83 258 l0 40
93 -8 c50 -5 107 -7 125 -7 17 1 32 -3 32 -8 0 -6 6 -10 13 -10 13 0 45 -31
64 -64 10 -18 22 -20 120 -21 l108 -1 41 42 c25 25 58 47 80 53 22 6 46 15 54
21 8 5 45 10 82 10 56 0 69 -3 78 -19z m-928 -126 c4 -16 4 -33 -1 -38 -10
-10 -19 2 -31 44 -8 25 -6 30 7 27 9 -2 20 -16 25 -33z m-141 -82 c26 -33 49
-81 49 -104 0 -12 10 -33 22 -46 21 -22 21 -23 3 -43 -17 -19 -19 -19 -37 -4
-10 10 -18 23 -18 31 0 8 -9 33 -20 55 -11 23 -18 50 -15 59 3 10 1 20 -5 24
-12 7 -14 45 -2 45 5 0 15 -8 23 -17z m-1226 -83 c3 -6 -1 -7 -9 -4 -18 7 -21
14 -7 14 6 0 13 -4 16 -10z m1363 -142 c16 -16 15 -58 -2 -58 -16 0 -66 38
-66 50 0 8 20 16 46 19 5 0 15 -4 22 -11z m-1618 -58 c0 -5 -7 -7 -15 -4 -8 4
-15 8 -15 10 0 2 7 4 15 4 8 0 15 -4 15 -10z m6580 -1200 c0 -5 -4 -10 -10
-10 -5 0 -10 5 -10 10 0 6 5 10 10 10 6 0 10 -4 10 -10z m-8618 -193 c-5 -7
-15 -29 -22 -50 -6 -21 -14 -36 -17 -33 -6 5 12 91 30 145 l12 35 3 -43 c2
-23 -1 -48 -6 -54z m-135 -489 c-3 -8 -6 -5 -6 6 -1 11 2 17 5 13 3 -3 4 -12
1 -19z m-1200 -62 c11 -18 118 -86 137 -86 8 0 18 5 21 10 11 18 35 11 63 -18
27 -28 36 -33 125 -72 49 -22 64 -50 25 -50 -13 0 -53 -12 -90 -27 -59 -24
-66 -31 -62 -50 4 -15 0 -25 -15 -33 -17 -9 -21 -8 -21 5 0 33 -34 10 -74 -50
-14 -22 -26 -47 -26 -56 0 -29 -27 -29 -64 -1 -19 15 -47 35 -61 45 -27 19
-25 37 3 37 9 0 33 -12 54 -26 21 -15 40 -25 42 -23 2 2 1 18 -1 35 -4 26 -15
37 -54 59 -27 14 -49 30 -49 35 0 5 -9 12 -20 15 -11 4 -32 17 -48 29 -20 17
-39 22 -77 22 -64 -1 -66 -20 -6 -49 25 -12 47 -28 49 -34 7 -23 -28 -13 -79
22 -28 19 -55 35 -60 35 -20 0 -7 32 29 68 49 50 108 95 178 137 65 39 70 41
81 21z m409 -307 c8 -14 -11 -33 -25 -25 -11 7 -4 36 9 36 5 0 12 -5 16 -11z
m9409 -29 c3 -5 1 -10 -4 -10 -6 0 -11 5 -11 10 0 6 2 10 4 10 3 0 8 -4 11
-10z m-94 -257 c-8 -15 -10 -15 -11 -2 0 17 10 32 18 25 2 -3 -1 -13 -7 -23z
m-1154 -240 c-3 -10 -5 -4 -5 12 0 17 2 24 5 18 2 -7 2 -21 0 -30z m-8217 -57
c0 -16 -14 -36 -26 -36 -14 0 -19 22 -7 33 7 8 33 10 33 3z m-142 -318 c18
-18 15 -28 -8 -28 -13 0 -20 7 -20 20 0 23 10 26 28 8z m83 -86 c21 -15 51
-67 43 -75 -3 -3 -27 18 -55 47 -45 47 -48 52 -32 64 15 11 19 10 22 -5 2 -10
12 -24 22 -31z m9279 33 c0 -2 -6 -5 -13 -8 -8 -3 -14 1 -14 8 0 7 6 11 14 8
7 -3 13 -6 13 -8z m310 -210 c0 -8 -4 -15 -10 -15 -5 0 -10 7 -10 15 0 8 5 15
10 15 6 0 10 -7 10 -15z m-865 -294 c11 -5 43 -17 70 -27 60 -21 79 -34 67
-46 -5 -5 -23 -3 -43 6 -19 8 -45 17 -59 20 -28 6 -110 56 -110 68 0 7 32 -2
75 -21z m460 -61 c3 -5 1 -10 -4 -10 -6 0 -11 5 -11 10 0 6 2 10 4 10 3 0 8
-4 11 -10z m-7585 -354 c0 -8 -51 -13 -56 -5 -3 5 9 9 25 9 17 0 31 -2 31 -4z
m-157 -126 c-12 -5 -34 -27 -49 -50 -19 -28 -30 -38 -38 -30 -5 5 -18 10 -27
10 -34 0 -29 19 8 31 21 6 49 20 62 30 13 11 33 19 45 18 21 0 21 0 -1 -9z
m-99 -101 l27 -22 -42 -24 c-46 -26 -139 -40 -185 -29 l-29 8 38 33 c21 19 53
37 70 39 18 3 43 7 57 9 14 3 28 5 31 6 4 0 18 -9 33 -20z m-644 -263 c0 -9
-30 -14 -35 -6 -4 6 3 10 14 10 12 0 21 -2 21 -4z m9950 -217 c-9 -16 -14 -18
-20 -9 -9 14 -3 37 14 59 9 12 12 11 14 -7 2 -11 -2 -31 -8 -43z m-55 -108 c3
-5 1 -12 -4 -15 -5 -3 -11 1 -15 9 -6 16 9 21 19 6z m-45 -71 c0 -5 -5 -10
-11 -10 -5 0 -7 5 -4 10 3 6 8 10 11 10 2 0 4 -4 4 -10z m-96 -135 c-6 -16
-24 -21 -24 -7 0 11 11 22 21 22 5 0 6 -7 3 -15z m-10377 -227 c-3 -8 -6 -5
-6 6 -1 11 2 17 5 13 3 -3 4 -12 1 -19z m10263 -53 c0 -9 -6 -18 -14 -21 -8
-3 -16 -19 -20 -35 -4 -22 -11 -30 -23 -27 -28 5 -26 32 4 66 30 34 53 41 53
17z m97 -41 c-9 -9 -28 6 -21 18 4 6 10 6 17 -1 6 -6 8 -13 4 -17z m-189 -72
c2 -7 -6 -12 -17 -12 -21 0 -27 11 -14 24 9 9 26 2 31 -12z m-52 -48 c-5 -14
-9 -15 -19 -5 -9 9 -9 14 3 21 18 11 24 6 16 -16z m34 -65 c0 -24 -23 -21 -28
4 -2 10 3 17 12 17 10 0 16 -9 16 -21z m-542 -28 c-7 -11 -16 -17 -22 -14 -5
3 -1 12 9 20 25 18 27 17 13 -6z m502 -10 c7 -14 7 -22 -1 -27 -13 -8 -41 24
-33 37 9 15 23 10 34 -10z m92 -18 c24 -21 23 -43 -2 -43 -11 0 -23 -7 -26
-15 -9 -23 -54 -19 -54 5 0 15 7 20 25 20 20 0 25 5 25 25 0 29 7 31 32 8z
m-172 -62 c0 -4 -3 -11 -7 -14 -9 -9 -33 12 -33 30 0 11 4 11 20 3 11 -6 20
-14 20 -19z m20 -86 c0 -16 -6 -25 -15 -25 -15 0 -21 31 -8 43 13 14 23 6 23
-18z m-126 -82 c4 -9 1 -20 -6 -24 -15 -9 -38 8 -38 27 0 20 37 17 44 -3z
m-414 -103 c0 -5 -7 -10 -15 -10 -8 0 -15 5 -15 10 0 6 7 10 15 10 8 0 15 -4
15 -10z m-1140 -325 c0 -17 -105 -69 -120 -60 -18 11 -10 20 38 38 26 10 54
22 62 27 20 12 20 12 20 -5z m-180 -54 c5 -11 10 -21 10 -23 0 -2 -32 -1 -72
0 -47 3 -66 7 -57 13 8 5 26 9 41 9 15 0 30 5 33 10 10 16 34 11 45 -9z"/>
<path d="M5970 11084 c0 -8 5 -12 10 -9 6 4 8 11 5 16 -9 14 -15 11 -15 -7z"/>
<path d="M7183 10959 c-10 -4 33 -8 96 -8 63 -1 112 2 108 5 -8 9 -183 11
-204 3z"/>
<path d="M6560 10933 c-50 -5 -81 -23 -38 -23 55 0 119 13 106 21 -7 5 -15 8
-18 7 -3 -1 -25 -3 -50 -5z"/>
<path d="M6252 10900 c-34 -4 -66 -11 -70 -15 -9 -10 143 2 183 14 29 9 29 9
-10 9 -22 -1 -68 -4 -103 -8z"/>
<path d="M6408 10903 c7 -3 16 -2 19 1 4 3 -2 6 -13 5 -11 0 -14 -3 -6 -6z"/>
<path d="M5733 10412 c-25 -4 -31 -27 -10 -35 9 -3 9 -7 0 -17 -17 -18 22 -69
48 -63 16 4 17 1 12 -31 -6 -38 5 -47 27 -21 17 21 30 9 30 -26 0 -24 -7 -32
-35 -46 -42 -20 -49 -36 -25 -58 19 -17 20 -17 29 8 7 17 21 29 38 33 15 3 39
13 52 21 17 11 38 14 75 9 29 -3 45 -2 37 3 -9 6 -10 11 -2 15 6 4 27 -2 46
-14 38 -24 49 -12 13 13 l-23 16 29 0 c21 1 27 5 22 16 -4 10 1 15 14 15 13 0
20 -7 20 -19 0 -18 55 -52 90 -55 8 -1 25 -7 38 -14 21 -12 26 -11 49 12 l26
26 -37 15 c-20 8 -36 22 -36 30 0 12 -4 13 -19 5 -27 -14 -51 -13 -51 4 0 16
21 26 56 26 23 0 35 19 14 21 -5 1 -25 4 -42 6 -18 3 -71 6 -118 9 -127 6
-152 10 -164 25 -11 15 -105 49 -134 49 -8 0 -23 6 -31 13 -9 7 -26 11 -38 9z"/>
<path d="M6330 10293 c0 -16 42 -35 53 -24 6 6 9 13 6 15 -9 10 -59 18 -59 9z"/>
<path d="M7547 10093 c-9 -2 -15 -9 -12 -14 4 -5 13 -5 24 1 10 5 22 6 26 2 5
-4 5 -1 1 6 -7 12 -9 13 -39 5z"/>
<path d="M5660 10030 c-8 -5 -11 -12 -7 -16 4 -4 13 -2 19 4 15 15 7 24 -12
12z"/>
<path d="M5560 9926 c0 -4 7 -14 15 -22 8 -9 15 -11 15 -6 0 5 -7 15 -15 22
-8 7 -15 9 -15 6z"/>
<path d="M6032 9720 c-66 -40 -82 -133 -36 -198 36 -51 69 -66 126 -57 56 9
81 26 102 68 35 75 12 153 -56 188 -48 24 -95 24 -136 -1z m118 -42 c13 -25
13 -29 -1 -43 -24 -24 -83 -7 -87 25 -8 50 62 64 88 18z"/>
<path d="M6540 9525 c0 -8 4 -15 9 -15 5 0 11 7 15 15 3 9 0 15 -9 15 -8 0
-15 -7 -15 -15z"/>
<path d="M7287 9513 c-14 -13 -6 -43 13 -53 11 -6 20 -17 20 -25 0 -8 5 -15
10 -15 6 0 10 7 10 15 0 7 8 19 18 24 9 6 12 11 6 11 -6 0 -16 11 -22 25 -11
23 -40 33 -55 18z"/>
<path d="M6049 9384 c26 -18 114 -15 134 5 8 8 -10 11 -73 11 -81 0 -83 -1
-61 -16z"/>
<path d="M7270 8895 c0 -8 7 -15 15 -15 8 0 15 7 15 15 0 8 -7 15 -15 15 -8 0
-15 -7 -15 -15z"/>
<path d="M5480 8882 c0 -23 38 -65 51 -56 6 3 2 12 -10 21 -12 8 -21 20 -21
28 0 8 -4 17 -10 20 -5 3 -10 -2 -10 -13z"/>
<path d="M7350 8818 c0 -14 7 -32 17 -39 15 -13 16 -11 9 16 -10 41 -26 56
-26 23z"/>
<path d="M5450 8781 c0 -6 5 -13 10 -16 6 -3 10 1 10 9 0 9 -4 16 -10 16 -5 0
-10 -4 -10 -9z"/>
<path d="M7407 8637 c-7 -19 -95 -47 -145 -47 -63 0 -215 -53 -241 -83 -36
-44 -207 -45 -295 -2 -16 8 -32 12 -37 10 -4 -3 -29 10 -55 30 -69 53 -101 67
-166 72 -32 3 -58 10 -58 14 0 5 -5 9 -11 9 -8 0 -9 -16 -5 -52 11 -84 25
-125 53 -158 21 -26 32 -31 62 -28 42 4 49 26 13 44 -34 17 -42 27 -34 41 6 9
16 8 42 -7 19 -10 42 -22 51 -25 8 -4 23 -20 33 -36 9 -16 27 -34 39 -40 12
-6 31 -20 43 -31 11 -10 32 -21 45 -24 143 -30 260 -35 306 -11 18 9 39 17 48
17 9 0 29 9 43 21 25 19 27 19 39 3 10 -14 15 -15 27 -5 8 7 19 10 24 7 28
-17 159 71 187 124 22 43 30 131 12 154 -12 16 -15 17 -20 3z"/>
<path d="M6666 8541 c-3 -5 1 -11 9 -15 8 -3 15 -1 15 4 0 13 -18 22 -24 11z"/>
<path d="M5710 8370 c0 -5 5 -10 11 -10 5 0 7 5 4 10 -3 6 -8 10 -11 10 -2 0
-4 -4 -4 -10z"/>
<path d="M5742 8321 c2 -7 7 -12 11 -12 12 1 9 15 -3 20 -7 2 -11 -2 -8 -8z"/>
<path d="M5675 8300 c-3 -5 -1 -10 4 -10 6 0 11 5 11 10 0 6 -2 10 -4 10 -3 0
-8 -4 -11 -10z"/>
<path d="M6660 8056 c0 -19 25 -66 36 -66 11 0 10 7 -4 35 -14 28 -32 46 -32
31z"/>
<path d="M6290 7676 c0 -9 5 -16 10 -16 6 0 10 4 10 9 0 6 -4 13 -10 16 -5 3
-10 -1 -10 -9z"/>
<path d="M5185 9980 c-4 -6 2 -13 12 -17 10 -4 23 -13 28 -20 11 -14 38 -3 27
12 -12 18 -61 35 -67 25z"/>
<path d="M5310 9649 c0 -5 5 -7 10 -4 6 3 10 8 10 11 0 2 -4 4 -10 4 -5 0 -10
-5 -10 -11z"/>
<path d="M8191 10244 c0 -11 3 -14 6 -6 3 7 2 16 -1 19 -3 4 -6 -2 -5 -13z"/>
<path d="M1386 4949 c-20 -15 -25 -27 -20 -43 9 -31 42 -56 74 -56 31 0 90 48
90 73 0 45 -98 62 -144 26z"/>
<path d="M2858 2643 c6 -2 18 -2 25 0 6 3 1 5 -13 5 -14 0 -19 -2 -12 -5z"/>
<path d="M5540 13239 c0 -5 5 -7 10 -4 6 3 10 8 10 11 0 2 -4 4 -10 4 -5 0
-10 -5 -10 -11z"/>
<path d="M6102 13230 c0 -14 2 -19 5 -12 2 6 2 18 0 25 -3 6 -5 1 -5 -13z"/>
<path d="M9760 13126 c-3 -2 -53 -8 -110 -11 -58 -3 -143 -15 -190 -26 -47
-11 -128 -27 -180 -35 -52 -9 -120 -20 -150 -25 -50 -8 -162 -23 -265 -33 -40
-5 -320 -24 -404 -29 -25 -1 -46 -7 -48 -12 -3 -11 143 -183 244 -286 47 -48
70 -65 84 -62 27 7 23 16 -14 33 -33 16 -197 203 -197 226 0 8 18 15 48 19 26
3 54 10 62 14 8 5 31 6 49 3 25 -3 38 0 47 13 17 22 37 10 28 -18 -5 -17 -4
-19 6 -10 8 7 20 8 34 3 11 -5 47 -14 79 -20 31 -6 70 -22 85 -34 64 -55 236
-71 265 -25 10 16 14 15 48 -16 36 -32 39 -33 101 -28 43 4 74 14 98 30 19 12
41 23 49 23 7 0 29 10 49 22 30 18 39 20 66 10 42 -16 111 -15 136 0 16 10 24
10 41 0 18 -11 23 -11 33 4 7 9 18 14 24 10 6 -4 23 -4 37 0 22 5 26 11 22 30
-5 30 10 31 60 2 32 -20 53 -23 144 -24 84 -1 113 -5 138 -20 17 -10 31 -24
31 -31 0 -16 11 -14 -100 -23 -52 -5 -117 -13 -145 -17 -54 -10 -105 1 -105
22 0 15 -22 25 -54 25 -32 0 -38 -9 -21 -34 28 -39 12 -47 -40 -20 -35 18 -86
12 -111 -14 -12 -12 -37 -18 -83 -19 -36 -2 -70 -8 -75 -13 -6 -6 -26 -10 -46
-10 -24 0 -43 -7 -55 -20 -10 -11 -28 -20 -41 -20 -38 0 -54 -11 -54 -36 0
-15 -6 -24 -15 -24 -8 0 -15 4 -15 9 0 12 -43 22 -53 12 -31 -31 161 -57 225
-30 17 7 48 12 69 10 20 -1 40 2 44 8 3 6 18 11 33 11 15 0 45 6 67 14 22 8
74 17 115 21 41 4 80 11 86 16 6 5 87 11 180 13 245 6 388 -17 504 -80 l45
-25 -61 58 c-44 42 -64 71 -74 103 -20 66 -49 107 -126 181 -85 81 -160 132
-239 160 -50 19 -87 23 -230 27 -93 2 -172 1 -175 -2z m210 -57 c8 0 35 1 58
3 39 3 74 -13 60 -27 -2 -3 -59 -6 -127 -8 -85 -2 -125 -7 -130 -16 -7 -10
-12 -10 -28 -1 -14 9 -25 10 -38 2 -27 -14 -65 5 -65 34 0 21 4 22 65 20 36
-1 70 1 75 4 6 4 34 3 63 -2 28 -5 59 -9 67 -9z m-309 -12 c12 -20 1 -27 -34
-20 -24 5 -35 22 -22 35 11 10 48 1 56 -15z m-164 -5 c57 9 83 0 83 -27 0 -17
-81 -35 -150 -32 -50 2 -55 4 -58 26 -3 16 1 22 10 19 7 -3 19 2 27 9 8 9 17
11 23 5 5 -5 32 -5 65 0z m-159 -55 c2 -15 -1 -27 -5 -27 -15 0 -33 23 -33 43
0 30 34 16 38 -16z m-148 -12 c15 -19 6 -30 -32 -39 -34 -8 -45 9 -22 35 21
23 37 24 54 4z m60 0 c7 -9 10 -19 6 -22 -8 -9 -38 9 -44 25 -5 17 23 15 38
-3z m-185 -25 c3 -5 12 -7 20 -3 8 3 15 0 15 -6 0 -6 -13 -11 -30 -11 -20 0
-30 5 -30 15 0 17 16 20 25 5z m-55 -30 c0 -11 -21 -13 -44 -4 -13 5 -14 10
-5 20 12 15 49 2 49 -16z m-150 10 c11 -7 12 -12 3 -21 -13 -13 -33 -4 -33 17
0 16 9 18 30 4z m1250 -211 c0 -5 -4 -9 -10 -9 -5 0 -10 7 -10 16 0 8 5 12 10
9 6 -3 10 -10 10 -16z m-120 1 c0 -5 -2 -10 -4 -10 -3 0 -8 5 -11 10 -3 6 -1
10 4 10 6 0 11 -4 11 -10z m-295 -30 c3 -5 12 -7 20 -3 8 3 15 1 15 -5 0 -16
-31 -23 -46 -11 -8 6 -14 15 -14 20 0 12 17 11 25 -1z m-163 -52 c-9 -9 -42
-1 -42 12 0 4 12 5 26 2 15 -3 22 -8 16 -14z m-80 -20 c-9 -9 -12 -7 -12 12 0
19 3 21 12 12 9 -9 9 -15 0 -24z"/>
<path d="M6016 13107 c-17 -13 -17 -14 -1 -30 9 -9 25 -17 36 -17 28 0 36 30
14 46 -23 17 -27 17 -49 1z"/>
<path d="M4789 12936 c-45 -25 -139 -111 -139 -128 0 -6 -34 -48 -77 -94 -55
-60 -83 -84 -100 -84 -13 0 -40 -7 -60 -15 -49 -21 -51 -19 -18 15 16 16 42
32 59 36 39 7 132 86 122 102 -4 7 -19 12 -34 12 -21 0 -70 -44 -249 -222
-122 -123 -228 -234 -235 -247 -7 -14 -29 -39 -48 -57 -30 -28 -33 -34 -18
-39 11 -4 36 2 60 13 29 15 46 18 59 12 10 -6 23 -10 30 -10 7 0 60 48 117
108 58 59 220 223 360 365 254 256 279 290 171 233z m-574 -580 c-16 -11 -40
-32 -53 -44 -21 -21 -28 -22 -50 -12 -24 10 -24 12 -6 24 10 7 35 19 54 26 19
7 44 19 54 27 32 21 33 2 1 -21z"/>
<path d="M9170 12606 c0 -3 21 -25 46 -48 26 -24 78 -82 116 -130 38 -48 73
-88 77 -90 19 -8 131 -140 126 -148 -4 -6 -20 -4 -42 5 -25 11 -72 15 -160 15
-104 0 -130 -3 -163 -20 -21 -11 -41 -24 -45 -30 -3 -5 -27 -16 -54 -24 -26
-8 -67 -24 -91 -36 -28 -14 -41 -17 -38 -8 2 7 18 20 36 28 35 17 50 40 25 40
-32 0 -132 -70 -205 -144 l-49 -50 -43 45 c-23 24 -68 73 -98 109 -30 36 -92
102 -137 147 -44 45 -81 88 -81 96 0 19 35 48 105 88 35 20 53 35 44 37 -35 7
-283 -157 -277 -183 2 -7 52 -64 112 -127 240 -250 317 -331 485 -503 97 -100
193 -200 213 -223 37 -41 61 -52 73 -32 3 5 30 26 60 45 29 20 59 42 66 51 10
13 8 13 -15 4 -55 -21 -67 -14 -183 108 -111 115 -134 150 -93 139 11 -3 20
-2 20 2 0 11 243 97 310 110 30 6 127 26 215 45 88 19 174 37 190 41 25 5 36
0 59 -24 23 -24 27 -35 21 -59 -5 -26 -3 -32 22 -44 16 -8 29 -23 31 -36 2
-13 11 -26 20 -29 9 -4 35 -21 57 -38 30 -24 57 -35 110 -43 38 -6 71 -9 73
-7 4 4 -231 265 -333 371 -16 18 -53 58 -82 90 -119 137 -396 439 -407 445
-15 9 -116 21 -116 15z m267 -496 c2 -8 -12 -25 -30 -37 -34 -21 -34 -21 -63
-2 -34 22 -38 44 -7 44 11 0 25 4 29 8 14 13 69 3 71 -13z m-148 -29 c12 -16
21 -36 21 -45 0 -9 10 -21 23 -26 20 -8 19 -9 -13 -11 -19 -1 -42 -2 -50 -1
-8 1 -31 -6 -50 -14 -19 -9 -57 -25 -85 -37 -27 -12 -81 -38 -120 -58 -90 -46
-136 -56 -157 -32 -40 45 -30 91 25 119 18 9 42 25 54 36 28 26 70 17 83 -17
12 -32 46 -40 93 -20 26 11 37 21 37 36 0 22 0 22 -84 7 -36 -6 -24 17 26 50
59 37 74 39 96 11 20 -23 47 -18 55 12 7 27 22 24 46 -10z m371 2 c2 -2 0 -11
-6 -20 -22 -36 -157 -60 -175 -32 -14 22 -11 25 28 27 21 2 51 11 68 21 26 16
68 18 85 4z m-810 -77 c-17 -18 -37 -42 -45 -52 -19 -25 -19 -5 1 34 16 32 38
51 62 52 7 0 -1 -15 -18 -34z m-73 -98 c-3 -8 -6 -5 -6 6 -1 11 2 17 5 13 3
-3 4 -12 1 -19z m203 -228 c0 -5 -4 -10 -9 -10 -6 0 -13 5 -16 10 -3 6 1 10 9
10 9 0 16 -4 16 -10z m30 -41 c0 -5 -4 -9 -10 -9 -5 0 -10 7 -10 16 0 8 5 12
10 9 6 -3 10 -10 10 -16z m120 -129 c0 -5 -2 -10 -4 -10 -3 0 -8 5 -11 10 -3
6 -1 10 4 10 6 0 11 -4 11 -10z"/>
<path d="M8940 11970 c-9 -6 -10 -10 -3 -10 6 0 15 5 18 10 8 12 4 12 -15 0z"/>
<path d="M9090 12572 c0 -5 25 -36 57 -70 50 -55 60 -62 95 -62 21 0 38 4 38
8 0 11 -47 52 -60 52 -6 0 -10 5 -10 11 0 21 -64 69 -92 69 -16 0 -28 -4 -28
-8z"/>
<path d="M8860 12391 c-44 -24 -69 -65 -53 -89 16 -27 98 -33 165 -12 55 18
118 56 118 72 0 20 -54 40 -122 44 -59 3 -80 0 -108 -15z"/>
<path d="M8520 12370 c0 -22 -10 -26 -27 -9 -8 8 -13 7 -19 -2 -5 -8 6 -24 31
-46 39 -34 55 -40 55 -23 0 6 -4 10 -10 10 -5 0 -10 7 -10 15 0 27 15 16 78
-54 61 -69 74 -91 50 -91 -21 1 -46 25 -57 53 -12 31 -19 33 -46 13 -19 -13
-18 -15 13 -44 18 -16 32 -35 32 -41 0 -14 57 -15 65 -1 11 18 38 11 67 -17
32 -30 35 -48 11 -57 -13 -5 -14 -9 -4 -19 8 -8 14 -9 19 -1 4 6 15 13 25 17
14 5 17 13 11 29 -9 29 -36 67 -49 69 -13 1 -135 145 -135 159 0 5 8 10 18 10
20 0 62 -39 62 -58 0 -7 11 -18 25 -24 14 -6 25 -14 25 -18 0 -13 79 -92 89
-89 11 4 -185 222 -205 227 -6 2 -14 -6 -17 -17 -6 -24 -37 -19 -63 10 -22 24
-34 24 -34 -1z"/>
<path d="M3924 12168 l-19 -23 23 19 c21 18 27 26 19 26 -2 0 -12 -10 -23 -22z"/>
<path d="M5260 11970 c-51 -12 -209 -29 -335 -36 -113 -6 -191 -22 -231 -49
-19 -12 -31 -13 -66 -4 -46 12 -151 -2 -164 -22 -10 -17 18 -39 50 -38 17 0
68 -4 114 -9 90 -10 143 -3 172 23 10 9 49 21 92 26 40 5 90 16 111 24 20 8
52 15 71 15 18 0 59 9 92 19 32 11 82 22 109 26 72 9 83 14 65 25 -17 11 -32
11 -80 0z m-465 -110 c-3 -5 -10 -10 -16 -10 -5 0 -9 5 -9 10 0 6 7 10 16 10
8 0 12 -4 9 -10z"/>
<path d="M5400 11971 c0 -5 -10 -12 -22 -16 -15 -4 -19 -8 -10 -12 8 -3 19 0
25 6 6 6 21 11 34 11 13 0 23 5 23 10 0 6 -11 10 -25 10 -14 0 -25 -4 -25 -9z"/>
<path d="M9730 11920 c0 -5 5 -10 11 -10 5 0 7 5 4 10 -3 6 -8 10 -11 10 -2 0
-4 -4 -4 -10z"/>
<path d="M4040 11900 c0 -5 5 -10 10 -10 6 0 10 5 10 10 0 6 -4 10 -10 10 -5
0 -10 -4 -10 -10z"/>
<path d="M3520 11868 c-19 -6 -84 -24 -145 -40 -119 -33 -275 -85 -284 -95 -9
-9 54 3 139 28 88 25 146 37 215 44 32 3 41 2 25 -3 -15 -5 -25 -15 -25 -27 0
-24 73 -50 180 -64 38 -6 99 -15 135 -21 36 -7 79 -11 95 -11 17 1 70 3 119 4
57 1 91 6 93 14 5 15 -18 22 -117 33 -89 10 -108 7 -89 -16 19 -23 -16 -17
-74 12 -61 30 -131 81 -171 123 -32 33 -41 35 -96 19z"/>
<path d="M9630 11876 c0 -2 7 -9 15 -16 13 -11 14 -10 9 4 -5 14 -24 23 -24
12z"/>
<path d="M9468 11830 c-63 -8 -124 -40 -133 -72 -11 -32 10 -42 78 -40 145 6
253 59 195 95 -32 20 -73 25 -140 17z"/>
<path d="M9670 11834 c0 -15 55 -70 75 -75 17 -5 12 3 -21 37 -40 42 -54 51
-54 38z"/>
<path d="M4367 11823 c-14 -13 -6 -23 34 -43 41 -21 104 -24 104 -5 0 6 -15
11 -33 13 -19 2 -38 11 -45 23 -11 18 -47 26 -60 12z"/>
<path d="M4083 11795 c-23 -6 -48 -16 -55 -23 -9 -9 -4 -12 28 -13 21 0 52 -2
67 -4 15 -2 47 3 69 11 42 15 66 10 35 -7 -27 -16 -20 -36 16 -42 34 -6 107
11 107 24 0 19 -13 39 -26 39 -8 0 -25 7 -38 15 -26 17 -131 17 -203 0z"/>
<path d="M4860 11790 c0 -5 5 -10 11 -10 5 0 7 5 4 10 -3 6 -8 10 -11 10 -2 0
-4 -4 -4 -10z"/>
<path d="M9780 11775 c0 -9 5 -15 11 -13 6 2 11 8 11 13 0 5 -5 11 -11 13 -6
2 -11 -4 -11 -13z"/>
<path d="M4435 11690 c-3 -5 3 -10 15 -10 12 0 18 5 15 10 -3 6 -10 10 -15 10
-5 0 -12 -4 -15 -10z"/>
<path d="M9080 11660 c23 -32 39 -45 46 -37 7 6 -45 67 -58 67 -5 0 0 -13 12
-30z"/>
<path d="M4248 11663 c7 -3 16 -2 19 1 4 3 -2 6 -13 5 -11 0 -14 -3 -6 -6z"/>
<path d="M9530 11650 c-9 -6 -10 -10 -3 -10 6 0 15 5 18 10 8 12 4 12 -15 0z"/>
<path d="M9365 11630 c-3 -5 1 -10 9 -10 9 0 16 5 16 10 0 6 -4 10 -9 10 -6 0
-13 -4 -16 -10z"/>
<path d="M9150 11594 c0 -6 14 -23 30 -39 17 -16 30 -24 30 -19 0 6 -13 23
-30 39 -16 16 -30 24 -30 19z"/>
<path d="M9768 11133 c-73 -14 -76 -16 -74 -41 l3 -26 124 1 c75 0 125 5 127
11 4 14 -15 25 -23 12 -11 -17 -37 -11 -33 8 2 13 14 17 50 18 51 2 72 -18 38
-36 -23 -12 -17 -37 12 -45 14 -5 18 -14 16 -33 -3 -25 -5 -26 -58 -24 -64 3
-181 -41 -206 -77 -8 -11 -25 -21 -36 -21 -12 0 -29 -6 -37 -14 -9 -8 -45 -34
-80 -58 -48 -32 -71 -55 -88 -89 -12 -25 -44 -64 -70 -85 -142 -114 -214 -207
-185 -236 7 -7 14 -4 21 10 6 11 37 43 71 72 54 46 65 52 107 52 59 1 100 21
143 71 36 41 34 63 -3 29 -33 -31 -47 -28 -47 11 0 30 5 36 38 50 20 9 52 28
71 42 41 30 61 20 36 -19 l-17 -26 30 0 c17 0 44 -8 61 -17 39 -23 54 -7 19
21 -35 27 -36 54 -4 62 17 4 26 14 28 32 2 20 9 28 28 30 14 2 34 15 45 28 32
40 91 48 161 22 33 -11 87 -23 121 -25 60 -5 63 -4 73 21 5 14 14 26 20 26 5
0 10 11 10 24 0 29 -61 86 -93 86 -21 1 -21 1 3 15 14 8 34 14 45 15 12 0 27
13 38 31 9 17 26 33 37 36 30 8 24 23 -9 23 -16 0 -44 3 -62 7 -31 6 -33 5
-20 -10 7 -9 20 -17 27 -17 17 0 18 -12 2 -28 -15 -15 -104 -16 -113 -2 -4 6
-26 10 -51 9 -24 -2 -47 0 -51 4 -13 14 16 30 54 31 27 1 38 5 38 16 0 22
-232 24 -337 3z m77 -33 c0 -11 -13 -16 -49 -18 -36 -2 -47 0 -44 10 9 27 93
34 93 8z m-345 -520 c0 -5 -7 -10 -15 -10 -8 0 -15 5 -15 10 0 6 7 10 15 10 8
0 15 -4 15 -10z"/>
<path d="M9605 11093 c-71 -21 -235 -94 -235 -104 0 -5 1 -9 3 -9 13 1 104 33
138 49 23 12 53 21 66 21 14 0 23 6 23 15 0 8 7 15 15 15 8 0 15 -7 15 -16 0
-22 34 -13 38 10 6 30 -10 35 -63 19z"/>
<path d="M10310 11050 c20 -13 43 -13 35 0 -3 6 -16 10 -28 10 -18 0 -19 -2
-7 -10z"/>
<path d="M10560 11036 c0 -8 13 -23 29 -32 41 -24 101 -149 101 -209 0 -25 -4
-45 -10 -45 -5 0 -10 -11 -10 -25 0 -29 -10 -49 -62 -122 -36 -50 -49 -81 -29
-68 14 8 67 88 93 138 23 45 39 97 41 136 1 13 8 26 15 29 13 4 78 -19 112
-39 8 -5 22 -12 30 -16 8 -4 42 -22 74 -40 41 -23 62 -31 70 -23 5 5 19 10 30
10 18 0 17 -2 -7 -28 -34 -35 -34 -42 1 -73 73 -65 143 -94 201 -83 30 6 31 6
25 -23 -5 -23 0 -36 19 -57 35 -38 90 -73 136 -87 35 -10 45 -9 86 11 25 12
49 20 52 16 8 -7 -36 -50 -60 -59 -32 -12 -14 -40 43 -68 45 -22 56 -25 63
-13 10 18 43 18 50 0 4 -9 14 -12 26 -9 12 3 21 1 21 -6 0 -6 -5 -11 -10 -11
-7 0 -8 -18 -4 -49 6 -44 4 -52 -19 -73 -38 -35 -55 -48 -64 -48 -4 0 -21 -14
-38 -32 -16 -17 -41 -38 -56 -47 -24 -15 -124 -92 -244 -187 -28 -23 -76 -59
-106 -79 -30 -21 -60 -47 -67 -57 -7 -10 -18 -18 -24 -18 -6 0 -38 -24 -72
-53 -85 -74 -126 -97 -174 -97 -22 0 -44 5 -47 10 -3 6 -13 10 -22 10 -8 0
-43 24 -76 54 -128 111 -427 326 -454 326 -7 0 -30 15 -50 33 -35 32 -231 147
-249 147 -21 1 -131 62 -145 81 -14 19 -27 21 -166 24 -92 1 -163 7 -186 16
-37 13 -63 5 -37 -12 8 -5 47 -18 85 -30 39 -12 95 -36 127 -55 31 -19 105
-57 165 -85 59 -28 130 -62 156 -75 27 -13 55 -24 63 -24 8 0 14 -6 14 -14 0
-19 121 -98 240 -158 14 -7 31 -18 38 -25 17 -16 45 -2 68 32 9 14 19 25 23
25 3 0 32 -24 63 -53 43 -39 55 -56 48 -67 -8 -13 -13 -12 -42 4 -18 10 -42
27 -53 37 -21 19 -65 16 -65 -4 0 -26 124 -122 143 -110 17 10 41 44 47 67 5
17 11 14 58 -27 28 -25 61 -51 72 -57 28 -15 26 -40 -5 -40 -18 0 -25 -5 -25
-20 0 -11 -4 -20 -9 -20 -17 0 -23 20 -11 35 9 10 5 17 -19 31 -17 10 -31 22
-31 26 0 4 -9 8 -20 8 -42 0 -32 -28 30 -87 34 -32 84 -79 111 -105 28 -27 56
-48 64 -48 7 0 25 14 40 32 14 17 43 40 64 50 20 10 55 35 77 56 21 21 93 80
159 132 66 52 122 98 123 102 2 4 8 8 14 8 5 0 45 28 88 63 43 34 117 91 164
127 48 36 112 85 144 109 31 24 81 59 110 78 29 20 67 53 84 74 17 22 38 39
47 39 19 1 51 23 51 37 0 8 -246 207 -331 267 -290 206 -461 304 -778 445 -70
31 -101 40 -122 36 -22 -5 -29 -3 -29 9 0 17 -5 21 -42 30 -21 5 -28 3 -28 -8z
m170 -80 c0 -8 -7 -19 -15 -26 -13 -10 -15 -9 -15 12 0 14 3 28 6 31 9 9 24
-2 24 -17z m425 -216 c3 -5 2 -10 -4 -10 -5 0 -13 5 -16 10 -3 6 -2 10 4 10 5
0 13 -4 16 -10z m117 -64 c34 -33 29 -50 -5 -18 -13 12 -28 22 -33 22 -6 0
-21 11 -34 25 l-23 24 33 -12 c18 -7 46 -25 62 -41z m-62 -15 c0 -14 -64 -61
-83 -61 -10 0 -17 7 -17 15 0 8 8 15 18 15 11 0 27 9 37 20 19 21 45 27 45 11z
m170 -71 c22 0 85 -33 115 -60 11 -10 34 -25 50 -33 17 -8 43 -29 59 -46 17
-17 35 -31 41 -31 6 0 27 -19 46 -42 l34 -42 -62 43 c-34 24 -69 52 -79 62 -9
10 -23 19 -30 19 -7 0 -29 14 -47 30 -19 17 -40 30 -46 30 -6 0 -11 4 -11 10
0 17 -92 51 -122 45 -36 -8 -36 5 0 26 21 12 28 12 30 2 2 -7 12 -13 22 -13z
m-50 -100 c0 -5 -4 -10 -10 -10 -5 0 -10 5 -10 10 0 6 5 10 10 10 6 0 10 -4
10 -10z m90 -25 c-32 -33 -68 -43 -73 -21 -2 11 70 53 92 55 9 1 0 -14 -19
-34z m80 -20 c0 -8 -4 -15 -9 -15 -5 0 -11 7 -15 15 -3 9 0 15 9 15 8 0 15 -7
15 -15z m254 -224 c3 -5 -1 -14 -8 -20 -16 -13 -32 2 -21 19 8 12 22 13 29 1z
m-1776 -194 c43 -21 50 -39 18 -45 -10 -2 -42 6 -72 18 -29 12 -61 20 -69 16
-18 -7 -20 15 -2 33 15 16 67 7 125 -22z m136 -82 c42 -33 55 -53 40 -67 -3
-3 -30 7 -59 23 -30 16 -61 29 -69 29 -11 0 -12 5 -3 25 16 34 36 31 91 -10z
m162 -106 c35 -18 64 -37 64 -43 0 -6 -13 -17 -30 -23 -25 -9 -30 -9 -30 3 0
8 -6 14 -14 14 -17 0 -106 49 -106 59 0 31 41 27 116 -10z m459 -439 c-3 -5
-13 -10 -21 -10 -8 0 -14 5 -14 10 0 6 9 10 21 10 11 0 17 -4 14 -10z"/>
<path d="M10505 11001 c-6 -11 9 -23 19 -14 9 9 7 23 -3 23 -6 0 -12 -4 -16
-9z"/>
<path d="M10570 10971 c0 -5 5 -13 10 -16 6 -3 10 -2 10 4 0 5 -4 13 -10 16
-5 3 -10 2 -10 -4z"/>
<path d="M13155 10959 c-10 -15 3 -25 16 -12 7 7 7 13 1 17 -6 3 -14 1 -17 -5z"/>
<path d="M10530 10923 c0 -30 -33 -93 -50 -93 -5 0 -10 -8 -10 -19 0 -24 -23
-43 -59 -47 -16 -2 -46 -15 -67 -29 -20 -14 -41 -25 -46 -25 -6 0 -24 -12 -40
-26 -22 -18 -34 -22 -41 -15 -6 6 -17 11 -24 11 -21 0 -26 -28 -9 -46 26 -26
-1 -59 -48 -59 -20 0 -40 -6 -45 -13 -4 -7 -20 -15 -35 -18 -61 -11 -204 -109
-328 -225 -47 -44 -132 -72 -196 -64 -44 6 -46 5 -28 -9 12 -9 39 -16 66 -16
69 0 210 19 258 36 23 7 56 14 73 14 17 0 56 15 87 33 70 40 124 60 222 82 41
9 89 25 107 36 18 12 39 19 46 16 46 -15 178 95 241 203 19 33 36 76 38 97 l3
38 -62 0 c-35 0 -63 2 -63 5 0 3 9 19 19 36 27 44 32 118 8 122 -13 3 -17 -3
-17 -25z m-205 -389 c-16 -13 -40 -27 -52 -30 -13 -4 -23 -10 -23 -15 0 -12
-49 -43 -57 -35 -7 7 26 46 39 46 6 0 17 9 26 20 10 11 28 22 41 25 13 2 26 7
29 10 3 3 10 5 16 5 6 -1 -2 -12 -19 -26z m-265 -63 c0 -11 3 -26 6 -34 7 -20
-30 -40 -57 -32 -24 8 -18 41 13 68 26 22 38 22 38 -2z"/>
<path d="M10600 10930 c0 -11 5 -20 10 -20 6 0 10 9 10 20 0 11 -4 20 -10 20
-5 0 -10 -9 -10 -20z"/>
<path d="M13106 10876 c-48 -70 -127 -143 -206 -191 -33 -20 -60 -40 -60 -45
0 -5 12 -10 28 -12 16 -2 27 -9 27 -18 0 -22 -66 -27 -77 -6 -7 13 -27 16 -93
16 -47 0 -85 -3 -85 -7 1 -13 152 -109 191 -122 46 -15 89 -1 89 29 0 30 -29
37 -49 12 l-16 -22 -33 34 c-21 22 -29 37 -22 41 6 4 17 1 26 -5 9 -8 30 -11
57 -7 37 5 46 2 75 -24 19 -17 31 -36 28 -44 -7 -19 11 -23 58 -12 70 16 96
29 152 72 64 50 119 111 163 179 36 58 39 81 11 96 -18 10 -20 9 -15 -12 11
-44 -115 -208 -199 -259 -41 -25 -53 -24 -60 6 -12 49 -64 85 -120 85 -46 0
-53 15 -19 37 15 10 34 23 41 30 6 6 20 14 30 17 38 12 127 140 120 173 -2 10
-18 -6 -42 -41z"/>
<path d="M12407 10809 c7 -26 108 -125 133 -132 11 -3 20 -4 20 -3 0 0 -36 36
-79 78 -47 46 -77 69 -74 57z"/>
<path d="M3870 10804 c-61 -10 -137 -26 -165 -35 -16 -5 -55 -16 -86 -24 -31
-9 -70 -27 -85 -40 -28 -25 -29 -26 -12 -53 9 -15 26 -44 38 -64 11 -21 25
-38 30 -38 15 0 12 16 -10 52 -25 41 -26 74 -2 83 40 16 122 34 134 30 7 -3
22 -26 33 -51 21 -47 41 -71 51 -61 4 3 -8 30 -25 60 -17 30 -31 60 -31 66 0
6 16 11 38 11 25 0 43 7 55 20 9 11 26 20 36 20 11 0 22 4 26 10 3 6 15 5 31
-2 17 -8 23 -17 18 -30 -9 -29 6 -42 23 -18 12 17 18 19 29 9 12 -10 13 -9 8
6 -4 10 -1 20 7 25 7 5 11 12 7 15 -8 8 -115 15 -148 9z"/>
<path d="M13164 10764 c-37 -39 -43 -61 -18 -71 24 -9 61 13 79 47 34 65 -8
81 -61 24z"/>
<path d="M10116 10782 c-8 -13 14 -63 25 -56 13 8 11 28 -4 49 -9 11 -16 14
-21 7z"/>
<path d="M9035 10726 c-69 -37 -246 -158 -265 -181 -22 -26 -3 -28 42 -5 24
13 75 39 113 59 111 58 195 121 195 148 0 19 -18 15 -85 -21z"/>
<path d="M10219 10713 c-13 -16 -12 -17 4 -4 16 13 21 21 13 21 -2 0 -10 -8
-17 -17z"/>
<path d="M3472 10708 c-13 -6 -21 -17 -18 -24 4 -9 -4 -11 -30 -7 -26 4 -34 2
-34 -9 0 -11 -10 -15 -36 -14 -21 0 -39 -4 -41 -10 -2 -7 6 -10 23 -6 26 5 26
5 10 -21 -11 -16 -13 -27 -7 -32 6 -3 11 -15 11 -25 0 -14 5 -18 16 -13 14 5
16 1 12 -20 -3 -15 -1 -24 3 -21 5 2 18 -5 30 -17 16 -16 20 -28 15 -51 -5
-25 10 -62 75 -197 161 -332 212 -422 246 -435 9 -4 11 -14 7 -31 -4 -18 -2
-25 7 -25 17 0 35 -40 44 -95 8 -52 19 -69 39 -62 21 8 21 27 0 27 -12 0 -15
6 -11 22 4 13 -4 41 -19 71 -23 47 -24 51 -8 68 16 17 16 19 1 19 -39 0 -112
101 -188 260 -18 36 -52 106 -77 155 -25 50 -53 106 -62 125 -10 19 -21 56
-24 82 -6 41 -28 99 -56 150 -15 27 -12 48 8 48 11 0 29 -20 47 -50 46 -76 64
-59 25 23 l-20 42 21 16 c13 10 20 23 16 32 -3 8 0 20 6 26 14 14 -1 13 -31
-1z"/>
<path d="M1973 10680 c-68 -39 -69 -48 -2 -14 67 33 80 28 68 -27 -7 -32 -23
-54 -62 -91 -119 -111 -127 -121 -127 -155 0 -22 -6 -36 -20 -43 -11 -6 -27
-27 -35 -47 -14 -32 -14 -39 0 -59 20 -31 19 -43 -4 -68 -11 -12 -22 -43 -26
-74 l-6 -53 25 7 c27 7 36 -9 13 -23 -26 -17 -57 -67 -57 -94 0 -39 14 -43 48
-14 55 46 59 26 6 -28 -29 -29 -38 -47 -40 -82 -3 -25 -1 -45 3 -45 5 0 31 9
58 19 32 12 51 26 53 37 2 11 8 31 13 45 6 14 12 41 14 60 2 19 8 68 13 109 6
48 5 81 -1 91 -8 12 -3 26 22 56 25 32 31 46 25 67 -4 16 0 39 10 60 9 19 19
56 22 83 4 26 13 58 21 71 8 13 12 29 10 36 -3 7 -1 19 3 27 8 11 10 11 14 -1
2 -8 9 -30 15 -48 6 -21 7 -41 2 -51 -5 -9 -7 -29 -4 -44 3 -16 -1 -45 -10
-65 -8 -20 -21 -76 -27 -124 -7 -52 -18 -92 -27 -99 -10 -9 -12 -23 -8 -50 5
-29 3 -39 -11 -47 -14 -8 -16 -18 -11 -55 5 -34 3 -48 -9 -58 -32 -26 -57 -93
-55 -145 1 -38 -3 -57 -19 -77 -26 -33 -23 -33 37 -2 52 28 52 27 81 210 6 39
19 115 28 170 9 55 17 118 18 140 1 22 7 56 13 75 7 19 15 60 18 90 4 30 13
80 20 110 22 88 39 220 29 230 -5 5 -27 12 -49 15 -33 5 -49 0 -92 -25z m-43
-894 c0 -3 -4 -8 -10 -11 -5 -3 -10 -1 -10 4 0 6 5 11 10 11 6 0 10 -2 10 -4z"/>
<path d="M3980 10680 c0 -5 5 -10 11 -10 5 0 7 5 4 10 -3 6 -8 10 -11 10 -2 0
-4 -4 -4 -10z"/>
<path d="M10875 10680 c-3 -5 -1 -10 4 -10 6 0 11 5 11 10 0 6 -2 10 -4 10 -3
0 -8 -4 -11 -10z"/>
<path d="M3630 10669 c0 -17 40 -79 51 -79 16 0 10 31 -12 61 -21 30 -39 38
-39 18z"/>
<path d="M12582 10658 c2 -6 10 -14 16 -16 7 -2 10 2 6 12 -7 18 -28 22 -22 4z"/>
<path d="M1790 10569 c-116 -89 -114 -86 -129 -190 -7 -52 -19 -119 -27 -149
-8 -30 -16 -80 -19 -110 -12 -134 -24 -227 -34 -253 -6 -16 -8 -39 -5 -53 3
-13 1 -30 -5 -38 -11 -13 -23 -66 -41 -181 -4 -27 -13 -78 -20 -113 -7 -35
-10 -66 -7 -69 3 -3 26 12 51 33 34 28 42 40 32 46 -8 5 -11 18 -8 34 3 16 -1
29 -9 35 -11 7 -12 12 -1 29 6 11 12 34 12 51 0 17 6 45 14 62 35 81 48 134
51 204 2 73 4 78 35 103 26 22 30 28 17 33 -18 7 -17 65 3 130 8 28 8 47 1 69
-13 36 -3 147 14 168 7 8 18 34 24 56 8 29 26 56 61 88 27 25 54 46 60 46 5 0
10 5 10 10 0 17 -13 10 -80 -41z m-135 -479 c-3 -5 -10 -10 -16 -10 -5 0 -9 5
-9 10 0 6 7 10 16 10 8 0 12 -4 9 -10z"/>
<path d="M4021 10591 c-6 -4 -9 -15 -5 -24 4 -12 1 -17 -10 -17 -9 0 -16 7
-16 15 0 19 -49 20 -75 1 -18 -13 -17 -16 33 -65 29 -28 52 -56 52 -63 0 -6 6
-4 13 6 11 16 15 16 25 3 10 -12 10 -21 0 -43 -10 -22 -10 -28 0 -32 7 -2 20
-11 29 -20 9 -10 20 -17 25 -17 4 0 15 -10 23 -22 21 -30 49 -31 40 -2 -6 19
-4 21 19 15 24 -6 26 -4 26 24 0 24 -4 30 -21 30 -17 0 -20 5 -17 24 3 15 0
27 -8 30 -19 7 -18 36 1 36 8 0 15 -7 15 -15 0 -8 9 -19 20 -25 11 -6 20 -15
20 -21 0 -11 15 -31 51 -68 20 -20 25 -31 18 -43 -11 -19 4 -33 23 -22 8 5 9
0 6 -14 -8 -28 6 -37 23 -16 11 14 8 27 -26 91 -22 41 -57 94 -80 117 -36 39
-44 43 -77 39 -35 -5 -37 -3 -62 45 -26 51 -44 66 -65 53z m-43 -49 c2 -7 -6
-12 -17 -12 -21 0 -27 11 -14 24 9 9 26 2 31 -12z m149 -188 c-8 -8 -47 29
-40 39 3 4 14 -1 25 -13 11 -12 18 -24 15 -26z"/>
<path d="M4875 10580 c-3 -5 -12 -7 -19 -4 -7 3 -16 -2 -20 -11 -4 -12 -15
-16 -37 -13 -40 4 -39 -14 1 -25 24 -6 35 -18 52 -57 12 -28 28 -50 35 -50 18
0 17 6 -12 48 -40 58 -32 79 28 74 20 -2 23 18 5 36 -14 14 -25 15 -33 2z"/>
<path d="M9628 10541 c-73 -40 -61 -61 32 -61 27 0 51 4 54 9 3 4 19 11 36 14
21 5 30 12 30 26 0 42 -86 49 -152 12z"/>
<path d="M4655 10530 c-11 -5 -37 -9 -57 -9 -20 -1 -40 -5 -43 -11 -3 -5 -24
-10 -47 -10 -36 0 -39 -2 -27 -16 11 -14 10 -18 -6 -30 -10 -8 -34 -14 -52
-14 -38 0 -41 -9 -12 -36 13 -12 23 -14 27 -8 11 17 62 27 62 12 1 -14 34 -58
44 -58 11 0 5 35 -9 54 -33 44 -15 62 81 81 30 6 34 3 64 -49 17 -31 35 -58
41 -61 16 -10 10 19 -11 50 -27 40 -25 63 6 77 24 11 25 13 8 25 -20 15 -40
16 -69 3z"/>
<path d="M8847 10493 c-12 -11 -8 -23 8 -23 8 0 15 7 15 15 0 16 -12 20 -23 8z"/>
<path d="M4770 10467 c0 -23 18 -57 30 -57 16 0 11 23 -10 50 -16 21 -20 22
-20 7z"/>
<path d="M8900 10469 c0 -5 5 -7 10 -4 6 3 10 8 10 11 0 2 -4 4 -10 4 -5 0
-10 -5 -10 -11z"/>
<path d="M8761 10456 c-7 -8 -8 -17 -3 -20 6 -3 15 1 21 8 7 8 8 17 3 20 -6 3
-15 -1 -21 -8z"/>
<path d="M8960 10460 c-10 -6 -12 -12 -4 -20 7 -7 16 -5 29 10 14 15 15 20 4
20 -8 0 -21 -5 -29 -10z"/>
<path d="M4590 10438 c0 -8 7 -23 15 -34 14 -19 14 -19 15 2 0 12 -7 27 -15
34 -12 10 -15 10 -15 -2z"/>
<path d="M4325 10430 c3 -5 8 -10 11 -10 2 0 4 5 4 10 0 6 -5 10 -11 10 -5 0
-7 -4 -4 -10z"/>
<path d="M4950 10401 c0 -6 5 -11 10 -11 6 0 25 -20 43 -46 17 -25 33 -40 35
-34 2 6 -13 30 -34 53 -41 45 -54 55 -54 38z"/>
<path d="M9260 10332 c0 -31 123 -92 185 -92 35 0 51 20 18 20 -10 0 -27 7
-37 15 -11 8 -28 15 -38 15 -10 0 -26 4 -36 9 -23 13 -84 41 -89 41 -1 0 -3
-4 -3 -8z"/>
<path d="M10780 10310 c-65 -8 -93 -21 -137 -63 -78 -73 -44 -170 83 -239 18
-9 35 -14 38 -11 3 4 17 0 31 -7 17 -9 48 -11 105 -7 67 4 87 10 115 32 111
84 76 224 -70 278 -53 20 -98 25 -165 17z m77 -43 c34 -2 66 0 71 5 4 4 23 -8
42 -27 19 -19 40 -35 47 -35 16 0 17 -12 2 -27 -18 -18 -2 -46 21 -40 24 6 26
-6 5 -23 -9 -7 -13 -21 -10 -31 4 -11 2 -19 -4 -19 -6 0 -11 6 -11 13 0 6 -12
0 -25 -15 -16 -19 -34 -28 -53 -28 -16 0 -35 -7 -43 -16 -13 -16 -48 -15 -115
3 -45 12 -124 83 -124 111 0 41 38 101 77 121 21 10 42 17 48 15 5 -2 38 -5
72 -7z"/>
<path d="M10756 10237 c-20 -15 -14 -37 10 -37 16 0 19 -26 3 -35 -5 -4 -19 1
-29 10 -24 22 -40 12 -40 -27 0 -21 6 -31 19 -35 11 -3 22 -11 25 -19 3 -8 17
-14 31 -14 16 0 25 -6 25 -15 0 -12 13 -15 55 -15 40 0 57 4 61 15 4 8 12 15
19 15 8 0 23 13 35 30 18 25 19 32 8 50 -15 23 -28 26 -28 5 0 -23 -33 -85
-45 -85 -22 0 -25 13 -8 32 15 17 15 20 -8 44 -19 20 -21 27 -10 34 9 5 2 8
-22 7 -43 -1 -54 7 -37 28 10 12 10 15 -3 15 -8 0 -21 2 -29 5 -7 3 -22 -1
-32 -8z"/>
<path d="M9213 10267 c-13 -5 -23 -13 -23 -16 0 -8 119 -41 144 -41 9 0 16 5
16 10 0 6 -11 10 -25 10 -16 0 -25 6 -25 15 0 9 -9 15 -23 15 -13 0 -27 4 -32
9 -6 5 -19 4 -32 -2z"/>
<path d="M4420 10238 c0 -9 5 -20 10 -23 6 -3 10 -17 10 -30 0 -30 27 -40 40
-14 6 11 16 19 23 18 43 -5 67 2 67 20 0 17 -5 19 -37 14 -21 -3 -43 -10 -50
-15 -9 -7 -20 -1 -37 19 -19 21 -25 24 -26 11z"/>
<path d="M9800 10190 c0 -5 9 -10 20 -10 11 0 20 5 20 10 0 6 -9 10 -20 10
-11 0 -20 -4 -20 -10z"/>
<path d="M4506 10117 c-21 -15 -17 -38 13 -77 l20 -25 25 24 c38 36 34 53 -10
45 -36 -7 -37 -6 -30 20 7 30 6 31 -18 13z"/>
<path d="M4594 10046 c-8 -21 3 -49 16 -41 5 3 10 15 10 25 0 25 -18 36 -26
16z"/>
<path d="M10110 10030 c0 -5 5 -10 10 -10 6 0 10 5 10 10 0 6 -4 10 -10 10 -5
0 -10 -4 -10 -10z"/>
<path d="M10355 10020 c3 -5 8 -10 11 -10 2 0 4 5 4 10 0 6 -5 10 -11 10 -5 0
-7 -4 -4 -10z"/>
<path d="M10300 9910 c0 -6 11 -15 24 -20 13 -5 27 -14 31 -19 3 -6 12 -11 18
-11 12 0 -22 32 -55 51 -12 7 -18 6 -18 -1z"/>
<path d="M4320 9880 c0 -5 7 -10 15 -10 8 0 15 5 15 10 0 6 -7 10 -15 10 -8 0
-15 -4 -15 -10z"/>
<path d="M4280 9855 c7 -8 10 -21 7 -30 -7 -16 8 -29 22 -21 13 9 -11 66 -27
66 -12 0 -12 -3 -2 -15z"/>
<path d="M3990 9851 c0 -6 5 -13 10 -16 6 -3 10 1 10 9 0 9 -4 16 -10 16 -5 0
-10 -4 -10 -9z"/>
<path d="M4210 9856 c0 -2 7 -6 15 -10 8 -3 15 -1 15 4 0 6 -7 10 -15 10 -8 0
-15 -2 -15 -4z"/>
<path d="M4150 9837 c0 -7 14 -21 31 -31 l32 -19 -19 32 c-18 31 -44 42 -44
18z"/>
<path d="M3872 9821 c-10 -6 -10 -10 2 -20 10 -9 16 -9 21 -1 10 16 -7 31 -23
21z"/>
<path d="M4020 9807 c0 -21 39 -97 50 -97 16 0 12 14 -16 64 -27 48 -34 55
-34 33z"/>
<path d="M3950 9800 c0 -19 40 -90 50 -90 15 0 12 9 -15 57 -26 43 -35 52 -35
33z"/>
<path d="M4325 9778 c-27 -5 -60 -11 -73 -13 -13 -2 -28 -8 -35 -13 -7 -5 -31
-13 -54 -17 -41 -6 -61 -20 -50 -32 3 -3 11 -2 18 3 7 4 24 8 38 10 40 3 124
24 143 34 10 6 28 10 40 11 13 0 41 6 63 14 l40 13 -40 0 c-22 0 -62 -5 -90
-10z"/>
<path d="M3830 9766 c0 -9 5 -16 10 -16 6 0 10 4 10 9 0 6 -4 13 -10 16 -5 3
-10 -1 -10 -9z"/>
<path d="M3900 9760 c0 -18 30 -70 40 -70 15 0 12 9 -11 46 -21 35 -29 41 -29
24z"/>
<path d="M3850 9733 c0 -21 19 -63 30 -63 5 0 10 6 10 13 -1 16 -39 66 -40 50z"/>
<path d="M10565 9720 c3 -5 11 -10 16 -10 6 0 7 5 4 10 -3 6 -11 10 -16 10 -6
0 -7 -4 -4 -10z"/>
<path d="M10620 9675 c7 -8 16 -15 21 -15 5 0 6 7 3 15 -4 8 -13 15 -21 15
-13 0 -13 -3 -3 -15z"/>
<path d="M10712 9599 c2 -7 10 -15 17 -17 8 -3 12 1 9 9 -2 7 -10 15 -17 17
-8 3 -12 -1 -9 -9z"/>
<path d="M4991 9404 c0 -11 3 -14 6 -6 3 7 2 16 -1 19 -3 4 -6 -2 -5 -13z"/>
<path d="M4970 9119 c0 -35 51 -129 71 -129 15 0 10 20 -11 50 -11 16 -29 48
-40 72 l-20 43 0 -36z"/>
<path d="M11816 8642 c-3 -5 1 -18 9 -28 14 -18 14 -18 15 3 0 23 -15 39 -24
25z"/>
<path d="M11860 8571 c0 -17 12 -41 20 -41 10 0 1 38 -11 46 -5 3 -9 1 -9 -5z"/>
<path d="M11960 8510 c0 -5 7 -10 15 -10 8 0 15 5 15 10 0 6 -7 10 -15 10 -8
0 -15 -4 -15 -10z"/>
<path d="M11910 8489 c0 -5 20 -31 45 -57 40 -41 44 -43 33 -18 -11 26 -63 86
-74 86 -2 0 -4 -5 -4 -11z"/>
<path d="M12020 8365 c7 -8 17 -15 22 -15 6 0 5 7 -2 15 -7 8 -17 15 -22 15
-6 0 -5 -7 2 -15z"/>
<path d="M12820 8334 c-171 -17 -251 -31 -350 -57 -63 -17 -119 -34 -124 -39
-17 -14 113 -9 142 6 15 7 57 21 93 31 51 13 71 15 87 6 50 -27 285 -31 311
-6 3 3 -6 17 -20 30 -25 25 -75 36 -139 29z"/>
<path d="M12080 8321 c0 -13 90 -71 111 -71 18 0 8 28 -11 33 -12 3 -20 14
-20 26 0 18 -6 21 -40 21 -22 0 -40 -4 -40 -9z"/>
<path d="M12300 8280 c0 -5 7 -10 16 -10 8 0 12 5 9 10 -3 6 -10 10 -16 10 -5
0 -9 -4 -9 -10z"/>
<path d="M2151 8266 c-24 -29 13 -201 41 -194 18 4 68 -36 68 -55 0 -8 -9 -26
-20 -40 -20 -26 -26 -48 -12 -46 18 1 207 136 209 149 2 16 -165 144 -234 179
-34 17 -43 18 -52 7z"/>
<path d="M2008 8204 c-27 -20 -48 -40 -48 -44 0 -4 -9 -6 -20 -3 -11 3 -20 0
-20 -6 0 -6 5 -11 12 -11 15 0 -18 -37 -66 -71 -38 -28 -73 -39 -61 -19 19 31
-81 -36 -117 -78 -33 -39 -98 -82 -125 -82 -14 0 -40 -17 -66 -43 -64 -66
-132 -117 -154 -117 -20 0 -87 -44 -111 -73 -26 -31 -14 -166 25 -292 11 -33
28 -89 38 -124 10 -35 25 -65 32 -68 12 -5 37 12 105 68 l32 26 -31 -4 c-31
-5 -31 -4 -68 94 -20 54 -43 113 -51 132 -17 37 -11 135 10 160 6 8 38 27 71
42 183 86 345 192 468 309 53 50 101 89 106 86 16 -10 19 -60 5 -88 -18 -35
-18 -67 1 -75 13 -4 14 -15 9 -48 -5 -37 -3 -45 14 -54 14 -7 18 -17 15 -35
-4 -21 0 -26 21 -32 33 -8 35 -46 4 -68 -12 -9 -19 -18 -16 -22 8 -7 44 12 85
45 17 14 41 33 53 41 l21 15 -30 67 c-49 108 -81 230 -83 324 -2 46 -5 84 -8
84 -3 0 -26 -17 -52 -36z m-698 -770 c0 -16 -16 -19 -25 -4 -8 13 4 32 16 25
5 -4 9 -13 9 -21z m7 -66 c-3 -8 -6 -5 -6 6 -1 11 2 17 5 13 3 -3 4 -12 1 -19z
m33 -63 c0 -14 -4 -25 -9 -25 -10 0 -21 36 -13 44 12 13 22 5 22 -19z"/>
<path d="M1870 8109 l-35 -30 43 22 c23 13 42 26 42 31 0 15 -16 8 -50 -23z"/>
<path d="M1702 7759 c-41 -16 -113 -81 -133 -121 -27 -53 -14 -78 43 -78 64 0
130 54 163 133 12 30 12 37 -1 55 -16 23 -35 26 -72 11z m38 -43 c0 -8 -4 -17
-9 -21 -12 -7 -24 12 -16 25 9 15 25 12 25 -4z m-130 -106 c9 -16 8 -20 -5
-20 -8 0 -15 9 -15 20 0 11 2 20 5 20 2 0 9 -9 15 -20z"/>
<path d="M1940 7610 c-9 -6 -10 -10 -3 -10 6 0 15 5 18 10 8 12 4 12 -15 0z"/>
<path d="M2565 7460 c-3 -5 -2 -10 4 -10 5 0 13 5 16 10 3 6 2 10 -4 10 -5 0
-13 -4 -16 -10z"/>
<path d="M2118 7217 c-7 -7 -28 -23 -45 -36 -27 -18 -33 -29 -33 -60 0 -21 -4
-51 -9 -67 -5 -16 -14 -56 -21 -89 -17 -87 -85 -294 -127 -389 -47 -105 -142
-248 -239 -360 -42 -49 -70 -85 -63 -80 87 53 117 81 184 171 27 36 50 56 74
64 48 15 129 56 166 84 17 12 56 36 88 54 44 25 57 29 57 17 0 -9 -15 -23 -32
-32 -18 -9 -56 -38 -84 -63 -51 -47 -57 -50 -154 -94 -62 -28 -156 -105 -108
-87 15 5 57 28 95 51 37 23 98 59 134 79 182 102 314 243 449 481 45 80 110
257 110 302 0 49 -27 31 -45 -30 -10 -32 -30 -84 -44 -115 -24 -53 -29 -57
-60 -57 -37 -1 -177 -63 -243 -109 -24 -16 -72 -56 -107 -88 l-64 -58 7 39 c4
22 24 66 44 98 23 38 35 69 34 88 -1 16 5 43 14 61 10 20 17 59 18 110 1 70 4
82 24 98 12 10 22 21 22 24 0 11 -28 6 -42 -7z m249 -419 c-4 -13 -23 -40 -43
-61 l-37 -38 -26 23 c-14 13 -27 24 -29 25 -2 0 27 19 64 42 38 22 70 38 72
36 3 -2 2 -14 -1 -27z m-153 -70 c-4 -7 -13 -20 -19 -28 -7 -8 -15 -27 -18
-41 -7 -28 -56 -59 -58 -36 -3 30 26 87 56 109 17 13 47 9 39 -4z m-144 -57
c0 -12 -59 -71 -71 -71 -5 0 -27 -16 -49 -36 -71 -65 -53 -30 24 44 69 67 96
85 96 63z m-15 -91 c-3 -5 -11 -10 -16 -10 -6 0 -7 5 -4 10 3 6 11 10 16 10 6
0 7 -4 4 -10z m150 -10 c-10 -11 -22 -20 -26 -20 -5 0 -1 9 8 20 10 11 22 20
27 20 5 0 1 -9 -9 -20z"/>
<path d="M2293 7166 c-49 -56 -74 -129 -51 -152 34 -35 153 101 146 166 -2 19
-10 26 -29 28 -21 2 -35 -7 -66 -42z"/>
<path d="M4855 7194 l-40 -14 37 4 c26 3 35 1 32 -7 -2 -7 8 -27 24 -46 23
-28 28 -30 28 -13 0 11 -5 18 -11 16 -5 -2 -15 4 -22 15 -10 15 -9 20 2 25 8
3 12 12 9 21 -7 18 -7 18 -59 -1z"/>
<path d="M465 7163 c4 -10 9 -29 11 -43 1 -14 15 -35 30 -47 31 -24 45 -23 24
2 -10 13 -9 15 8 15 26 0 39 -19 21 -31 -17 -10 -1 -42 25 -47 20 -4 188 -128
199 -147 4 -8 -14 -44 -48 -95 -31 -46 -54 -84 -52 -86 2 -2 19 16 38 39 48
59 130 148 157 170 12 10 22 22 22 26 0 8 -138 99 -191 126 -19 10 -43 25 -54
35 -20 18 -30 24 -125 73 -63 32 -75 33 -65 10z"/>
<path d="M4402 7067 c-44 -12 -48 -19 -27 -50 18 -25 45 -12 39 20 -3 13 -1
22 5 19 5 -3 14 1 21 9 7 8 11 15 9 14 -2 -1 -23 -6 -47 -12z"/>
<path d="M4440 7031 c-8 -3 -15 -13 -15 -21 0 -8 -6 -14 -12 -12 -21 4 -15
-13 14 -39 25 -22 26 -22 9 -1 -11 12 -17 24 -14 27 3 3 11 -1 18 -10 14 -17
36 -20 45 -5 3 5 0 7 -9 4 -27 -10 -39 7 -17 23 12 8 21 18 21 22 0 13 -23 19
-40 12z"/>
<path d="M4490 6996 c0 -2 8 -10 18 -17 15 -13 16 -12 3 4 -13 16 -21 21 -21
13z"/>
<path d="M626 6884 c-7 -18 0 -34 15 -34 5 0 9 11 9 25 0 28 -15 34 -24 9z"/>
<path d="M10047 6632 c-29 -32 -13 -47 17 -16 17 17 21 34 8 34 -5 0 -16 -8
-25 -18z"/>
<path d="M10140 6609 c0 -10 93 -29 138 -28 l37 1 -35 9 c-66 16 -140 26 -140
18z"/>
<path d="M10590 6595 c0 -8 73 -36 84 -32 6 2 -6 12 -28 21 -39 16 -56 20 -56
11z"/>
<path d="M9980 6580 c0 -5 7 -10 15 -10 8 0 15 5 15 10 0 6 -7 10 -15 10 -8 0
-15 -4 -15 -10z"/>
<path d="M11205 6319 c10 -15 95 -53 102 -45 4 3 2 11 -4 17 -14 14 -105 41
-98 28z"/>
<path d="M10003 6275 c-28 -14 -73 -47 -101 -73 -48 -45 -50 -49 -31 -60 14
-9 24 -9 42 -1 12 7 29 15 37 19 8 4 22 20 30 37 9 17 21 28 28 25 8 -2 23 6
34 18 11 12 28 20 38 17 13 -3 16 1 12 19 -6 31 -25 30 -89 -1z m-108 -125 c3
-5 1 -10 -4 -10 -6 0 -11 5 -11 10 0 6 2 10 4 10 3 0 8 -4 11 -10z"/>
<path d="M10142 6268 c-18 -18 8 -59 33 -56 12 1 30 -3 38 -11 9 -7 24 -10 33
-7 15 6 15 8 -1 26 -28 31 -91 60 -103 48z"/>
<path d="M480 6220 c-13 -8 -12 -10 3 -10 9 0 17 5 17 10 0 12 -1 12 -20 0z"/>
<path d="M11398 6203 c7 -3 16 -2 19 1 4 3 -2 6 -13 5 -11 0 -14 -3 -6 -6z"/>
<path d="M10282 6184 c10 -10 20 -15 24 -12 3 4 -5 12 -18 18 -22 12 -22 12
-6 -6z"/>
<path d="M465 6161 c-3 -5 -1 -12 5 -16 5 -3 10 1 10 9 0 18 -6 21 -15 7z"/>
<path d="M4671 6118 c-1 -15 -9 -44 -18 -64 -17 -35 -17 -36 2 -50 15 -11 20
-11 27 -1 10 15 9 84 -2 117 l-8 25 -1 -27z"/>
<path d="M10046 5872 c-4 -6 -2 -20 4 -31 18 -34 11 -113 -14 -167 -30 -65
-61 -79 -158 -71 -62 5 -68 4 -52 -8 11 -8 52 -22 92 -31 83 -19 105 -41 116
-119 l7 -43 33 9 c42 12 80 -2 97 -33 7 -12 23 -31 36 -41 12 -10 23 -26 23
-36 0 -20 33 -54 43 -44 4 3 7 23 7 44 0 31 -5 40 -27 51 -15 7 -34 25 -42 39
-13 24 -13 29 2 53 17 25 20 26 87 20 39 -4 70 -4 70 0 0 12 -44 45 -60 46 -8
0 -54 19 -101 42 -110 54 -119 69 -119 193 0 75 -3 97 -18 116 -13 15 -21 18
-26 11z"/>
<path d="M10840 5720 c0 -5 7 -10 16 -10 8 0 12 5 9 10 -3 6 -10 10 -16 10 -5
0 -9 -4 -9 -10z"/>
<path d="M10927 5693 c-13 -12 -7 -33 8 -33 8 0 15 9 15 20 0 20 -11 26 -23
13z"/>
<path d="M9651 5666 c9 -9 113 -45 117 -41 7 7 -80 45 -102 45 -11 0 -17 -2
-15 -4z"/>
<path d="M560 5551 c0 -10 -11 -30 -26 -46 -14 -15 -23 -29 -21 -31 6 -6 77
74 77 86 0 6 -7 10 -15 10 -8 0 -15 -8 -15 -19z"/>
<path d="M4610 5460 c0 -14 26 -23 41 -15 8 6 7 10 -2 16 -19 12 -39 11 -39
-1z"/>
<path d="M12017 5319 c-3 -12 -10 -18 -16 -14 -7 4 -11 -3 -11 -17 -1 -13 -14
-45 -30 -73 -16 -27 -34 -60 -39 -72 -5 -11 -15 -24 -20 -28 -6 -3 -11 -17
-11 -31 0 -33 -18 -66 -32 -58 -7 5 -9 -2 -4 -20 4 -18 0 -47 -14 -82 -11 -30
-20 -74 -20 -98 0 -38 5 -48 35 -75 43 -37 47 -38 43 -8 -5 37 17 25 63 -33
23 -30 80 -93 126 -140 46 -46 83 -87 83 -90 0 -3 19 -25 42 -49 l41 -43 22
88 c23 97 68 196 151 334 30 49 54 96 54 104 0 13 -113 129 -190 196 -25 21
-69 62 -187 173 -34 31 -66 57 -71 57 -5 0 -12 -9 -15 -21z m236 -220 c106
-100 118 -115 115 -142 -4 -39 -30 -56 -54 -36 -9 8 -27 14 -38 14 -14 0 -22
7 -24 21 -4 31 -83 83 -134 90 -24 4 -51 10 -60 15 -9 5 -24 6 -32 3 -19 -7
-22 26 -4 59 15 30 79 86 98 87 8 0 68 -50 133 -111z m-223 91 c0 -5 -2 -10
-4 -10 -3 0 -8 5 -11 10 -3 6 -1 10 4 10 6 0 11 -4 11 -10z m141 -198 c-13 -2
-21 -11 -21 -23 0 -17 -3 -18 -22 -8 -13 6 -24 13 -26 14 -1 1 2 14 8 27 12
24 12 24 47 9 30 -13 32 -17 14 -19z m-122 -32 c6 0 11 -11 11 -24 0 -14 5
-28 10 -31 6 -3 10 -15 10 -26 0 -14 -7 -19 -26 -19 -25 0 -26 -2 -21 -40 4
-34 1 -45 -18 -66 l-24 -26 -21 34 c-11 18 -20 46 -20 61 0 26 2 28 35 21 28
-5 35 -3 35 9 0 9 -4 18 -9 22 -5 3 -15 21 -21 41 -10 31 -10 38 6 54 16 15
21 16 30 4 6 -8 16 -14 23 -14z m281 -189 c0 -5 -3 -17 -6 -25 -5 -13 -9 -14
-20 -5 -21 17 -17 39 6 39 11 0 20 -4 20 -9z m-52 -56 c33 -17 34 -33 2 -70
-10 -11 -20 -31 -23 -45 -6 -24 -52 -54 -67 -45 -11 7 11 105 24 105 7 0 17
-5 24 -12 16 -16 17 5 1 33 -9 18 -7 49 4 49 2 0 18 -7 35 -15z"/>
<path d="M2641 5294 c0 -11 3 -14 6 -6 3 7 2 16 -1 19 -3 4 -6 -2 -5 -13z"/>
<path d="M1238 4533 c7 -3 16 -2 19 1 4 3 -2 6 -13 5 -11 0 -14 -3 -6 -6z"/>
<path d="M1364 4499 c-16 -18 -26 -20 -79 -15 -85 8 -102 9 -175 1 -107 -12
-138 -10 -158 8 -16 14 -31 16 -95 11 -85 -8 -114 -25 -75 -45 13 -6 38 -25
56 -40 18 -16 54 -40 80 -54 82 -44 140 -79 159 -97 25 -23 35 -23 51 3 18 29
0 49 -28 31 -26 -16 -82 14 -74 40 5 18 -23 32 -49 23 -17 -7 -77 20 -77 35 0
6 9 10 20 10 12 0 20 7 20 16 0 13 6 14 33 7 17 -4 106 -8 197 -8 153 0 168 2
201 23 20 12 48 22 63 22 44 0 166 22 166 30 0 5 -33 7 -72 7 -40 -1 -89 2
-109 6 -29 6 -39 3 -55 -14z"/>
<path d="M473 4432 c-24 -4 -39 -31 -20 -37 63 -19 167 -12 167 11 0 8 -8 14
-17 15 -10 0 -38 3 -63 7 -25 4 -55 6 -67 4z"/>
<path d="M627 4380 c-6 -22 15 -25 63 -10 l25 7 -28 12 c-40 16 -54 14 -60 -9z"/>
<path d="M739 4234 c-77 -90 -116 -117 -200 -135 -88 -19 -40 -29 89 -18 68 5
127 7 132 4 22 -14 57 9 85 56 17 28 44 66 62 84 30 31 31 34 15 48 -17 15
-87 47 -103 47 -4 0 -40 -39 -80 -86z"/>
<path d="M1170 4265 c0 -8 7 -15 16 -15 14 0 14 3 4 15 -7 8 -14 15 -16 15 -2
0 -4 -7 -4 -15z"/>
<path d="M1270 4187 c0 -2 29 -25 65 -51 36 -26 65 -51 65 -56 0 -5 10 -12 21
-15 12 -4 37 -23 56 -41 31 -32 53 -43 53 -28 0 14 -155 146 -203 173 -34 19
-57 26 -57 18z"/>
<path d="M2445 4090 c-3 -5 -1 -10 4 -10 6 0 11 5 11 10 0 6 -2 10 -4 10 -3 0
-8 -4 -11 -10z"/>
<path d="M1565 4051 c-18 -7 -18 -8 -2 -18 20 -10 77 -5 77 7 0 18 -41 24 -75
11z"/>
<path d="M1630 3987 c0 -23 17 -30 57 -22 42 8 34 21 -19 30 -31 6 -38 4 -38
-8z"/>
<path d="M840 3673 c0 -18 41 -69 67 -84 35 -20 54 -66 33 -79 -19 -12 -76
-13 -98 -1 -9 4 -39 11 -65 14 -36 3 -50 1 -54 -10 -3 -7 -2 -17 1 -21 4 -4
70 -7 147 -8 146 -1 161 3 119 41 -11 10 -20 22 -20 27 0 5 -16 31 -35 59 -19
28 -35 55 -35 60 0 5 -13 9 -30 9 -16 0 -30 -3 -30 -7z"/>
<path d="M542 3630 c35 -72 96 -140 125 -140 21 0 23 3 18 23 -8 25 -32 47
-52 47 -7 0 -19 14 -28 30 -9 17 -20 30 -25 30 -6 0 -10 7 -10 16 0 9 -6 14
-12 11 -7 -2 -19 3 -26 12 -7 9 -3 -4 10 -29z"/>
<path d="M3795 3618 c-2 -7 -9 -32 -15 -55 -6 -23 -15 -45 -20 -48 -6 -3 -10
-21 -10 -38 0 -18 -9 -58 -20 -90 -21 -60 -27 -127 -10 -127 5 0 17 26 25 58
9 31 30 100 46 154 30 99 37 158 19 158 -6 0 -13 -6 -15 -12z"/>
<path d="M10754 3559 c-17 -21 -24 -49 -14 -49 5 0 14 9 20 21 14 25 9 47 -6
28z"/>
<path d="M1148 3491 l-48 -6 44 -63 c24 -34 54 -87 67 -117 l24 -55 60 1 c59
0 60 0 29 13 -31 14 -65 59 -79 104 -8 27 18 62 46 62 16 0 39 27 39 44 0 9
-74 26 -105 24 -16 0 -51 -4 -77 -7z m57 -61 c3 -5 1 -10 -4 -10 -6 0 -11 5
-11 10 0 6 2 10 4 10 3 0 8 -4 11 -10z"/>
<path d="M1450 3481 c0 -11 77 -81 90 -81 18 0 10 18 -24 54 -31 33 -66 48
-66 27z"/>
<path d="M1370 3424 c0 -8 5 -12 10 -9 6 3 10 10 10 16 0 5 -4 9 -10 9 -5 0
-10 -7 -10 -16z"/>
<path d="M10724 3405 c11 -8 26 -15 33 -15 22 0 14 8 -19 19 -30 10 -31 9 -14
-4z"/>
<path d="M1543 3373 c-16 -6 -17 -45 -2 -60 6 -6 8 -20 4 -31 -4 -16 -16 -22
-48 -25 -23 -2 -5 -4 41 -5 95 -2 97 0 57 78 -25 50 -29 53 -52 43z"/>
<path d="M1388 3253 c7 -3 16 -2 19 1 4 3 -2 6 -13 5 -11 0 -14 -3 -6 -6z"/>
<path d="M2346 2740 c-47 -8 -64 -90 -19 -90 29 0 63 29 63 53 0 33 -12 43
-44 37z"/>
<path d="M12741 1853 c7 -12 15 -20 18 -17 3 2 -3 12 -13 22 -17 16 -18 16 -5
-5z"/>
<path d="M12770 1817 c0 -5 9 -20 20 -34 11 -14 20 -22 20 -17 -1 12 -39 61
-40 51z"/>
<path d="M12867 1509 c-21 -12 -23 -39 -2 -39 8 0 15 -7 15 -16 0 -8 5 -12 10
-9 12 7 14 62 2 69 -4 2 -15 0 -25 -5z"/>
<path d="M12270 1441 c0 -4 18 -29 40 -54 22 -25 40 -50 40 -56 0 -6 4 -11 9
-11 5 0 24 -24 42 -52 24 -39 34 -48 37 -35 6 29 -48 128 -95 175 -40 39 -73
54 -73 33z"/>
<path d="M12806 1404 c-9 -23 -7 -64 3 -64 7 0 21 46 21 71 0 15 -18 10 -24
-7z"/>
<path d="M12140 1315 c-72 -56 -120 -116 -120 -152 0 -43 18 -97 40 -121 11
-11 20 -25 20 -30 0 -5 27 -19 61 -31 55 -21 62 -21 78 -7 10 9 22 16 28 16
14 0 73 67 73 82 0 7 10 22 22 35 25 26 27 80 6 165 -13 53 -42 74 -113 81
-35 4 -47 -1 -95 -38z m78 -88 c4 -29 -9 -35 -27 -13 -13 16 -4 49 13 43 6 -2
12 -16 14 -30z m-67 -61 c1 -6 3 -18 4 -26 0 -8 5 -23 9 -33 16 -34 -5 -31
-41 6 -36 35 -36 37 -19 56 18 20 45 18 47 -3z m127 -34 c4 -25 -13 -30 -22
-6 -9 25 -7 36 7 32 6 -3 13 -14 15 -26z m-70 -56 c3 -12 -1 -17 -10 -14 -7 3
-15 13 -16 22 -3 12 1 17 10 14 7 -3 15 -13 16 -22z"/>
<path d="M12747 1294 c-4 -4 -7 -12 -7 -17 0 -6 3 -7 7 -4 3 4 13 1 21 -5 12
-10 14 -9 11 6 -4 21 -21 31 -32 20z"/>
<path d="M12671 1174 c0 -11 3 -14 6 -6 3 7 2 16 -1 19 -3 4 -6 -2 -5 -13z"/>
<path d="M11473 1132 c-23 -17 -23 -18 -5 -54 18 -40 32 -46 52 -23 7 8 27 19
44 23 40 11 40 33 -1 44 -18 5 -35 13 -38 18 -9 15 -27 12 -52 -8z"/>
<path d="M11916 1121 c-9 -14 188 -251 199 -240 5 6 -169 242 -182 246 -6 2
-14 0 -17 -6z"/>
<path d="M6040 1080 c0 -5 5 -10 10 -10 6 0 10 5 10 10 0 6 -4 10 -10 10 -5 0
-10 -4 -10 -10z"/>
<path d="M12325 940 c3 -5 8 -10 11 -10 2 0 4 5 4 10 0 6 -5 10 -11 10 -5 0
-7 -4 -4 -10z"/>
<path d="M11004 838 c3 -13 6 -29 6 -36 0 -9 7 -11 20 -7 10 3 29 1 40 -5 26
-14 33 -9 24 14 -4 9 -14 16 -23 15 -32 -3 -41 1 -41 21 0 12 -7 20 -16 20
-12 0 -15 -6 -10 -22z"/>
<path d="M1564 798 c-22 -24 -47 -52 -55 -63 -13 -17 -11 -17 18 3 39 27 53
27 104 1 l41 -20 -7 20 c-7 24 -6 25 29 11 29 -11 35 -40 9 -40 -11 -1 -3 -10
22 -25 41 -25 56 -26 36 -1 -24 29 8 26 42 -4 19 -16 37 -27 40 -24 6 6 48
-14 57 -26 3 -4 24 -17 48 -29 23 -12 42 -26 42 -31 0 -6 9 -10 20 -10 11 0
20 5 20 10 0 6 -4 10 -8 10 -5 0 -24 14 -43 31 -19 17 -48 37 -66 44 -17 7
-59 32 -93 54 -34 23 -63 41 -66 41 -2 0 -33 20 -70 45 -36 25 -69 45 -73 45
-4 0 -25 -19 -47 -42z"/>
<path d="M11700 794 c0 -6 7 -19 15 -30 8 -10 14 -14 14 -9 0 6 -6 19 -14 29
-8 11 -15 15 -15 10z"/>
<path d="M11070 735 c0 -6 -19 -18 -43 -27 -57 -24 -99 -64 -95 -91 3 -25 38
-37 38 -13 0 17 30 36 57 36 15 0 13 -4 -10 -25 -45 -43 -25 -65 24 -26 13 10
33 20 44 23 17 3 20 10 17 53 -2 28 -10 57 -18 65 -8 8 -14 10 -14 5z"/>
<path d="M1805 650 c-3 -5 -1 -10 4 -10 6 0 11 5 11 10 0 6 -2 10 -4 10 -3 0
-8 -4 -11 -10z"/>
<path d="M9060 620 c0 -6 21 -34 48 -60 44 -46 49 -49 82 -42 27 6 31 9 17 15
-26 10 -11 27 24 27 16 0 29 5 29 10 0 18 26 10 50 -15 17 -18 34 -25 61 -25
40 0 59 14 34 24 -27 10 -16 28 18 26 54 -3 59 -1 55 23 -3 20 -8 22 -53 21
-219 -5 -333 -4 -348 1 -10 4 -17 2 -17 -5z"/>
<path d="M1880 601 c0 -5 7 -11 15 -15 9 -3 15 0 15 9 0 8 -7 15 -15 15 -8 0
-15 -4 -15 -9z"/>
<path d="M2090 526 c0 -9 8 -14 20 -13 11 1 20 2 20 4 0 1 -9 7 -20 13 -16 8
-20 8 -20 -4z"/>
</g>
</svg>
