<?xml version="1.0" standalone="no"?>
<!DOCTYPE svg PUBLIC "-//W3C//DTD SVG 20010904//EN"
 "http://www.w3.org/TR/2001/REC-SVG-20010904/DTD/svg10.dtd">
<svg version="1.0" xmlns="http://www.w3.org/2000/svg"
 width="1350.000000pt" height="1350.000000pt" viewBox="0 0 1350.000000 1350.000000"
 preserveAspectRatio="xMidYMid meet">

<g transform="translate(0.000000,1350.000000) scale(0.100000,-0.100000)"
fill="#000000" stroke="none">
<path d="M6398 13053 c-18 -8 -35 -18 -38 -22 -3 -4 -18 -11 -35 -15 -16 -4
-41 -10 -55 -13 -14 -3 -36 -16 -50 -29 -14 -13 -41 -29 -60 -35 -19 -7 -51
-26 -69 -42 -19 -16 -54 -38 -78 -49 -24 -10 -43 -22 -43 -27 0 -4 -11 -14
-25 -21 -13 -7 -27 -21 -31 -32 -3 -10 -11 -18 -18 -18 -21 0 -65 -39 -92 -81
-13 -22 -31 -39 -40 -39 -15 0 -28 -13 -146 -142 -113 -126 -136 -154 -173
-212 -54 -85 -103 -198 -131 -301 -31 -114 -31 -127 -1 -120 26 6 39 -2 54
-35 l12 -25 7 23 c3 12 13 22 21 22 23 0 9 25 -15 28 -25 4 -31 32 -7 32 8 0
15 9 15 20 0 11 7 20 15 20 8 0 19 9 25 20 6 11 21 31 35 46 32 34 49 87 42
135 -3 25 0 42 8 49 7 6 16 32 20 58 4 26 21 72 38 102 33 60 172 210 194 210
20 0 134 67 141 83 2 4 11 7 20 7 8 0 24 7 34 16 16 16 18 15 27 -7 7 -17 10
-19 10 -6 1 13 10 17 44 17 24 0 52 -7 63 -15 18 -14 18 -14 -4 -15 -29 0 -77
-43 -69 -63 3 -9 -4 -19 -21 -26 -21 -10 -23 -14 -11 -22 11 -7 11 -9 -5 -9
-13 0 -17 -5 -13 -20 3 -11 1 -23 -4 -26 -5 -3 -9 2 -9 10 0 22 -16 20 -32 -3
-7 -10 -17 -18 -22 -17 -5 0 -13 -12 -17 -28 -5 -17 -15 -34 -24 -38 -8 -5
-15 -15 -15 -22 0 -8 -6 -16 -14 -19 -8 -3 -17 -20 -21 -37 -4 -19 -15 -34
-29 -40 -24 -9 -56 -80 -59 -130 -2 -29 -44 -100 -59 -100 -6 0 -8 -6 -6 -12
6 -17 -25 -45 -42 -40 -8 3 -11 -1 -7 -10 3 -9 1 -20 -5 -26 -7 -7 -6 -17 2
-32 9 -17 9 -25 -3 -38 -8 -9 -12 -22 -10 -29 2 -7 -5 -18 -16 -25 -22 -14
-28 -34 -11 -40 6 -2 2 -13 -10 -25 -11 -12 -20 -26 -20 -31 0 -5 -7 -15 -16
-22 -26 -23 -70 -131 -80 -200 -4 -25 -11 -53 -16 -62 -7 -15 -4 -18 17 -18
31 0 33 -23 3 -44 -22 -16 -22 -16 -3 -30 19 -14 19 -15 -11 -22 -20 -4 -36
-15 -43 -30 -14 -31 -14 -54 -1 -54 6 0 10 13 10 29 0 17 4 32 9 36 6 3 9 -3
9 -12 0 -10 0 -22 2 -28 1 -5 2 -27 1 -49 -1 -27 -5 -37 -14 -33 -10 4 -12 -3
-9 -24 2 -16 0 -35 -5 -42 -29 -36 -20 -109 17 -152 10 -11 21 -31 25 -45 4
-14 13 -28 18 -32 8 -5 7 -14 -2 -32 -8 -13 -11 -31 -8 -40 4 -9 -1 -17 -13
-21 -10 -3 -22 -16 -26 -28 -11 -35 -11 -180 0 -199 8 -14 6 -21 -9 -32 -13
-9 -21 -28 -22 -53 -1 -21 -5 -60 -9 -86 -5 -37 -2 -57 11 -81 16 -29 17 -41
6 -114 -8 -51 -9 -88 -3 -99 5 -10 7 -24 5 -31 -3 -8 1 -10 11 -6 19 7 21 -7
4 -24 -10 -10 -9 -18 4 -40 9 -15 19 -47 23 -72 18 -114 57 -191 167 -321 l36
-44 11 -165 c16 -248 15 -425 -4 -440 -9 -8 -13 -21 -9 -32 4 -13 -1 -26 -15
-39 -24 -23 -41 -24 -41 -4 0 18 -41 20 -71 5 -24 -13 -25 -57 -2 -90 18 -25
19 -40 26 -275 3 -115 16 -141 88 -180 31 -16 79 -51 107 -77 62 -58 141 -98
291 -148 64 -22 170 -60 236 -85 231 -88 276 -98 390 -90 102 8 148 18 245 53
30 12 125 44 211 71 94 31 187 69 235 96 43 25 83 45 87 45 14 0 125 68 183
111 53 41 187 199 198 235 4 12 31 59 61 105 92 141 107 200 74 305 -8 27 -15
32 -52 37 -23 3 -52 9 -64 13 -20 5 -23 3 -23 -20 0 -14 -5 -26 -11 -26 -19 0
-69 34 -69 47 0 7 -6 13 -14 13 -22 0 -27 14 -39 94 -25 184 -16 519 18 599 8
20 15 52 15 72 0 19 5 35 10 35 6 0 10 9 10 19 0 11 4 22 9 25 4 3 11 24 15
46 4 23 13 51 21 63 8 12 19 46 25 75 13 59 19 66 52 53 17 -6 29 -5 43 5 10
8 26 14 35 14 27 0 109 68 116 95 3 14 11 25 16 25 7 0 8 21 4 59 -4 38 -3 60
4 63 16 5 58 194 65 298 4 52 8 112 10 133 1 24 -6 54 -19 80 -17 34 -29 45
-64 56 l-43 13 1 334 1 334 85 0 84 0 0 70 0 70 -90 0 c-85 0 -90 1 -94 23
-45 257 -85 345 -262 578 -128 170 -382 409 -419 395 -10 -3 -17 3 -21 21 -5
18 -20 31 -53 45 -25 11 -59 30 -76 42 -43 32 -167 96 -185 96 -9 0 -25 6 -36
14 -11 8 -60 27 -109 42 -82 26 -104 29 -252 30 -117 0 -171 -3 -195 -13z
m409 -352 c11 -13 14 -14 22 -2 11 17 59 11 117 -14 39 -18 48 -20 92 -23 15
-1 22 -7 20 -18 -2 -11 9 -21 35 -30 42 -15 71 -9 63 12 -3 8 -2 14 3 14 5 0
11 -9 14 -20 3 -13 14 -20 30 -20 14 0 27 -7 31 -15 3 -8 15 -15 26 -15 18 0
74 -32 90 -51 3 -3 19 -10 35 -16 37 -13 165 -101 165 -114 0 -5 11 -14 25
-19 30 -11 32 -26 5 -40 -16 -8 -22 -7 -32 10 -17 26 -26 25 -38 -5 -13 -33
-40 -32 -76 5 -34 34 -49 39 -34 9 6 -11 10 -26 8 -34 -3 -13 -6 -13 -28 0
-14 8 -35 19 -47 24 -23 11 -32 31 -13 31 11 0 14 29 3 31 -5 1 -18 3 -30 4
-13 1 -28 7 -35 13 -19 15 -88 13 -88 -3 0 -7 -7 -15 -15 -19 -9 -3 -15 -18
-15 -35 0 -16 -6 -32 -12 -35 -13 -5 30 2 67 11 17 4 16 1 -7 -21 -38 -36 -45
-66 -21 -85 24 -20 35 -48 23 -56 -16 -10 -12 -21 13 -33 21 -11 20 -11 -5 -6
-27 6 -41 -10 -16 -18 9 -3 7 -12 -6 -33 -18 -27 -18 -29 -1 -42 10 -7 16 -16
12 -19 -3 -4 -2 -15 4 -26 7 -13 16 -17 31 -12 15 4 19 2 16 -7 -3 -8 -18 -17
-34 -20 -16 -4 -23 -7 -16 -8 7 0 11 -5 8 -10 -3 -5 -16 -7 -29 -4 -21 4 -21
4 -3 -11 10 -8 24 -17 30 -19 8 -3 8 -8 0 -16 -15 -16 -75 5 -67 25 3 8 0 14
-6 14 -18 0 -12 -40 7 -46 30 -10 66 -29 79 -41 7 -6 16 -13 20 -15 5 -1 28
-28 53 -58 25 -30 57 -67 72 -82 33 -31 36 -60 7 -86 -11 -11 -20 -26 -19 -33
8 -53 -12 -66 -29 -19 -11 32 -36 43 -26 11 9 -29 -32 -35 -73 -10 -25 14 -38
17 -47 9 -9 -8 -14 -6 -19 5 -3 8 -14 15 -24 15 -10 0 -23 5 -30 12 -9 9 -12
9 -12 0 0 -7 -6 -12 -14 -12 -8 0 -16 -5 -18 -12 -3 -8 -11 -9 -24 -3 -23 10
-28 11 -131 20 -76 7 -81 6 -80 -11 2 -19 -1 -20 -69 -23 -12 -1 -22 -7 -21
-13 1 -34 -5 -45 -35 -63 -18 -11 -39 -18 -45 -17 -7 2 -13 -4 -13 -13 0 -19
-28 -20 -50 0 -9 8 -39 19 -65 24 -27 5 -51 14 -53 20 -3 8 -9 8 -23 0 -21
-11 -43 -3 -33 12 7 12 -22 59 -36 59 -6 0 -19 -9 -29 -19 -19 -19 -20 -19
-19 7 1 40 -12 72 -29 72 -13 0 -13 -4 2 -26 11 -18 14 -29 7 -36 -17 -17 -39
-2 -45 30 -6 30 -22 41 -69 47 -28 4 -38 -8 -18 -20 6 -3 10 -11 10 -17 0 -6
-12 2 -27 17 -27 26 -27 27 -8 42 19 15 19 15 -9 9 -22 -5 -34 -2 -52 15 -13
12 -36 24 -51 26 -16 2 -38 4 -50 6 -29 3 -40 16 -23 28 13 7 13 10 1 18 -9 6
-10 11 -2 15 6 4 11 2 11 -4 0 -7 6 -10 13 -7 6 2 11 9 10 16 -2 6 8 13 22 17
16 4 25 13 25 25 0 11 8 22 18 26 9 3 31 17 49 30 23 17 40 22 58 17 18 -4 27
-2 31 10 3 9 14 16 24 16 28 0 93 69 80 85 -7 9 -7 21 1 39 15 32 29 34 29 3
0 -29 10 -40 24 -28 6 5 24 11 39 13 34 4 37 21 5 28 -19 5 -23 13 -23 43 0
23 -6 41 -18 49 -21 16 -14 43 14 59 27 14 14 29 -24 29 -36 1 -73 40 -63 66
9 23 31 10 28 -16 -3 -15 1 -21 10 -18 9 3 12 20 10 54 -3 42 0 52 22 71 14
13 26 32 26 42 0 29 18 36 41 15 13 -12 16 -21 9 -29 -8 -9 -4 -14 13 -18 40
-11 66 3 72 37 6 30 8 31 56 31 59 1 69 12 65 72 -2 24 0 43 5 43 5 0 4 11 -1
24 -5 14 -5 39 2 65 l10 41 71 -1 c53 -1 75 -5 84 -18z m303 -61 c0 -5 -4 -10
-10 -10 -5 0 -10 5 -10 10 0 6 5 10 10 10 6 0 10 -4 10 -10z m-537 -7 c-7 -2
-19 -2 -25 0 -7 3 -2 5 12 5 14 0 19 -2 13 -5z m647 -259 c0 -2 -7 -4 -15 -4
-8 0 -15 4 -15 10 0 5 7 7 15 4 8 -4 15 -8 15 -10z m330 -48 c0 -3 -4 -8 -10
-11 -5 -3 -10 -1 -10 4 0 6 5 11 10 11 6 0 10 -2 10 -4z m70 -5 c0 -5 -7 -11
-15 -15 -15 -5 -20 5 -8 17 9 10 23 9 23 -2z m14 -60 c3 -4 3 -11 0 -14 -8 -8
-34 3 -34 14 0 11 27 12 34 0z m-1364 -113 c11 -32 12 -32 26 -14 10 15 14 16
15 5 2 -24 -2 -54 -10 -61 -11 -12 -53 3 -47 17 2 7 -4 15 -15 18 -12 3 -19
14 -19 29 0 49 33 52 50 6z m1005 -49 c11 -17 -1 -21 -15 -4 -8 9 -8 15 -2 15
6 0 14 -5 17 -11z m-1905 -118 c0 -6 -4 -13 -10 -16 -5 -3 -10 1 -10 9 0 9 5
16 10 16 6 0 10 -4 10 -9z m855 -11 c3 -5 1 -10 -4 -10 -6 0 -11 5 -11 10 0 6
2 10 4 10 3 0 8 -4 11 -10z m1038 -70 c6 -22 -12 -27 -31 -8 -17 17 -15 28 7
28 10 0 21 -9 24 -20z m-1368 -130 c3 -5 -1 -10 -9 -10 -9 0 -16 5 -16 10 0 6
4 10 9 10 6 0 13 -4 16 -10z m1435 -5 c0 -8 -4 -15 -9 -15 -13 0 -22 16 -14
24 11 11 23 6 23 -9z m-1500 -15 c0 -5 -2 -10 -4 -10 -3 0 -8 5 -11 10 -3 6
-1 10 4 10 6 0 11 -4 11 -10z m1610 -136 c0 -8 -7 -14 -15 -14 -15 0 -21 21
-9 33 10 9 24 -2 24 -19z m-55 -54 c-5 -8 -11 -8 -17 -2 -6 6 -7 16 -3 22 5 8
11 8 17 2 6 -6 7 -16 3 -22z m-1190 10 c3 -5 1 -10 -4 -10 -6 0 -11 5 -11 10
0 6 2 10 4 10 3 0 8 -4 11 -10z m-700 -80 c3 -5 2 -10 -4 -10 -5 0 -13 5 -16
10 -3 6 -2 10 4 10 5 0 13 -4 16 -10z m1852 -42 c-3 -8 -6 -5 -6 6 -1 11 2 17
5 13 3 -3 4 -12 1 -19z m53 -3 c-7 -8 -14 -15 -15 -15 -2 0 -5 7 -9 15 -4 10
1 15 16 15 17 0 18 -2 8 -15z m-855 -6 c11 -17 2 -18 -19 -3 -17 12 -17 14 -4
14 9 0 20 -5 23 -11z m34 -59 c11 0 21 -4 21 -10 0 -5 -12 -10 -26 -10 -22 0
-25 -2 -14 -15 7 -8 21 -15 32 -15 10 0 17 -4 14 -8 -3 -5 4 -19 16 -31 15
-17 17 -26 9 -34 -6 -6 -11 -21 -11 -33 0 -12 -7 -24 -15 -28 -8 -3 -15 -12
-15 -21 0 -8 -4 -15 -10 -15 -21 0 -9 -30 13 -31 12 0 16 -3 10 -6 -21 -8 -15
-29 12 -43 14 -7 25 -21 25 -31 0 -9 6 -19 13 -22 8 -3 6 -11 -9 -28 -12 -13
-20 -29 -17 -35 2 -6 -8 -16 -23 -22 -27 -13 -28 -38 -1 -36 34 3 36 4 31 18
-4 10 2 16 18 18 15 2 23 9 22 21 -2 24 28 22 44 -4 9 -14 19 -18 33 -14 15 5
22 2 26 -14 3 -12 9 -21 14 -21 5 0 9 -4 9 -10 0 -18 -28 -11 -43 10 -12 17
-19 19 -41 11 -33 -13 -33 -18 3 -56 29 -29 35 -44 32 -75 -1 -12 -4 -12 -15
2 -7 10 -26 22 -42 28 l-29 11 23 18 c24 17 21 34 -4 24 -8 -3 -14 1 -14 11 0
22 -33 20 -47 -4 -11 -17 -7 -25 28 -67 22 -26 51 -60 63 -75 13 -15 42 -32
67 -38 60 -17 95 -48 91 -82 -2 -16 -9 -28 -15 -29 -7 0 -43 -3 -80 -8 -54 -6
-70 -4 -76 7 -6 11 -16 11 -60 -4 -28 -9 -56 -25 -62 -35 -12 -22 -34 -26 -25
-4 3 8 2 15 -2 16 -4 0 -29 2 -55 4 -62 4 -115 30 -122 58 -14 55 -10 82 13
92 12 5 22 13 22 18 0 10 -46 27 -76 27 -25 0 -33 -15 -11 -23 7 -2 12 -23 12
-55 0 -55 -5 -62 -25 -37 -7 8 -23 15 -36 15 -30 0 -32 25 -3 41 15 8 18 14
10 22 -7 7 -14 7 -25 -2 -11 -9 -16 -9 -22 0 -4 7 2 20 17 32 13 10 25 23 25
28 1 5 2 14 3 19 0 6 8 10 16 10 8 0 15 5 15 12 0 6 12 1 26 -13 l25 -24 19
24 c13 18 28 25 56 25 32 1 39 5 39 21 0 16 -7 20 -30 20 -20 0 -31 6 -33 18
-3 13 3 17 27 17 35 0 42 23 14 39 -17 9 -17 11 3 30 13 11 24 38 28 65 4 25
11 48 17 51 5 4 7 10 4 15 -8 13 6 40 21 40 21 0 17 17 -8 34 -19 13 -19 17
-7 32 13 16 12 17 -8 12 -31 -8 -66 27 -60 60 3 17 -1 30 -15 41 -18 15 -16
16 39 19 31 2 60 5 64 7 3 3 4 17 2 32 -4 26 -3 26 10 11 8 -10 24 -18 36 -18z
m-670 -23 c14 -17 4 -27 -26 -27 -16 0 -23 6 -23 20 0 23 31 27 49 7z m118
-34 c13 -9 22 -18 19 -20 -7 -7 -90 21 -106 36 -13 12 -10 13 24 7 22 -4 50
-14 63 -23z m1150 21 c-3 -3 -12 -4 -19 -1 -8 3 -5 6 6 6 11 1 17 -2 13 -5z
m88 -34 c13 0 27 -5 30 -10 4 -6 11 -8 16 -5 5 4 9 1 9 -4 0 -6 -6 -11 -14
-11 -8 0 -16 -5 -18 -11 -4 -11 -61 -1 -120 22 -32 13 -27 39 8 39 13 0 24 5
24 12 0 6 9 2 20 -10 12 -12 32 -22 45 -22z m-147 1 c10 -6 4 -10 -18 -15 -38
-7 -63 4 -34 15 26 10 37 10 52 0z m-1042 -52 c43 -22 83 -45 89 -50 16 -16
-14 -10 -63 12 -38 18 -63 21 -141 20 -52 -1 -99 -3 -104 -4 -5 -1 -12 3 -14
10 -6 17 47 29 57 13 5 -9 9 -9 14 -1 4 6 16 11 27 11 10 0 19 7 19 15 0 25
32 17 116 -26z m1044 1 c-20 -13 -47 -13 -55 0 -4 6 9 10 32 10 28 0 34 -3 23
-10z m125 -20 c3 -5 1 -11 -5 -15 -6 -4 -7 -12 -3 -18 13 -21 13 -47 0 -47
-31 1 -151 38 -155 49 -4 13 9 14 41 2 27 -11 42 5 31 33 -3 9 2 16 13 18 20
5 70 -10 78 -22z m-1525 0 c0 -5 -6 -10 -14 -10 -8 0 -17 -7 -20 -16 -5 -13
-9 -14 -21 -4 -22 18 -18 28 13 33 15 2 30 5 35 6 4 0 7 -3 7 -9z m-73 -46
c-3 -3 -12 -4 -19 -1 -8 3 -5 6 6 6 11 1 17 -2 13 -5z m1180 -10 c18 -5 20 -9
11 -24 -16 -25 -3 -50 26 -50 14 0 28 -5 32 -12 5 -8 -5 -9 -36 -4 -44 7 -44
7 -25 -14 10 -11 27 -20 37 -20 11 0 17 -4 14 -9 -4 -5 2 -7 11 -5 23 5 54
-15 35 -23 -6 -2 -10 -8 -7 -13 9 -15 -79 23 -102 44 -13 11 -23 30 -23 43 0
14 -6 23 -15 23 -8 0 -15 7 -15 15 0 8 5 15 10 15 6 0 10 9 10 20 0 22 3 23
37 14z m-732 -16 c36 -16 31 -25 -17 -30 -53 -6 -61 -2 -48 23 12 22 28 24 65
7z m-305 -22 c0 -8 7 -17 16 -20 9 -4 15 -9 12 -12 -8 -7 -98 19 -98 29 0 5 7
7 15 4 8 -4 17 -2 20 3 9 15 35 12 35 -4z m1230 -11 c19 -23 5 -29 -29 -14
-20 9 -26 16 -18 21 18 12 33 9 47 -7z m-970 -45 c-8 -5 -28 -9 -45 -9 -29 1
-29 1 -5 9 14 4 34 8 45 9 16 1 17 -1 5 -9z m-83 -6 c-3 -3 -12 -4 -19 -1 -8
3 -5 6 6 6 11 1 17 -2 13 -5z m183 -13 c0 -12 -20 -25 -27 -18 -7 7 6 27 18
27 5 0 9 -4 9 -9z m1075 -22 c5 -5 -8 -9 -32 -9 -43 0 -67 15 -36 23 21 5 54
-2 68 -14z m-1133 -11 c-6 -6 -15 -8 -19 -4 -4 4 -1 11 7 16 19 12 27 3 12
-12z m-32 -25 c0 -5 -12 -16 -26 -26 -19 -15 -30 -16 -52 -9 -22 9 -23 11 -6
11 11 1 29 8 40 16 20 15 44 20 44 8z m1115 -68 l60 -5 -60 20 c-60 21 -106
50 -55 35 112 -32 131 -35 208 -31 46 2 86 6 89 10 3 3 0 12 -7 21 -10 13 -9
15 9 15 16 0 21 -6 21 -24 0 -30 11 -38 56 -39 25 -1 34 -5 34 -18 0 -9 9 -23
21 -30 18 -13 21 -24 20 -89 0 -41 0 -93 1 -115 4 -119 -6 -171 -34 -178 -15
-4 -19 -11 -15 -27 3 -13 0 -23 -9 -27 -8 -3 -14 -12 -14 -20 0 -11 -7 -13
-29 -8 -39 8 -71 -9 -64 -34 4 -16 -2 -22 -34 -31 -21 -5 -46 -17 -57 -25 -11
-8 -30 -12 -46 -8 -15 3 -31 0 -34 -6 -4 -6 0 -11 8 -11 10 0 16 -9 16 -25 0
-16 -6 -25 -15 -25 -8 0 -15 6 -15 13 0 16 -36 47 -54 47 -7 0 -18 11 -24 25
-6 14 -16 25 -21 25 -15 0 -23 -18 -11 -25 12 -8 13 -45 1 -45 -5 0 -12 7 -15
15 -5 14 -10 13 -35 -6 -29 -21 -61 -23 -103 -4 -14 5 -18 2 -18 -14 0 -21 -2
-21 -21 -7 -24 16 -49 11 -49 -10 0 -12 -4 -12 -24 1 -23 15 -25 15 -34 -2
-10 -16 -12 -16 -32 10 -23 29 -45 27 -35 -4 10 -31 -2 -22 -13 10 -14 41 5
69 36 52 12 -6 22 -18 22 -26 0 -17 36 -20 45 -4 4 6 -2 13 -13 16 -17 4 -19
8 -10 23 9 14 9 25 0 44 -11 24 -9 26 16 32 32 8 62 32 62 50 0 21 34 94 43
94 5 0 11 -9 14 -20 3 -11 9 -20 13 -20 13 0 20 61 10 81 -11 19 -15 21 -60
23 -15 1 -24 6 -22 15 4 19 -19 43 -35 37 -8 -3 -11 -1 -8 4 4 6 4 23 0 39 -6
26 -23 41 -69 55 -15 5 -16 9 -5 22 10 13 9 16 -9 21 -12 3 -22 9 -22 14 0 11
10 11 46 0 74 -23 127 -20 72 4 -25 11 -26 32 -1 27 13 -3 13 -1 -1 20 -21 30
-20 38 4 38 11 0 20 -4 20 -10 0 -5 10 -9 23 -9 12 1 37 -2 56 -6 30 -7 34 -6
28 9 -4 10 -1 19 8 22 27 11 16 33 -20 40 -33 6 -42 14 -30 26 3 3 41 -10 83
-28 45 -19 102 -36 137 -39z m355 44 c0 -5 -9 -4 -19 3 -11 7 -17 16 -14 20 5
10 33 -10 33 -23z m-50 -9 c0 -5 -4 -10 -10 -10 -5 0 -10 5 -10 10 0 6 5 10
10 10 6 0 10 -4 10 -10z m-1523 -17 c5 -15 -28 -26 -41 -13 -8 8 -7 14 4 20
17 11 32 8 37 -7z m-12 -43 c3 -5 1 -10 -4 -10 -6 0 -11 5 -11 10 0 6 2 10 4
10 3 0 8 -4 11 -10z m-80 -60 c-3 -5 -10 -10 -16 -10 -5 0 -9 5 -9 10 0 6 7
10 16 10 8 0 12 -4 9 -10z m-55 -41 c0 -10 -4 -19 -10 -19 -5 0 -10 12 -10 26
0 14 4 23 10 19 6 -3 10 -15 10 -26z m-80 -19 c0 -5 -2 -10 -4 -10 -3 0 -8 5
-11 10 -3 6 -1 10 4 10 6 0 11 -4 11 -10z m-170 -30 c0 -5 -4 -10 -10 -10 -5
0 -10 5 -10 10 0 6 5 10 10 10 6 0 10 -4 10 -10z m2418 -52 c14 -14 16 -28 2
-28 -5 0 -14 9 -20 20 -12 22 -1 27 18 8z m-2541 -20 c-3 -8 -6 -5 -6 6 -1 11
2 17 5 13 3 -3 4 -12 1 -19z m529 -16 c16 -10 27 -50 17 -64 -4 -7 -13 -28
-18 -47 -10 -35 -38 -61 -51 -48 -4 4 0 13 9 20 11 8 14 21 10 40 -6 31 -23
37 -23 7 0 -22 -7 -25 -30 -10 -12 8 -12 12 0 36 8 15 27 31 42 36 17 6 25 15
21 24 -6 15 5 18 23 6z m2070 -19 c4 -16 11 -33 16 -39 15 -20 21 -110 9 -146
-12 -37 -47 -76 -57 -65 -4 3 4 27 16 52 27 55 23 119 -11 166 -17 24 -18 33
-9 44 18 22 29 18 36 -12z m-1986 5 c0 -19 -18 -43 -25 -36 -9 9 4 48 16 48 5
0 9 -6 9 -12z m100 -38 c0 -13 -7 -20 -20 -20 -11 0 -20 -4 -20 -10 0 -5 -4
-10 -10 -10 -5 0 -10 14 -10 30 0 27 3 30 30 30 23 0 30 -4 30 -20z m-290 -80
c0 -11 -4 -20 -9 -20 -5 0 -7 9 -4 20 3 11 7 20 9 20 2 0 4 -9 4 -20z m2067
-20 c-2 -34 -19 -45 -23 -16 -2 15 13 44 23 46 2 0 2 -14 0 -30z m-2497 6 c0
-3 -4 -8 -10 -11 -5 -3 -10 -1 -10 4 0 6 5 11 10 11 6 0 10 -2 10 -4z m1365
-36 c-3 -6 -23 -19 -43 -29 -36 -18 -36 -19 -37 -87 -1 -53 -4 -69 -15 -69
-10 0 -15 11 -15 34 0 19 -6 36 -12 38 -7 3 -13 0 -13 -5 0 -6 -8 -8 -19 -5
-25 6 -37 -14 -12 -22 26 -8 36 -35 13 -35 -21 1 -43 18 -60 48 -11 20 -10 25
10 42 13 11 29 19 36 20 15 0 16 30 1 30 -5 0 -7 5 -4 10 3 6 21 10 38 10 26
0 64 8 135 29 2 1 0 -4 -3 -9z m-905 -29 c0 -6 -4 -13 -10 -16 -5 -3 -10 1
-10 9 0 9 5 16 10 16 6 0 10 -4 10 -9z m920 -81 c0 -5 -10 -10 -22 -10 -19 0
-20 2 -8 10 19 13 30 13 30 0z m-230 -60 c0 -5 -4 -10 -10 -10 -5 0 -10 5 -10
10 0 6 5 10 10 10 6 0 10 -4 10 -10z m1425 0 c4 -6 -6 -10 -22 -10 -22 0 -25
2 -13 10 19 12 27 12 35 0z m-1304 -109 c8 12 12 11 22 -3 7 -9 42 -27 78 -39
35 -12 68 -25 74 -30 5 -5 17 -9 26 -9 20 0 33 -15 25 -28 -5 -8 -52 -4 -164
12 -29 4 -32 3 -27 -14 8 -26 -26 -34 -85 -21 -25 5 -47 6 -50 1 -7 -12 -53
-16 -68 -6 -7 4 -16 5 -19 2 -3 -3 -12 -1 -19 5 -8 6 -35 13 -61 14 -43 3 -48
6 -50 29 -2 27 11 43 22 26 8 -14 164 -13 204 1 29 10 32 15 27 40 -5 27 -5
27 25 17 25 -8 33 -8 40 3z m-211 -8 c-8 -3 -21 -12 -27 -21 -15 -18 -28 -10
-20 13 4 9 18 15 34 14 15 0 21 -3 13 -6z m35 -13 c3 -5 1 -10 -4 -10 -6 0
-11 5 -11 10 0 6 2 10 4 10 3 0 8 -4 11 -10z m-165 -50 c0 -5 -5 -10 -11 -10
-5 0 -7 5 -4 10 3 6 8 10 11 10 2 0 4 -4 4 -10z m484 -197 c1 -28 -1 -30 -15
-17 -20 18 -49 18 -49 -1 0 -7 8 -19 18 -24 14 -9 15 -12 3 -20 -8 -5 -20 -7
-28 -4 -7 3 -13 0 -13 -7 0 -6 5 -8 10 -5 6 3 10 2 10 -2 0 -16 -217 -81 -249
-74 -8 1 -18 -3 -22 -11 -6 -9 -11 -10 -16 -2 -5 6 -30 10 -58 10 -37 0 -61 7
-92 27 -24 15 -43 31 -43 36 0 8 55 41 68 41 2 0 2 -6 -1 -14 -7 -18 44 -29
75 -16 l23 9 -22 7 c-32 9 -29 26 5 23 15 -2 28 0 30 4 6 19 0 28 -17 22 -11
-3 -26 1 -35 10 -20 21 -85 11 -87 -14 -1 -14 -2 -13 -6 1 -6 25 -37 7 -57
-33 -12 -25 -13 -35 -4 -46 9 -11 9 -17 -3 -24 -21 -13 -33 -6 -43 29 -9 33
-26 44 -26 17 0 -8 -4 -15 -10 -15 -5 0 -10 9 -10 20 0 10 -10 25 -22 32 l-23
12 25 6 c16 4 24 12 22 23 -3 15 10 17 100 19 108 2 110 2 173 -7 42 -6 86
-24 96 -39 4 -4 10 -3 13 3 4 6 2 11 -4 11 -20 0 -5 25 16 27 10 0 51 4 91 8
66 7 71 6 70 -11 -1 -11 4 -19 13 -19 9 0 14 7 12 19 -3 16 1 18 27 13 19 -4
31 -2 31 4 0 27 23 -1 24 -28z m-434 -23 c0 -5 -4 -10 -9 -10 -6 0 -13 5 -16
10 -3 6 1 10 9 10 9 0 16 -4 16 -10z m742 -27 c2 -25 -3 -45 -14 -58 -10 -11
-28 -32 -40 -47 -25 -29 -77 -51 -63 -27 6 11 5 12 -6 2 -7 -7 -21 -13 -30
-13 -10 0 -21 -10 -25 -22 -6 -19 -8 -19 -16 -5 -10 19 13 71 37 85 9 4 19 21
24 38 6 22 13 28 30 27 12 -2 24 4 27 12 4 8 17 15 30 15 15 0 24 6 24 15 0
32 19 13 22 -22z m-447 -93 c-3 -5 -1 -10 4 -10 6 0 11 -4 11 -10 0 -5 -9 -10
-19 -10 -14 0 -18 5 -14 20 3 11 10 20 15 20 5 0 6 -4 3 -10z m-47 -31 c9 -1
4 -5 -13 -8 -34 -8 -48 -4 -39 10 3 6 13 8 21 5 8 -3 22 -7 31 -7z m202 -159
c0 -5 -5 -10 -11 -10 -5 0 -7 5 -4 10 3 6 8 10 11 10 2 0 4 -4 4 -10z m-50
-25 c0 -2 -12 -11 -27 -20 l-28 -15 35 1 c19 1 46 1 60 0 l25 -1 -26 -23 c-14
-12 -29 -32 -33 -44 -4 -13 -13 -23 -20 -23 -8 0 -19 -7 -26 -15 -9 -11 -15
-12 -20 -5 -4 6 -45 11 -103 11 -68 0 -97 4 -97 12 0 7 -3 21 -6 33 -5 17 2
24 42 39 34 13 49 15 52 7 5 -16 73 -16 71 1 -3 28 2 36 29 40 43 6 72 7 72 2z
m-310 -71 c0 -17 -22 -14 -28 4 -2 7 3 12 12 12 9 0 16 -7 16 -16z m230 -784
c0 -5 -5 -10 -11 -10 -5 0 -7 5 -4 10 3 6 8 10 11 10 2 0 4 -4 4 -10z m990
-253 c0 -2 -10 -12 -21 -23 -22 -19 -22 -19 -8 4 12 19 29 30 29 19z"/>
<path d="M6845 12670 c3 -5 21 -10 38 -9 31 1 31 1 7 9 -36 11 -52 11 -45 0z"/>
<path d="M6750 12640 c-13 -8 -12 -10 3 -10 9 0 17 5 17 10 0 12 -1 12 -20 0z"/>
<path d="M6680 12530 c0 -5 5 -10 11 -10 5 0 7 5 4 10 -3 6 -8 10 -11 10 -2 0
-4 -4 -4 -10z"/>
<path d="M6568 12413 c6 -2 18 -2 25 0 6 3 1 5 -13 5 -14 0 -19 -2 -12 -5z"/>
<path d="M7080 12380 c0 -5 5 -10 10 -10 6 0 10 5 10 10 0 6 -4 10 -10 10 -5
0 -10 -4 -10 -10z"/>
<path d="M7130 12014 c0 -8 5 -12 10 -9 6 4 8 11 5 16 -9 14 -15 11 -15 -7z"/>
<path d="M7290 11710 c0 -11 5 -20 10 -20 6 0 10 9 10 20 0 11 -4 20 -10 20
-5 0 -10 -9 -10 -20z"/>
<path d="M6510 11500 c0 -5 5 -10 10 -10 6 0 10 5 10 10 0 6 -4 10 -10 10 -5
0 -10 -4 -10 -10z"/>
<path d="M6530 11060 c0 -5 5 -10 10 -10 6 0 10 5 10 10 0 6 -4 10 -10 10 -5
0 -10 -4 -10 -10z"/>
<path d="M6870 10330 c-12 -8 -12 -10 2 -15 20 -8 41 2 33 16 -8 11 -16 11
-35 -1z"/>
<path d="M6208 9955 c-3 -3 -3 -17 0 -30 3 -20 7 -23 18 -14 18 15 18 49 1 49
-8 0 -16 -2 -19 -5z"/>
<path d="M6532 9898 c2 -6 10 -14 16 -16 7 -2 10 2 6 12 -7 18 -28 22 -22 4z"/>
<path d="M6495 9880 c-3 -6 1 -7 9 -4 18 7 21 14 7 14 -6 0 -13 -4 -16 -10z"/>
<path d="M6410 9840 c-8 -5 -11 -12 -7 -16 4 -4 13 -2 19 4 15 15 7 24 -12 12z"/>
<path d="M6746 9536 c6 -16 59 -23 68 -8 2 4 -7 7 -22 7 -15 -1 -33 3 -40 8
-9 7 -11 5 -6 -7z"/>
<path d="M5296 11802 l-7 -22 -1095 0 -1094 0 0 -1256 c0 -1192 1 -1256 18
-1249 9 3 43 13 74 22 l57 16 -6 1180 -6 1180 32 -6 c18 -4 481 -7 1029 -7
l997 0 -3 25 c-4 27 15 34 36 13 8 -8 15 -8 25 0 8 7 17 9 20 5 4 -3 7 -2 7 4
0 15 -29 25 -50 18 -9 -3 -23 2 -30 10 -18 21 -9 26 28 16 34 -10 53 2 33 22
-6 6 -11 19 -11 29 0 26 -18 22 -23 -4 -4 -23 -4 -23 -14 2 l-10 25 -7 -23z"/>
<path d="M5342 11665 c2 -14 -3 -21 -20 -23 -23 -4 -21 -22 3 -22 22 0 40 39
25 54 -9 8 -11 6 -8 -9z"/>
<path d="M5310 11585 c0 -8 5 -15 10 -15 6 0 10 7 10 15 0 8 -4 15 -10 15 -5
0 -10 -7 -10 -15z"/>
<path d="M5191 11009 c-35 -45 -41 -209 -13 -329 12 -47 28 -116 38 -155 9
-38 21 -75 26 -82 7 -8 3 -22 -12 -43 -27 -38 -22 -77 20 -143 24 -39 72 -77
96 -77 3 0 3 15 0 33 -6 34 -20 135 -37 277 -6 47 -16 189 -22 315 l-12 230
-30 2 c-23 2 -36 -5 -54 -28z"/>
<path d="M10412 9251 c2 -836 5 -1521 8 -1524 3 -3 42 -7 88 -9 l82 -5 0 1529
0 1528 -91 0 -91 0 4 -1519z"/>
<path d="M5391 10304 c0 -11 3 -14 6 -6 3 7 2 16 -1 19 -3 4 -6 -2 -5 -13z"/>
<path d="M5372 10205 c0 -16 2 -22 5 -12 2 9 2 23 0 30 -3 6 -5 -1 -5 -18z"/>
<path d="M4527 9893 c-4 -3 -7 -11 -7 -17 0 -6 5 -5 12 2 6 6 9 14 7 17 -3 3
-9 2 -12 -2z"/>
<path d="M4552 9836 c2 -18 11 -32 24 -37 18 -6 21 -4 17 11 -3 10 -14 27 -25
37 -19 17 -20 17 -16 -11z"/>
<path d="M4500 9846 c0 -2 7 -6 15 -10 8 -3 15 -1 15 4 0 6 -7 10 -15 10 -8 0
-15 -2 -15 -4z"/>
<path d="M4516 9783 c-6 -14 -5 -15 5 -6 7 7 10 15 7 18 -3 3 -9 -2 -12 -12z"/>
<path d="M4430 9735 c0 -8 5 -15 10 -15 6 0 10 7 10 15 0 8 -4 15 -10 15 -5 0
-10 -7 -10 -15z"/>
<path d="M4331 9674 c0 -11 3 -14 6 -6 3 7 2 16 -1 19 -3 4 -6 -2 -5 -13z"/>
<path d="M4401 9656 c-6 -8 -21 -12 -31 -9 -11 3 -20 1 -20 -5 0 -6 -21 -31
-47 -57 l-48 -47 60 41 c85 58 111 79 104 86 -3 3 -11 -1 -18 -9z"/>
<path d="M4250 9621 c0 -6 5 -13 10 -16 6 -3 10 1 10 9 0 9 -4 16 -10 16 -5 0
-10 -4 -10 -9z"/>
<path d="M4230 9598 c0 -18 18 -34 28 -24 3 4 -2 14 -11 23 -16 16 -17 16 -17
1z"/>
<path d="M4114 9546 c-4 -11 -1 -22 7 -27 31 -19 38 -6 14 25 -14 18 -15 18
-21 2z"/>
<path d="M4210 9525 c-7 -8 -18 -15 -24 -15 -6 0 -23 -8 -36 -17 -14 -10 -31
-18 -38 -20 -8 -1 -22 -9 -33 -19 -10 -9 -19 -14 -19 -10 0 4 -10 2 -21 -5
-17 -9 -20 -8 -13 3 15 22 11 65 -6 65 -8 0 -20 -3 -25 -8 -15 -11 -296 -113
-400 -144 -49 -15 -95 -32 -100 -38 -14 -16 -35 -19 -35 -6 0 8 -4 9 -13 0 -8
-6 -17 -8 -20 -5 -9 9 -96 -85 -112 -121 -11 -24 -14 -26 -14 -9 -1 11 19 42
44 69 24 27 43 50 42 51 -1 2 -50 -10 -107 -27 -58 -16 -113 -29 -123 -29 -10
0 -20 -7 -24 -16 -5 -13 -7 -13 -14 -2 -7 11 -9 11 -9 -1 0 -7 -6 -11 -15 -7
-9 3 -15 0 -15 -9 0 -18 -16 -20 -23 -2 -3 6 -6 1 -6 -13 -1 -14 6 -35 14 -47
11 -16 12 -24 4 -29 -17 -10 -81 -6 -93 6 -6 6 -2 8 12 5 12 -2 24 1 27 6 4 5
10 7 15 4 15 -9 20 12 10 40 -8 22 -13 25 -24 16 -9 -8 -16 -8 -20 -2 -4 6
-19 4 -41 -5 -19 -8 -35 -11 -35 -7 0 5 -5 0 -11 -10 -6 -9 -14 -15 -19 -12
-5 3 -11 1 -15 -5 -4 -6 -11 -8 -16 -5 -5 4 -9 0 -9 -8 0 -11 -7 -13 -22 -9
-19 5 -21 2 -15 -24 3 -16 9 -37 12 -46 5 -13 -1 -18 -32 -24 -21 -5 -46 -7
-55 -5 -10 1 -18 -4 -19 -11 -1 -20 -18 24 -18 47 l0 20 9 -20 c5 -11 9 -15 9
-9 1 7 17 15 36 18 39 8 48 17 39 40 -4 11 -10 13 -18 8 -18 -14 -55 -21 -58
-11 -2 5 -16 4 -31 -3 -23 -11 -26 -17 -21 -43 3 -16 13 -36 21 -42 18 -14 19
-13 -62 -38 -69 -21 -78 -20 -65 5 6 11 15 18 19 15 5 -2 11 4 14 15 3 13 11
18 26 15 24 -4 34 7 25 29 -5 13 -9 14 -20 5 -8 -6 -14 -8 -14 -5 0 4 -9 2
-20 -4 -14 -7 -20 -7 -20 0 0 10 -53 6 -71 -6 -5 -3 -25 -7 -46 -10 -70 -8
-72 -10 -61 -52 5 -20 13 -57 18 -82 26 -140 106 -372 145 -418 l23 -28 -34
-2 c-19 -2 -44 2 -55 9 -15 8 -19 8 -15 0 5 -7 -1 -11 -15 -11 -18 0 -19 2 -9
15 9 10 9 15 1 15 -6 0 -11 7 -11 15 0 17 29 34 48 28 6 -3 12 -2 12 2 0 10
-27 35 -39 35 -5 0 -13 9 -16 21 -8 24 -77 58 -83 40 -7 -20 -22 -12 -22 12
l-1 22 -13 -24 c-12 -22 -14 -23 -23 -6 -9 16 -10 16 -17 0 -3 -9 -4 -21 -1
-25 3 -5 -4 -14 -15 -20 -21 -11 -28 -40 -10 -40 6 0 10 -9 10 -19 0 -11 5
-21 11 -23 7 -2 9 -13 5 -26 -7 -21 -13 -22 -97 -22 -89 0 -89 0 -83 24 3 13
1 27 -5 30 -7 5 -11 -4 -11 -23 0 -22 -5 -31 -16 -31 -19 0 -18 14 21 185 14
66 30 136 34 155 5 19 14 55 20 79 7 23 11 45 9 47 -7 6 -48 -8 -48 -18 0 -5
4 -7 9 -4 13 8 21 -18 10 -35 -7 -12 -9 -12 -9 0 0 11 -3 11 -15 1 -16 -14
-21 -55 -5 -45 13 8 11 -35 -5 -105 -7 -30 -18 -77 -23 -105 -19 -93 -24 -110
-29 -97 -3 6 -9 12 -14 12 -14 0 -10 -26 6 -40 23 -19 18 -30 -15 -30 -16 0
-30 5 -30 10 0 21 59 286 70 315 9 23 13 26 20 15 6 -8 10 -10 10 -5 0 6 -4
15 -10 21 -13 13 13 106 39 140 12 15 21 22 21 16 0 -15 30 -8 41 9 7 10 8 6
3 -13 -4 -18 -2 -28 5 -28 6 0 11 5 11 11 0 6 10 42 21 81 25 80 42 92 124 88
119 -5 148 -4 152 5 2 6 -11 12 -29 13 -18 1 -62 6 -98 12 -67 10 -86 10 -107
-3 -9 -5 -11 -3 -7 6 5 14 4 15 -65 19 l-44 3 -22 -67 c-12 -38 -18 -68 -14
-68 5 0 9 4 9 8 0 5 7 17 15 28 14 17 14 17 3 -11 -6 -16 -18 -35 -26 -42 -8
-6 -11 -17 -7 -22 3 -6 0 -17 -7 -24 -13 -14 -59 -193 -102 -402 l-22 -110
-722 -3 -722 -2 0 -780 0 -780 2410 0 2410 0 0 780 0 780 -580 0 c-496 0 -579
2 -568 14 7 8 16 12 19 10 3 -2 29 12 57 31 28 18 60 36 71 40 11 3 29 18 40
31 11 14 25 23 31 19 5 -3 10 -1 10 4 0 6 7 11 15 11 8 0 20 10 26 23 11 21
11 21 -6 7 -17 -14 -17 -13 -11 10 7 24 6 24 -8 6 -9 -11 -16 -16 -16 -11 0 5
-6 0 -14 -10 -13 -18 -13 -18 -24 1 -10 17 -11 16 -12 -10 0 -16 -3 -27 -6
-23 -4 3 -19 0 -35 -9 -28 -14 -29 -14 -29 8 0 15 3 19 8 11 5 -8 12 -2 21 18
7 17 11 32 8 35 -6 6 -67 -29 -67 -38 0 -5 -7 -8 -15 -8 -8 0 -41 -14 -72 -31
-96 -52 -171 -89 -184 -89 -6 0 -9 7 -5 15 14 39 17 121 6 197 -13 94 -35 148
-26 63 16 -137 16 -171 4 -188 -11 -15 -13 -4 -15 67 0 46 -6 93 -12 103 -10
15 -10 14 -5 -9 11 -50 -4 -29 -26 35 -11 34 -31 70 -43 79 -12 10 -33 26 -48
37 -20 16 -89 128 -89 146 0 15 19 1 30 -22 7 -16 15 -23 17 -15 9 24 23 12
17 -14 -5 -19 -4 -25 5 -20 6 4 11 15 12 24 1 10 4 7 8 -8 l7 -25 12 23 c10
17 10 27 1 43 -8 15 -8 19 0 15 6 -4 11 0 11 8 0 9 -4 16 -9 16 -5 0 -13 9
-16 20 -9 29 -27 25 -19 -5 4 -15 2 -25 -5 -25 -6 0 -11 12 -11 26 0 36 -16
62 -72 117 -41 39 -52 45 -68 37 -10 -6 -21 -6 -24 -2 -5 9 17 19 134 62 87
32 117 45 208 87 29 14 59 26 67 27 8 1 25 11 37 23 13 11 28 19 34 16 6 -2
17 3 24 12 7 8 19 15 27 15 16 0 59 37 51 45 -3 3 -11 -1 -18 -10z m-687 -238
c-3 -5 -10 -4 -15 1 -6 6 -7 16 -3 22 6 9 9 9 16 -1 4 -7 5 -17 2 -22z m75
-17 c3 3 8 -7 9 -22 1 -16 -2 -28 -8 -28 -5 0 -9 8 -9 19 0 10 -7 24 -15 31
-8 7 -15 18 -15 24 0 6 7 2 16 -9 8 -11 18 -18 22 -15z m-38 -20 c0 -5 -2 -10
-4 -10 -3 0 -8 5 -11 10 -3 6 -1 10 4 10 6 0 11 -4 11 -10z m43 -79 c20 -22
37 -50 37 -61 0 -11 7 -23 15 -26 18 -7 21 -45 3 -41 -26 5 -17 -35 22 -107
38 -70 44 -96 19 -96 -5 0 -9 7 -9 15 0 8 -8 27 -17 43 l-18 29 -2 -84 c-1
-49 2 -81 8 -78 5 4 9 14 9 24 0 14 6 17 25 13 30 -5 37 -15 29 -37 -5 -13 -8
-14 -15 -3 -6 10 -11 9 -23 -7 -9 -11 -16 -16 -16 -11 0 4 -11 1 -25 -8 l-25
-16 0 40 c0 30 -4 40 -16 40 -12 0 -15 -6 -10 -26 5 -17 3 -23 -4 -19 -5 3
-10 13 -10 21 0 16 -55 74 -70 74 -5 0 -13 12 -16 28 -4 15 -22 63 -40 108
-43 109 -44 202 -2 221 12 5 42 8 67 7 39 -3 52 -9 84 -43z m-443 5 c0 -18 -9
-29 -32 -40 -38 -19 -38 -19 -38 -3 0 7 14 21 30 30 17 10 30 22 30 28 0 5 2
9 5 9 3 0 5 -11 5 -24z m232 -28 c-7 -7 -12 -8 -12 -2 0 14 12 26 19 19 2 -3
-1 -11 -7 -17z m398 -9 c0 -5 -4 -9 -10 -9 -5 0 -10 7 -10 16 0 8 5 12 10 9 6
-3 10 -10 10 -16z m-537 -94 c-9 -162 30 -391 91 -528 l25 -57 -150 0 c-82 0
-149 3 -149 7 0 3 8 15 18 26 12 14 17 36 17 86 0 107 -49 155 -154 150 -105
-5 -189 -93 -178 -186 2 -24 13 -53 22 -63 18 -20 17 -20 -77 -20 l-95 0 -27
39 c-31 44 -74 154 -100 256 -10 39 -20 77 -23 85 -4 8 -5 22 -4 30 4 22 42
60 61 60 9 0 20 3 24 7 4 4 17 8 29 10 12 2 74 19 137 39 63 19 122 37 130 39
8 2 15 4 15 5 0 1 7 3 15 5 8 3 96 29 195 59 99 30 181 55 182 55 1 1 -1 -46
-4 -104z m41 90 c-4 -8 -8 -15 -10 -15 -2 0 -4 7 -4 15 0 8 4 15 10 15 5 0 7
-7 4 -15z m-343 -8 c-1 -4 -1 -13 -1 -21 0 -8 -22 -25 -50 -39 -34 -17 -50
-21 -50 -12 0 7 6 18 14 25 8 6 12 18 9 26 -4 12 1 14 26 9 24 -4 31 -2 31 11
0 8 5 14 11 12 6 -2 10 -7 10 -11z m-746 -67 c-9 -17 -14 -37 -12 -44 3 -7 -1
-13 -8 -13 -7 0 -10 8 -7 20 3 13 1 18 -5 14 -6 -4 -13 0 -17 8 -5 15 14 17
25 2 3 -5 12 6 19 23 7 17 15 29 17 26 2 -2 -3 -18 -12 -36z m1082 8 c-3 -8
-6 -5 -6 6 -1 11 2 17 5 13 3 -3 4 -12 1 -19z m-727 -38 c0 -5 -5 -10 -11 -10
-5 0 -7 5 -4 10 3 6 8 10 11 10 2 0 4 -4 4 -10z m724 -75 c5 -22 4 -26 -4 -15
-5 8 -10 24 -10 34 0 26 6 18 14 -19z m11 -129 c1 -37 1 -42 -2 -13 -2 26 -7
47 -11 47 -4 0 -8 14 -8 31 -1 26 1 28 9 14 5 -10 11 -45 12 -79z m52 42 c-3
-8 -6 -5 -6 6 -1 11 2 17 5 13 3 -3 4 -12 1 -19z m437 -34 c3 -8 2 -12 -4 -9
-6 3 -10 10 -10 16 0 14 7 11 14 -7z m-445 -187 c1 -15 5 -35 10 -45 13 -23
61 -133 61 -139 0 -17 -25 18 -46 63 -23 49 -65 195 -63 219 1 21 38 -71 38
-98z m201 56 c0 -18 -17 -16 -24 3 -8 22 4 40 15 23 5 -8 9 -20 9 -26z m210
11 c0 -6 -9 -19 -20 -29 -24 -22 -26 -35 -5 -35 8 0 15 5 15 10 0 6 8 10 19
10 12 0 20 -9 24 -27 6 -34 -1 -47 -18 -33 -7 6 -17 9 -21 8 -11 -3 -47 22
-58 39 -11 20 19 69 43 69 12 0 21 -5 21 -12z m-96 -25 c12 18 24 12 19 -9 -3
-11 -8 -20 -12 -20 -11 0 -31 23 -31 35 0 5 4 4 9 -4 6 -9 11 -10 15 -2z
m-691 -13 c7 3 3 -2 -7 -10 -23 -19 -31 -14 -21 11 5 12 9 14 12 5 3 -6 10
-10 16 -6z m-50 -37 c-4 -4 -15 -4 -23 1 -13 8 -12 11 5 24 18 13 20 13 23 -1
2 -8 0 -19 -5 -24z m130 -11 c21 -34 22 -60 2 -98 -22 -42 -27 -37 -11 8 13
36 12 42 -10 86 -13 26 -24 50 -24 52 0 8 24 -19 43 -48z m-188 -28 c-16 -31
-12 -71 9 -100 6 -8 1 -6 -12 4 -33 28 -26 126 9 126 5 0 3 -13 -6 -30z m165
14 c0 -1 -3 -10 -6 -18 -5 -13 -9 -14 -20 -5 -16 13 -11 26 11 26 8 0 15 -1
15 -3z m1290 -36 c0 -4 -9 -8 -20 -8 -20 0 -28 29 -13 44 7 7 33 -21 33 -36z
m-55 -36 c-3 -4 -10 -1 -14 7 -7 10 -10 9 -14 -3 -9 -23 -27 -20 -27 4 0 11 5
20 11 20 6 0 18 8 27 17 16 16 17 15 20 -11 2 -15 1 -31 -3 -34z m-1885 44 c0
-3 -4 -8 -10 -11 -5 -3 -10 -1 -10 4 0 6 5 11 10 11 6 0 10 -2 10 -4z m1353
-96 c7 0 21 -7 31 -15 18 -14 13 -15 -52 -15 l-72 0 -25 50 c-40 79 -32 85 41
30 36 -28 70 -50 77 -50z m-833 63 c0 -22 -2 -25 -10 -13 -13 20 -13 40 0 40
6 0 10 -12 10 -27z m117 -15 c-3 -7 -5 -2 -5 12 0 14 2 19 5 13 2 -7 2 -19 0
-25z m944 -1 c-10 -9 -11 -8 -5 6 3 10 9 15 12 12 3 -3 0 -11 -7 -18z m31 -19
c-6 -6 -12 -6 -16 1 -4 6 -2 11 3 11 6 0 12 8 12 18 1 15 2 15 6 -2 3 -10 0
-23 -5 -28z m174 -17 c-15 -14 -18 -14 -26 -1 -15 23 -12 30 10 30 11 0 21 6
21 13 1 6 3 4 6 -7 3 -10 -2 -26 -11 -35z m-36 2 c0 -13 -17 -35 -25 -35 -18
0 -24 27 -7 34 23 9 32 9 32 1z m-1130 -25 c0 -13 -20 -19 -21 -6 0 10 -2 10
-6 1 -2 -7 -9 -13 -14 -13 -4 0 -6 6 -3 14 6 15 44 18 44 4z m1070 -8 c0 -5
-12 -10 -27 -9 -25 0 -26 1 -8 9 27 12 35 12 35 0z m-3095 -515 c21 -97 42
-170 46 -163 3 7 21 76 38 153 18 77 35 150 38 163 5 21 10 22 94 22 l89 0 0
-450 0 -450 -80 0 -80 0 -2 197 -3 198 -43 -155 c-24 -85 -47 -159 -51 -163
-5 -4 -27 61 -50 145 -23 84 -44 158 -46 163 -2 6 -4 -79 -4 -187 l-1 -198
-80 0 -80 0 0 450 0 450 88 0 88 0 39 -175z m695 172 c0 -2 32 -200 70 -440
39 -240 70 -441 70 -447 0 -6 -33 -10 -85 -10 l-85 0 0 33 c0 68 -8 77 -60 77
-52 0 -60 -9 -60 -77 l0 -33 -85 0 c-47 0 -85 4 -85 9 0 5 32 205 70 445 39
239 70 437 70 440 0 3 41 6 90 6 50 0 90 -1 90 -3z m593 -23 c35 -35 39 -70
35 -328 l-3 -218 -33 -28 -33 -27 39 -134 40 -134 -76 -3 c-41 -2 -80 -1 -87
2 -6 2 -26 62 -45 132 -18 71 -37 133 -41 138 -5 6 -9 -52 -9 -132 l0 -142
-85 0 -85 0 0 450 0 450 179 0 178 0 26 -26z m297 -164 c0 -104 4 -190 9 -190
7 0 41 146 79 335 l8 40 87 3 c87 3 88 3 82 -20 -3 -13 -25 -106 -48 -208
l-43 -184 43 -221 c23 -121 45 -230 48 -243 6 -23 5 -23 -87 -20 l-93 3 -29
183 c-21 127 -34 182 -43 182 -10 0 -13 -41 -13 -185 l0 -185 -85 0 -85 0 0
450 0 450 85 0 85 0 0 -190z m669 121 c17 -108 23 -101 -74 -101 l-85 0 0
-105 0 -105 65 0 65 0 0 -80 0 -80 -65 0 -65 0 0 -95 0 -95 86 0 c76 0 85 -2
81 -17 -3 -10 -8 -36 -11 -58 -4 -22 -9 -52 -12 -67 l-6 -28 -154 0 -154 0 0
450 0 450 159 0 158 0 12 -69z m431 27 c6 -24 15 -59 21 -78 5 -19 9 -38 9
-42 0 -5 -25 -8 -55 -8 l-55 0 0 -365 0 -365 -85 0 -85 0 0 365 0 365 -50 0
c-55 0 -54 -1 -41 50 6 19 15 54 21 78 l11 42 149 0 149 0 11 -42z m429 -27
c17 -108 23 -101 -74 -101 l-85 0 0 -105 0 -105 65 0 65 0 0 -80 0 -80 -65 0
-65 0 0 -95 0 -95 86 0 c76 0 85 -2 81 -17 -3 -10 -8 -36 -11 -58 -4 -22 -9
-52 -12 -67 l-6 -28 -154 0 -154 0 0 450 0 450 159 0 158 0 12 -69z m261 -301
l0 -370 40 0 40 0 0 370 0 370 85 0 86 0 -3 -417 c-3 -449 -3 -448 -55 -472
-13 -6 -82 -11 -154 -11 -148 0 -180 10 -198 61 -7 21 -11 166 -11 435 l0 404
85 0 85 0 0 -370z m723 344 c35 -35 39 -70 35 -328 l-3 -218 -33 -28 -33 -27
39 -134 40 -134 -76 -3 c-41 -2 -80 -1 -87 2 -6 2 -26 62 -45 132 -18 71 -37
133 -41 138 -5 6 -9 -52 -9 -132 l0 -142 -85 0 -85 0 0 450 0 450 179 0 178 0
26 -26z"/>
<path d="M3568 9085 l15 -55 -27 -25 c-20 -19 -26 -32 -22 -48 3 -12 6 -32 6
-44 0 -20 3 -21 32 -12 18 5 34 9 35 9 1 0 0 -7 -3 -15 -4 -10 0 -15 11 -15
15 0 17 7 11 63 -15 136 -15 151 -5 164 14 16 5 17 -22 2 -17 -9 -21 -7 -26
10 -3 12 -9 21 -13 21 -4 0 0 -25 8 -55z m17 -135 c-3 -5 -10 -10 -16 -10 -5
0 -9 5 -9 10 0 6 7 10 16 10 8 0 12 -4 9 -10z"/>
<path d="M3176 9096 c-22 -7 -42 -18 -44 -24 -5 -16 9 -15 46 4 18 8 36 13 42
9 5 -3 10 1 10 9 0 18 -1 18 -54 2z"/>
<path d="M3080 9054 c0 -8 5 -12 10 -9 6 3 10 10 10 16 0 5 -4 9 -10 9 -5 0
-10 -7 -10 -16z"/>
<path d="M2976 9034 c-33 -13 -75 -27 -93 -30 -33 -6 -50 -20 -39 -31 3 -3 13
-2 23 2 10 5 22 7 27 6 4 -1 13 3 20 8 6 5 38 16 70 25 62 16 110 47 71 45
-11 0 -47 -12 -79 -25z"/>
<path d="M3167 8983 c-4 -3 -7 -11 -7 -17 0 -6 5 -5 12 2 6 6 9 14 7 17 -3 3
-9 2 -12 -2z"/>
<path d="M2783 8973 c-13 -2 -23 -11 -23 -20 0 -11 3 -13 13 -5 6 6 16 10 22
10 5 0 11 5 13 11 2 6 2 10 0 10 -1 -1 -13 -4 -25 -6z"/>
<path d="M3106 8972 c-8 -13 10 -52 24 -52 14 0 12 23 -3 45 -10 12 -16 14
-21 7z"/>
<path d="M2704 8948 c-3 -5 -10 -6 -15 -2 -5 3 -17 0 -25 -7 -8 -6 -29 -14
-47 -16 -36 -4 -71 -10 -74 -13 -2 -2 -8 -3 -15 -4 -6 0 -13 -7 -15 -13 -5
-15 23 -18 32 -3 3 5 11 7 18 4 7 -2 32 2 55 10 23 8 42 14 42 12 0 -9 84 22
88 32 4 12 -37 12 -44 0z"/>
<path d="M3060 8951 c0 -6 4 -13 10 -16 6 -3 7 1 4 9 -7 18 -14 21 -14 7z"/>
<path d="M3176 8938 c3 -4 9 -8 15 -8 5 0 9 4 9 8 0 5 -7 9 -15 9 -8 0 -12 -4
-9 -9z"/>
<path d="M3020 8920 c0 -8 5 -22 10 -30 9 -13 10 -13 10 0 0 8 -5 22 -10 30
-9 13 -10 13 -10 0z"/>
<path d="M3070 8900 c0 -5 5 -10 10 -10 6 0 10 5 10 10 0 6 -4 10 -10 10 -5 0
-10 -4 -10 -10z"/>
<path d="M2880 8885 c0 -8 2 -15 4 -15 2 0 6 7 10 15 3 8 1 15 -4 15 -6 0 -10
-7 -10 -15z"/>
<path d="M2841 8868 c0 -7 4 -22 9 -33 8 -18 9 -17 9 7 1 15 -3 30 -9 33 -5 3
-10 0 -9 -7z"/>
<path d="M2960 8864 c0 -8 5 -12 10 -9 6 3 10 10 10 16 0 5 -4 9 -10 9 -5 0
-10 -7 -10 -16z"/>
<path d="M2776 8862 c-3 -6 -1 -14 5 -17 15 -10 25 3 12 16 -7 7 -13 7 -17 1z"/>
<path d="M2906 8855 c4 -8 8 -15 10 -15 2 0 4 7 4 15 0 8 -4 15 -10 15 -5 0
-7 -7 -4 -15z"/>
<path d="M2703 8835 c-16 -18 -16 -30 0 -43 14 -12 46 2 34 15 -5 4 -13 1 -18
-7 -8 -11 -9 -7 -5 18 6 36 6 37 -11 17z"/>
<path d="M2610 8801 c0 -32 15 -50 23 -29 4 10 6 10 6 1 2 -24 21 -13 21 12 0
14 -8 29 -19 35 -28 15 -31 13 -31 -19z"/>
<path d="M2765 8811 c-6 -11 9 -23 19 -14 9 9 7 23 -3 23 -6 0 -12 -4 -16 -9z"/>
<path d="M2550 8780 c0 -23 4 -30 20 -30 22 0 25 12 10 41 -16 28 -30 23 -30
-11z"/>
<path d="M2673 8715 c4 -8 2 -17 -3 -20 -15 -9 -12 -35 3 -30 15 6 20 65 6 65
-6 0 -9 -7 -6 -15z"/>
<path d="M2587 8714 c-3 -3 -1 -19 5 -36 8 -22 13 -26 19 -16 7 11 9 10 9 -1
0 -11 3 -12 11 -4 17 17 2 63 -20 63 -10 0 -20 -3 -24 -6z"/>
<path d="M1567 7720 c-6 -24 -27 -191 -27 -217 0 -8 13 -13 30 -13 35 0 35 -1
16 155 -9 68 -15 92 -19 75z"/>
<path d="M2040 7820 l0 -150 40 0 40 0 0 150 0 150 -40 0 -40 0 0 -150z"/>
<path d="M4850 7820 l0 -150 40 0 40 0 0 150 0 150 -40 0 -40 0 0 -150z"/>
<path d="M4063 9518 c-15 -20 -24 -50 -13 -43 6 3 10 0 11 -7 1 -7 5 3 9 22 9
39 8 47 -7 28z"/>
<path d="M4220 9474 c0 -8 5 -12 10 -9 6 3 10 10 10 16 0 5 -4 9 -10 9 -5 0
-10 -7 -10 -16z"/>
<path d="M4195 9450 c-4 -7 -15 -10 -25 -7 -12 3 -22 -4 -29 -20 -9 -19 -8
-23 1 -16 7 4 19 8 27 10 18 2 47 31 39 38 -3 4 -9 1 -13 -5z"/>
<path d="M4296 9433 c-6 -14 -5 -15 5 -6 7 7 10 15 7 18 -3 3 -9 -2 -12 -12z"/>
<path d="M4101 9406 c-7 -8 -18 -13 -25 -10 -7 3 -19 -2 -26 -11 -7 -8 -19
-15 -26 -15 -8 0 -14 -6 -14 -13 0 -24 13 -27 27 -7 8 11 22 20 32 20 19 0 58
36 49 45 -3 3 -11 -1 -17 -9z"/>
<path d="M4172 9369 c2 -6 8 -10 13 -10 5 0 11 4 13 10 2 6 -4 11 -13 11 -9 0
-15 -5 -13 -11z"/>
<path d="M4131 9358 c-1 -20 -27 -24 -34 -5 -2 6 -4 0 -3 -15 0 -16 6 -28 13
-28 15 0 36 37 29 53 -2 7 -5 4 -5 -5z"/>
<path d="M4225 9350 c-3 -5 -1 -10 4 -10 6 0 11 5 11 10 0 6 -2 10 -4 10 -3 0
-8 -4 -11 -10z"/>
<path d="M4028 9310 c-17 -31 -42 -42 -32 -15 5 11 0 15 -17 14 -13 0 -18 -3
-11 -6 16 -6 15 -28 -3 -43 -12 -10 -16 -8 -25 14 -12 33 -24 34 -16 2 3 -14
0 -28 -8 -35 -11 -9 -16 -5 -25 21 -9 24 -14 29 -23 20 -9 -9 -9 -15 0 -24 7
-7 12 -18 12 -25 0 -11 -5 -11 -20 -3 -11 6 -20 7 -20 3 0 -4 -7 2 -15 13 -15
18 -15 18 -9 -8 4 -18 2 -28 -5 -28 -6 0 -11 -4 -11 -10 0 -5 9 -10 20 -10 11
0 20 5 20 11 0 6 7 9 15 6 8 -4 17 -2 21 4 3 6 12 8 19 5 7 -2 17 0 23 6 7 7
14 4 21 -10 12 -23 -5 -44 -19 -22 -5 8 -9 5 -13 -9 -3 -12 -1 -19 4 -15 5 3
9 0 9 -5 0 -7 7 -7 21 1 16 10 19 20 14 45 -6 36 7 50 26 27 10 -12 10 -20 1
-35 -17 -27 -15 -31 8 -17 14 9 20 24 20 49 0 35 14 57 35 57 6 0 16 -4 23
-10 9 -8 12 -4 12 16 0 28 -9 33 -28 14 -7 -7 -12 -8 -12 -2 0 6 5 15 12 22 7
7 8 12 3 12 -6 0 -18 -14 -27 -30z m-28 -71 c0 -6 -4 -7 -10 -4 -5 3 -10 11
-10 16 0 6 5 7 10 4 6 -3 10 -11 10 -16z"/>
<path d="M4161 9324 c0 -11 3 -14 6 -6 3 7 2 16 -1 19 -3 4 -6 -2 -5 -13z"/>
<path d="M4668 9320 c-4 -14 -8 -38 -8 -54 0 -16 -5 -43 -11 -60 -10 -27 -8
-36 12 -68 13 -21 27 -37 32 -38 4 0 7 36 7 81 0 48 -4 78 -9 74 -6 -3 -11 16
-13 42 -2 39 -4 43 -10 23z"/>
<path d="M4085 9257 c-13 -20 -21 -25 -30 -17 -9 8 -14 5 -18 -10 -4 -17 -2
-20 15 -14 27 8 60 42 55 57 -2 6 -12 -1 -22 -16z"/>
<path d="M4135 9270 c-3 -5 -1 -10 4 -10 6 0 11 5 11 10 0 6 -2 10 -4 10 -3 0
-8 -4 -11 -10z"/>
<path d="M3791 9244 c0 -11 3 -14 6 -6 3 7 2 16 -1 19 -3 4 -6 -2 -5 -13z"/>
<path d="M4335 9218 c41 -83 49 -96 61 -91 16 6 9 26 -28 81 -34 50 -55 56
-33 10z"/>
<path d="M4239 9229 c-11 -6 -11 -11 -2 -20 8 -8 9 -18 2 -31 -11 -20 1 -24
18 -7 9 9 16 8 27 -4 9 -9 16 -20 16 -26 0 -5 11 -22 25 -37 14 -15 25 -35 25
-45 0 -10 4 -20 9 -24 14 -8 25 35 12 48 -6 6 -11 17 -11 24 0 12 -17 36 -46
67 -6 7 -14 21 -18 33 -7 23 -37 35 -57 22z"/>
<path d="M4177 9178 c-4 -14 6 -44 28 -84 18 -34 30 -66 27 -70 -4 -4 -2 -4 5
0 6 3 15 0 20 -8 4 -8 19 -16 33 -18 21 -2 26 2 28 24 3 21 0 26 -11 22 -16
-6 -74 67 -98 124 -16 38 -25 40 -32 10z"/>
<path d="M4094 9166 c-3 -7 18 -48 46 -90 28 -42 56 -88 62 -101 13 -29 44
-36 33 -7 -4 9 -12 30 -18 47 -6 16 -19 39 -30 50 -11 11 -33 41 -49 68 -32
51 -36 54 -44 33z"/>
<path d="M4630 9041 c0 -29 15 -33 16 -5 1 13 -2 24 -7 24 -5 0 -9 -9 -9 -19z"/>
<path d="M3870 9041 c0 -6 4 -12 10 -16 5 -3 23 -34 40 -68 35 -69 53 -93 42
-56 -11 37 -74 149 -83 149 -5 0 -9 -4 -9 -9z"/>
<path d="M3865 8990 c-4 -7 0 -19 9 -28 13 -14 16 -14 16 -2 0 25 -16 44 -25
30z"/>
<path d="M4666 8955 c-3 -8 -1 -15 4 -15 6 0 10 7 10 15 0 8 -2 15 -4 15 -2 0
-6 -7 -10 -15z"/>
<path d="M4704 8948 c-17 -28 -54 -103 -54 -111 0 -25 25 6 46 58 22 54 27 83
8 53z"/>
<path d="M4594 8866 c-5 -13 -3 -21 4 -24 19 -6 14 -49 -6 -64 -39 -27 -112
-93 -112 -100 0 -5 7 -8 15 -8 8 0 15 5 15 11 0 5 5 7 10 4 6 -3 10 -1 10 4 0
6 5 11 10 11 13 0 45 32 53 53 3 9 13 17 21 17 28 0 38 35 17 61 -10 13 -20
31 -23 39 -5 12 -7 11 -14 -4z"/>
<path d="M4140 8806 c0 -16 18 -31 27 -22 3 3 -2 12 -11 21 -14 14 -16 14 -16
1z"/>
<path d="M4540 8813 c0 -4 5 -15 10 -23 8 -13 10 -13 10 2 0 9 -4 20 -10 23
-5 3 -10 3 -10 -2z"/>
<path d="M4497 8780 c-16 -19 -16 -22 -1 -37 16 -16 16 -16 10 4 -4 14 -2 23
9 27 8 3 15 10 15 16 0 16 -14 12 -33 -10z"/>
<path d="M2086 8765 c-9 -26 -7 -32 5 -12 6 10 9 21 6 23 -2 3 -7 -2 -11 -11z"/>
<path d="M5450 8720 c0 -27 2 -50 5 -50 8 0 24 72 18 86 -11 30 -23 12 -23
-36z"/>
<path d="M4451 8744 c0 -11 3 -14 6 -6 3 7 2 16 -1 19 -3 4 -6 -2 -5 -13z"/>
<path d="M8420 8751 c0 -5 5 -13 10 -16 6 -3 10 -2 10 4 0 5 -4 13 -10 16 -5
3 -10 2 -10 -4z"/>
<path d="M4387 8704 c-40 -22 -23 -37 18 -16 35 17 46 32 23 32 -7 -1 -26 -8
-41 -16z"/>
<path d="M2060 8694 c0 -8 5 -12 10 -9 6 4 8 11 5 16 -9 14 -15 11 -15 -7z"/>
<path d="M2357 8704 c-9 -9 4 -35 14 -28 5 3 9 12 9 20 0 14 -12 19 -23 8z"/>
<path d="M2047 8647 c-3 -8 1 -14 8 -14 7 0 11 6 8 14 -3 7 -6 13 -8 13 -2 0
-5 -6 -8 -13z"/>
<path d="M2107 8603 c-10 -10 -8 -65 2 -59 12 8 20 42 12 55 -4 6 -10 8 -14 4z"/>
<path d="M2030 8569 c0 -5 5 -7 10 -4 6 3 10 8 10 11 0 2 -4 4 -10 4 -5 0 -10
-5 -10 -11z"/>
<path d="M5480 8558 c0 -13 5 -30 10 -38 7 -11 10 -7 10 17 0 17 -4 35 -10 38
-6 3 -10 -4 -10 -17z"/>
<path d="M400 7540 l0 -780 2410 0 2410 0 0 45 0 45 -37 2 c-87 4 -964 6
-2782 7 l-1934 1 8 730 7 730 -41 0 -41 0 0 -780z"/>
<path d="M12258 7779 c-21 -11 -38 -24 -38 -30 0 -5 -5 -7 -10 -4 -6 3 -13 -1
-16 -9 -3 -9 -9 -14 -13 -11 -4 2 -19 -7 -34 -21 -15 -14 -31 -22 -36 -19 -5
3 -12 -4 -16 -14 -7 -23 10 -61 27 -61 22 0 -6 -16 -48 -28 -56 -16 -63 -15
-57 8 4 14 11 19 22 15 20 -6 44 29 36 55 -5 17 -8 17 -33 4 -15 -8 -37 -14
-49 -14 -12 0 -25 -4 -28 -10 -3 -5 -17 -10 -29 -10 -13 0 -29 -7 -36 -15 -7
-8 -19 -15 -27 -15 -7 0 -16 -6 -19 -14 -3 -8 -13 -12 -26 -8 -22 5 -22 -2 -2
-67 6 -20 4 -23 -8 -18 -9 3 -19 3 -23 -1 -4 -4 -16 -7 -28 -7 -12 -1 -28 -4
-34 -8 -19 -12 -16 4 7 38 11 16 27 30 37 30 10 0 19 8 21 18 3 15 0 18 -17
12 -12 -3 -38 -8 -58 -10 -21 -2 -49 -8 -63 -13 -14 -5 -31 -7 -37 -5 -7 3
-17 -7 -22 -20 -7 -19 -15 -24 -30 -20 -23 6 -19 23 5 23 8 0 14 4 14 9 0 5
-37 9 -82 9 -81 -1 -298 11 -308 17 -3 2 -40 6 -83 10 -43 4 -110 16 -150 26
-40 11 -83 22 -97 24 -14 3 -38 10 -55 15 -60 17 -113 23 -238 25 -101 2 -130
0 -134 -11 -4 -10 -10 -11 -24 -3 -26 14 -26 -12 1 -36 11 -10 20 -13 20 -7 0
7 17 10 41 9 34 -2 43 1 47 16 6 24 22 3 22 -30 0 -22 -4 -24 -55 -27 -11 -1
-21 -5 -23 -11 -1 -6 40 -11 104 -13 l106 -3 -7 -27 c-4 -15 -9 -77 -12 -137
-4 -87 -2 -117 11 -145 15 -35 16 -34 12 48 -6 125 9 214 45 267 36 53 38 54
75 55 53 1 79 -5 98 -24 15 -15 20 -16 27 -5 6 11 9 10 15 -4 3 -9 16 -17 29
-17 13 0 58 -25 101 -56 86 -62 104 -71 104 -56 0 6 10 9 22 7 41 -8 244 -20
333 -19 97 1 230 15 230 24 0 1 14 4 30 6 101 15 266 70 395 131 77 38 119 46
144 28 7 -6 24 -35 36 -65 12 -30 33 -77 46 -105 12 -27 35 -79 50 -115 15
-36 47 -109 70 -162 24 -54 44 -100 44 -103 0 -7 29 -73 75 -170 39 -82 37
-113 -7 -150 -48 -40 -200 -106 -393 -169 -130 -43 -313 -72 -508 -81 -38 -2
-70 -5 -72 -7 -2 -2 -39 -1 -82 2 -71 5 -78 7 -74 25 10 60 7 235 -6 285 -25
98 -47 165 -60 185 -13 19 -13 19 -13 -1 0 -11 4 -24 9 -29 20 -24 62 -240 57
-295 -1 -14 -6 -51 -10 -83 l-8 -58 -34 35 c-34 35 -47 59 -19 36 37 -30 72
68 41 115 -18 28 -20 39 -6 30 15 -9 12 7 -5 29 -8 11 -15 29 -15 40 0 33 -46
123 -89 174 -22 26 -59 88 -81 137 -23 50 -47 101 -53 114 -24 49 -93 139
-137 177 l-44 39 22 -35 c12 -19 36 -63 53 -97 17 -35 35 -65 40 -69 5 -3 9
-12 9 -20 0 -11 -6 -13 -20 -9 -15 5 -20 2 -20 -13 0 -22 44 -120 74 -165 21
-31 17 -42 -13 -32 -11 3 -18 12 -15 20 7 18 -11 28 -24 12 -9 -11 -22 -76
-25 -125 -2 -21 -3 -21 -15 -5 -21 29 -26 64 -11 74 11 6 11 11 2 20 -9 9 -16
9 -29 -1 -16 -14 -15 -50 2 -94 5 -14 4 -17 -5 -12 -20 13 -33 58 -32 109 1
48 -18 91 -59 127 -9 8 -27 47 -39 85 -13 39 -29 79 -35 90 -7 11 -19 41 -26
67 -8 26 -17 45 -21 42 -13 -8 -33 57 -22 74 13 21 62 23 104 4 19 -8 37 -15
40 -14 4 1 15 -8 24 -18 21 -23 35 -26 35 -7 0 43 -144 106 -195 87 -11 -5
-32 -21 -48 -37 -25 -27 -30 -42 -41 -131 -2 -13 3 -42 11 -65 11 -30 13 -61
8 -110 -10 -102 1 -149 51 -222 24 -35 44 -67 44 -70 0 -4 11 -21 24 -38 13
-18 26 -45 30 -60 4 -16 20 -43 37 -60 45 -49 99 -118 99 -128 0 -5 6 -9 13
-9 6 -1 19 -17 29 -36 16 -35 16 -35 -3 -18 -33 29 -21 0 31 -79 52 -79 53
-80 150 -92 25 -3 52 -8 61 -11 9 -2 33 -7 54 -9 20 -3 41 -8 46 -11 11 -6
346 -6 379 0 14 3 48 7 75 10 60 5 307 46 317 53 9 5 39 12 81 20 16 3 31 12
34 20 4 11 8 12 13 3 6 -9 16 -9 41 2 19 8 59 23 89 33 30 10 89 34 130 54 41
19 77 36 80 36 16 3 79 37 99 53 l25 20 -32 69 c-18 38 -32 73 -32 77 0 4 -18
46 -41 94 -23 48 -50 110 -61 137 -34 88 -155 364 -211 485 -19 41 -42 91 -50
111 -33 79 -71 159 -77 158 -3 -1 -22 -10 -42 -20z m-8 -82 c0 -16 -12 -31
-38 -49 l-39 -25 0 29 c0 32 1 32 28 17 17 -9 21 -6 30 20 13 37 19 39 19 8z
m-90 -79 c0 -5 -4 -8 -10 -8 -5 0 -10 10 -10 23 0 18 2 19 10 7 5 -8 10 -18
10 -22z m-1485 12 c3 -5 1 -10 -4 -10 -6 0 -11 5 -11 10 0 6 2 10 4 10 3 0 8
-4 11 -10z m1318 -40 c3 -11 1 -18 -4 -14 -5 3 -9 12 -9 20 0 20 7 17 13 -6z
m-23 -18 c-1 -16 -18 -32 -52 -46 l-36 -15 2 32 c1 28 5 32 28 32 15 1 30 4
34 8 8 7 24 0 24 -11z m-110 -22 c0 -5 -5 -10 -11 -10 -5 0 -7 5 -4 10 3 6 8
10 11 10 2 0 4 -4 4 -10z m-140 -38 c0 -15 -2 -15 -10 -2 -13 20 -13 33 0 25
6 -3 10 -14 10 -23z m-32 -10 c28 -28 24 -34 -20 -37 -18 -2 -43 -6 -55 -9
-26 -6 -42 12 -22 25 8 5 17 3 21 -4 8 -13 12 2 9 33 -2 24 40 19 67 -8z m175
13 c-3 -9 -8 -14 -10 -11 -3 3 -2 9 2 15 9 16 15 13 8 -4z m-962 -337 c16 -29
-5 -21 -29 11 -11 16 -18 32 -14 35 6 7 24 -12 43 -46z m304 -27 c-3 -6 -11
-8 -17 -5 -6 4 -5 9 3 15 16 10 23 4 14 -10z m-355 -46 c0 -8 -4 -15 -10 -15
-5 0 -10 7 -10 15 0 8 5 15 10 15 6 0 10 -7 10 -15z m420 -65 c7 0 10 -7 6
-15 -3 -8 1 -30 9 -49 26 -61 16 -63 -14 -4 -15 32 -33 64 -39 71 -7 8 -9 17
-5 21 4 4 13 0 19 -8 6 -9 17 -16 24 -16z m-242 2 c2 -7 -3 -12 -12 -12 -9 0
-16 7 -16 16 0 17 22 14 28 -4z m-138 -17 c0 -8 -4 -15 -10 -15 -5 0 -10 7
-10 15 0 8 5 15 10 15 6 0 10 -7 10 -15z m112 -22 c10 -9 18 -20 18 -25 0 -14
-22 -9 -36 10 -25 33 -13 44 18 15z m221 -52 c32 -29 35 -45 7 -38 -32 8 -32
-8 0 -26 19 -12 27 -23 23 -36 -3 -11 4 -27 15 -37 10 -11 22 -28 26 -39 6
-16 9 -17 16 -5 13 22 23 5 11 -18 -12 -22 -49 -20 -58 4 -2 7 -10 11 -16 9
-7 -3 -23 12 -37 31 -14 20 -35 47 -48 60 -15 14 -22 31 -20 46 4 23 4 22 18
-5 l14 -28 13 26 c16 29 10 45 -17 45 -26 0 -33 15 -20 40 12 23 17 22 73 -29z
m-23 -257 c62 -68 119 -124 127 -124 7 0 13 -5 13 -11 0 -6 9 -9 20 -6 21 5
29 -16 10 -28 -5 -3 -10 -14 -10 -23 0 -13 2 -14 9 -4 6 10 10 10 20 -2 14
-17 -1 -31 -24 -22 -10 4 -12 -3 -8 -30 5 -28 2 -34 -12 -34 -15 0 -17 6 -12
37 6 33 3 40 -31 70 -55 49 -72 45 -26 -7 15 -16 28 -43 29 -60 2 -27 1 -28
-18 -19 -16 9 -17 13 -6 20 11 6 10 11 -4 26 -43 44 -78 99 -74 115 5 18 -28
69 -42 65 -11 -3 -61 58 -61 74 0 8 -9 29 -20 47 -11 18 -20 47 -19 65 l1 32
12 -28 c7 -16 64 -84 126 -153z m-39 99 c13 -16 12 -17 -3 -4 -10 7 -18 15
-18 17 0 8 8 3 21 -13z m1539 -109 c0 -11 -6 -15 -20 -11 -11 3 -23 1 -26 -5
-4 -6 -10 -5 -15 3 -11 19 -5 24 30 27 23 2 31 -2 31 -14z m-85 -25 c8 -23 1
-34 -14 -24 -13 8 -15 45 -2 45 5 0 13 -9 16 -21z m-37 -27 c2 -14 -2 -22 -11
-22 -15 0 -29 34 -19 45 11 11 27 -2 30 -23z m-51 -17 c3 -9 3 -19 -1 -22 -7
-7 -36 16 -36 28 0 15 30 10 37 -6z m-87 -25 c4 -25 0 -40 -9 -40 -12 0 -23
48 -15 61 7 13 21 0 24 -21z m-57 -52 c-2 -5 -11 -8 -19 -8 -14 0 -20 41 -7
53 7 8 32 -34 26 -45z m97 42 c0 -5 -5 -10 -11 -10 -5 0 -7 5 -4 10 3 6 8 10
11 10 2 0 4 -4 4 -10z m-155 -57 c-7 -17 -8 -17 -15 2 -5 11 -9 27 -9 35 -1
12 2 11 15 -2 11 -11 14 -23 9 -35z m-35 -4 c0 -21 -15 -26 -26 -8 -5 8 -10 6
-16 -5 -12 -20 -28 -12 -28 15 0 16 5 19 19 14 11 -3 22 -1 26 5 9 15 25 2 25
-21z m-82 -4 c12 -25 1 -42 -18 -30 -12 7 -13 55 -2 55 5 0 14 -11 20 -25z
m-138 -9 c0 -3 -4 -8 -10 -11 -5 -3 -10 -1 -10 4 0 6 5 11 10 11 6 0 10 -2 10
-4z m86 -8 c3 -4 4 -15 0 -24 -6 -16 -8 -15 -21 2 -13 17 -14 17 -15 2 0 -28
-30 -22 -30 6 0 20 5 23 29 22 16 -1 33 -4 37 -8z m-916 -8 c0 -5 -4 -10 -10
-10 -5 0 -10 5 -10 10 0 6 5 10 10 10 6 0 10 -4 10 -10z m806 -5 c4 -8 10 -12
15 -9 5 3 9 0 9 -6 0 -6 -7 -13 -16 -17 -16 -6 -34 12 -34 35 0 17 19 15 26
-3z m-42 -11 c11 -28 7 -34 -24 -34 -23 0 -30 5 -30 19 0 17 10 24 41 30 4 0
10 -6 13 -15z m-66 -17 c5 -23 -38 -40 -56 -23 -19 19 -5 42 26 41 17 0 28 -6
30 -18z m-459 -3 c21 -15 25 -15 32 -2 11 20 61 12 57 -9 -2 -8 -5 -13 -8 -11
-3 2 -17 -5 -32 -14 -29 -19 -44 -19 -77 4 -15 10 -21 23 -18 32 8 20 17 20
46 0z m246 6 c10 8 15 6 20 -10 8 -25 2 -33 -26 -37 -22 -3 -35 19 -24 45 5
12 9 13 12 4 4 -9 8 -10 18 -2z m59 -12 c9 -34 7 -38 -8 -32 -15 6 -28 39 -18
48 11 11 20 6 26 -16z m76 1 c14 -25 11 -30 -18 -22 -13 3 -22 13 -22 24 0 25
27 24 40 -2z m-255 -28 c-10 -16 -25 -3 -25 22 0 20 1 20 16 5 9 -9 13 -21 9
-27z m41 2 c-7 -17 -8 -17 -17 0 -12 21 -2 44 13 29 6 -6 8 -19 4 -29z m-232
1 c26 -10 18 -24 -14 -24 -29 0 -38 9 -23 23 8 9 17 9 37 1z m136 -30 c0 -7
-4 -16 -10 -19 -5 -3 -10 -1 -10 5 0 6 -4 8 -10 5 -10 -6 -14 7 -5 17 10 10
35 4 35 -8z"/>
<path d="M11215 6830 c3 -5 8 -10 11 -10 2 0 4 5 4 10 0 6 -5 10 -11 10 -5 0
-7 -4 -4 -10z"/>
<path d="M11220 6581 c0 -5 5 -13 10 -16 6 -3 10 -2 10 4 0 5 -4 13 -10 16 -5
3 -10 2 -10 -4z"/>
<path d="M12070 7610 c0 -5 5 -10 10 -10 6 0 10 5 10 10 0 6 -4 10 -10 10 -5
0 -10 -4 -10 -10z"/>
<path d="M10791 7585 c0 -5 4 -19 8 -29 7 -19 8 -19 13 2 4 12 2 20 -2 17 -5
-3 -11 1 -13 7 -3 7 -5 9 -6 3z"/>
<path d="M10755 7537 c-8 -19 -19 -38 -25 -42 -5 -3 -10 -11 -10 -17 0 -18 27
11 45 48 9 20 14 38 11 41 -3 3 -12 -10 -21 -30z"/>
<path d="M10500 7511 c0 -5 32 -11 70 -13 44 -2 69 1 67 7 -5 13 -137 19 -137
6z"/>
<path d="M12147 7513 c-36 -6 -29 -29 7 -25 21 2 26 -1 26 -18 0 -16 -4 -20
-19 -15 -11 3 -22 1 -26 -5 -4 -7 -14 -3 -26 11 -15 17 -22 19 -33 10 -11 -9
-15 -9 -19 1 -3 10 -8 10 -16 2 -10 -9 -9 -15 3 -27 17 -16 22 -46 9 -48 -5 0
-18 -2 -30 -3 -18 -2 -20 0 -11 11 9 11 9 16 -2 23 -21 13 -31 2 -28 -28 2
-21 -1 -27 -17 -27 -11 0 -30 -6 -41 -12 -18 -10 -24 -9 -44 12 -12 13 -28 21
-36 18 -9 -3 -18 6 -26 27 l-11 33 -18 -24 c-17 -22 -19 -23 -19 -4 -1 19 -2
18 -12 -2 -12 -26 -38 -31 -38 -8 0 22 -17 18 -23 -6 -5 -17 -9 -19 -25 -10
-15 8 -21 8 -24 -1 -3 -8 -10 -8 -26 1 -18 10 -23 9 -28 -4 -6 -14 -9 -14 -30
0 -22 14 -24 14 -24 -1 0 -9 9 -18 19 -21 18 -4 18 -8 6 -36 -15 -36 -38 -42
-43 -12 -6 34 -24 43 -20 11 2 -21 -2 -29 -14 -31 -10 -2 -18 0 -18 3 0 4 -14
7 -30 8 -19 1 -30 -4 -30 -12 0 -8 7 -14 16 -14 11 0 14 -6 10 -22 l-6 -23 11
23 c13 24 29 29 29 10 0 -8 3 -9 8 -3 6 9 18 10 44 6 4 0 2 -15 -4 -32 -9 -28
-12 -29 -27 -14 -10 8 -21 12 -25 8 -4 -5 -13 -8 -18 -8 -6 0 -13 -5 -15 -10
-2 -7 19 -11 52 -11 45 0 55 3 54 15 -4 50 1 61 26 57 13 -3 29 -7 34 -10 12
-8 21 18 11 33 -5 10 -9 10 -14 2 -4 -6 -12 -9 -17 -6 -14 9 -11 25 5 25 10 0
12 7 9 21 -5 19 -3 21 21 17 14 -3 29 -2 31 2 3 4 26 6 51 3 25 -2 52 1 59 7
10 8 15 8 21 -1 5 -8 3 -9 -6 -4 -9 5 -10 2 -5 -14 9 -30 -2 -43 -25 -31 -26
14 -39 -9 -15 -26 13 -10 22 -11 31 -3 11 9 12 4 9 -22 -7 -55 -29 -59 -53 -9
l-11 25 2 -29 c2 -25 -2 -29 -30 -32 -19 -2 -33 1 -33 7 0 5 -4 8 -9 5 -5 -4
-12 0 -15 6 -3 7 -3 3 0 -10 7 -28 -16 -26 -33 3 -10 18 -12 18 -18 3 -13 -33
3 -39 89 -33 85 5 158 14 165 20 2 2 -4 11 -12 19 -12 12 -17 13 -20 3 -2 -6
-3 3 -2 22 1 22 8 35 18 37 19 3 40 -42 31 -68 -3 -12 -2 -18 3 -15 5 4 25 9
44 12 46 8 106 24 138 37 14 6 35 13 46 15 33 6 75 25 75 34 0 5 -11 15 -25
21 -14 6 -25 14 -26 17 0 3 -2 18 -4 33 -2 15 1 31 7 34 7 5 9 1 5 -9 -8 -21
10 -32 28 -17 8 7 15 10 15 6 0 -9 57 21 65 35 7 11 -13 70 -24 68 -3 -1 -19
-4 -34 -6z m-318 -143 c5 -16 9 -30 8 -31 -14 -5 -38 -6 -41 -1 -2 4 -6 19
-10 35 -10 40 28 38 43 -3z m251 -11 c0 -5 7 -9 16 -9 9 0 14 -6 12 -12 -3 -7
-11 -13 -19 -13 -21 0 -62 32 -55 43 7 12 46 4 46 -9z m-212 -8 c3 -8 -1 -12
-9 -9 -7 2 -15 10 -17 17 -3 8 1 12 9 9 7 -2 15 -10 17 -17z m145 -12 c3 -12
10 -18 16 -14 6 3 11 -1 11 -10 0 -12 -6 -15 -20 -10 -13 4 -22 1 -26 -9 -8
-21 -54 0 -54 25 0 27 19 34 35 13 14 -18 14 -18 15 4 0 28 16 29 23 1z m-89
-21 c9 -36 7 -48 -8 -48 -15 0 -30 45 -21 60 10 17 22 11 29 -12z m-52 -23 c3
-14 2 -28 -2 -30 -10 -6 -41 41 -33 49 14 14 31 4 35 -19z"/>
<path d="M10860 7475 c0 -8 2 -15 4 -15 2 0 6 7 10 15 3 8 1 15 -4 15 -6 0
-10 -7 -10 -15z"/>
<path d="M10711 7402 c-13 -63 -13 -65 -3 -58 5 3 7 -17 4 -44 -3 -30 -1 -50
6 -50 13 0 21 68 12 101 -4 14 -4 33 1 41 5 9 5 26 0 40 -7 20 -10 16 -20 -30z"/>
<path d="M11920 7415 c-10 -12 -15 -13 -21 -3 -4 7 -10 10 -13 7 -3 -3 5 -15
18 -27 21 -17 27 -18 36 -7 7 9 8 20 3 30 -9 15 -11 15 -23 0z"/>
<path d="M11190 7405 c0 -8 5 -15 11 -15 5 0 15 -13 20 -29 6 -16 17 -32 25
-35 8 -3 14 -19 14 -35 0 -24 4 -29 20 -28 11 1 20 5 20 8 0 20 -22 58 -54 93
-20 22 -36 43 -36 48 0 4 -4 8 -10 8 -5 0 -10 -7 -10 -15z"/>
<path d="M11312 7373 c2 -10 10 -17 16 -15 15 3 16 -24 2 -33 -20 -12 -9 -25
20 -25 17 0 30 4 30 9 0 20 -13 41 -21 35 -5 -3 -9 2 -9 10 0 8 -9 20 -21 26
-18 10 -20 9 -17 -7z"/>
<path d="M11370 7372 c0 -9 40 -35 46 -29 3 2 2 12 -2 21 -6 16 -44 23 -44 8z"/>
<path d="M11195 7359 c-4 -6 -5 -12 -2 -15 2 -3 7 2 10 11 7 17 1 20 -8 4z"/>
<path d="M11036 7346 c3 -9 11 -16 16 -16 13 0 5 23 -10 28 -7 2 -10 -2 -6
-12z"/>
<path d="M11450 7345 c0 -8 5 -15 10 -15 6 0 10 7 10 15 0 8 -4 15 -10 15 -5
0 -10 -7 -10 -15z"/>
<path d="M11627 7325 c-3 -18 1 -29 13 -35 22 -12 40 6 39 40 0 25 0 25 -9 3
-12 -28 -34 -31 -27 -3 3 11 2 20 -3 20 -4 0 -10 -11 -13 -25z"/>
<path d="M11070 7300 c0 -8 5 -22 10 -30 9 -13 10 -13 10 0 0 8 -5 22 -10 30
-9 13 -10 13 -10 0z"/>
<path d="M10741 7295 c1 -19 18 -51 18 -35 0 8 -4 22 -9 30 -5 8 -9 11 -9 5z"/>
<path d="M11220 7296 c0 -2 7 -9 15 -16 13 -11 14 -10 9 4 -5 14 -24 23 -24
12z"/>
<path d="M11007 7253 c-3 -5 -3 -28 0 -51 5 -37 9 -42 38 -48 22 -4 37 -15 46
-32 l13 -27 4 31 c1 17 -5 53 -15 80 -16 43 -22 49 -50 52 -17 2 -33 -1 -36
-5z m48 -53 c3 -5 -1 -10 -10 -10 -9 0 -13 5 -10 10 3 6 8 10 10 10 2 0 7 -4
10 -10z"/>
<path d="M11320 7236 c6 -16 19 -41 30 -56 11 -16 20 -35 20 -43 0 -8 7 -20
15 -27 8 -7 15 -22 15 -35 0 -12 9 -30 20 -40 11 -10 20 -15 20 -11 0 11 -78
175 -90 188 -6 7 -17 22 -25 33 -14 19 -14 18 -5 -9z"/>
<path d="M11270 7221 c0 -5 5 -13 10 -16 6 -3 10 -2 10 4 0 5 -4 13 -10 16 -5
3 -10 2 -10 -4z"/>
<path d="M11950 7174 c0 -6 17 -49 39 -95 21 -46 45 -102 52 -124 18 -55 29
-65 29 -26 0 44 -56 182 -91 223 -15 18 -28 28 -29 22z"/>
<path d="M10731 7154 c0 -11 3 -14 6 -6 3 7 2 16 -1 19 -3 4 -6 -2 -5 -13z"/>
<path d="M11869 7150 c-2 -14 -8 -24 -14 -23 -5 1 -16 -4 -24 -10 -11 -9 -13
-9 -8 -1 7 12 -13 24 -39 24 -11 0 -13 -6 -9 -20 4 -12 1 -27 -5 -35 -7 -8 -9
-16 -4 -17 5 0 14 -2 19 -3 6 -2 16 -3 22 -4 7 0 16 -19 19 -40 4 -22 13 -42
20 -45 8 -3 14 -14 14 -25 0 -11 4 -22 9 -25 5 -3 5 -21 1 -40 -5 -25 -4 -36
5 -40 43 -16 41 70 -2 159 -29 59 -36 105 -15 105 9 0 12 -6 8 -15 -3 -9 1
-18 9 -21 8 -4 15 -16 15 -28 0 -12 5 -27 12 -34 15 -15 19 -42 19 -109 0 -55
11 -67 29 -33 6 11 17 20 25 20 21 0 19 13 -10 71 -14 27 -23 54 -20 58 2 5
-2 14 -10 21 -8 7 -12 17 -9 22 3 5 -3 19 -14 31 -11 12 -24 36 -29 52 -10 30
-10 30 -14 5z"/>
<path d="M11616 7142 c-3 -5 3 -26 14 -48 45 -96 70 -153 85 -201 10 -29 22
-53 27 -53 11 0 4 39 -17 85 -7 17 -31 74 -52 127 -36 94 -46 108 -57 90z"/>
<path d="M11707 7123 c-13 -13 33 -157 68 -213 22 -35 51 -60 70 -60 3 0 5 12
3 28 -2 15 -9 27 -16 27 -16 0 -43 45 -72 124 -20 54 -21 67 -10 85 10 17 10
19 -1 9 -8 -8 -17 -9 -24 -3 -7 5 -15 7 -18 3z"/>
<path d="M11147 7093 c-4 -3 -7 -11 -7 -17 0 -6 5 -5 12 2 6 6 9 14 7 17 -3 3
-9 2 -12 -2z"/>
<path d="M12250 6842 c0 -34 7 -43 26 -35 16 6 19 33 4 33 -5 0 -10 7 -10 15
0 8 -4 15 -10 15 -5 0 -10 -13 -10 -28z"/>
<path d="M12471 6842 c-59 -31 -70 -55 -47 -101 20 -38 40 -39 109 -7 66 30
88 65 66 104 -20 36 -62 37 -128 4z m50 -43 c11 -23 17 -45 12 -50 -11 -11
-26 1 -41 34 -28 65 -3 79 29 16z m29 31 c0 -5 -5 -10 -11 -10 -5 0 -7 5 -4
10 3 6 8 10 11 10 2 0 4 -4 4 -10z m-93 -72 c-3 -8 -6 -5 -6 6 -1 11 2 17 5
13 3 -3 4 -12 1 -19z"/>
<path d="M12176 6842 c-3 -5 1 -13 10 -16 10 -4 13 -13 9 -26 -5 -14 -2 -20
10 -20 12 0 15 6 10 23 -9 30 -31 52 -39 39z"/>
<path d="M12115 6819 c-4 -6 -5 -12 -2 -15 2 -3 7 2 10 11 7 17 1 20 -8 4z"/>
<path d="M12071 6804 c0 -11 3 -14 6 -6 3 7 2 16 -1 19 -3 4 -6 -2 -5 -13z"/>
<path d="M11995 6790 c3 -5 10 -10 16 -10 5 0 9 5 9 10 0 6 -7 10 -16 10 -8 0
-12 -4 -9 -10z"/>
<path d="M12140 6774 c0 -8 5 -12 10 -9 6 3 10 10 10 16 0 5 -4 9 -10 9 -5 0
-10 -7 -10 -16z"/>
<path d="M12338 6785 c-2 -3 -13 -6 -24 -8 -10 -2 -36 -11 -56 -20 -42 -18
-50 -46 -23 -84 8 -12 12 -30 9 -40 -5 -17 -5 -17 9 0 11 13 22 17 36 12 12
-3 26 -3 33 2 7 4 19 8 26 9 7 1 24 10 38 18 42 29 27 89 -28 109 -9 3 -18 4
-20 2z m-11 -59 c9 -20 13 -42 9 -53 -7 -17 -9 -16 -27 6 -20 24 -26 81 -9 81
6 0 18 -15 27 -34z"/>
<path d="M11791 6764 c0 -11 3 -14 6 -6 3 7 2 16 -1 19 -3 4 -6 -2 -5 -13z"/>
<path d="M11678 6735 c2 -14 9 -25 14 -25 6 0 7 7 4 16 -3 9 -6 20 -6 25 0 5
-4 9 -9 9 -4 0 -6 -11 -3 -25z"/>
<path d="M11857 6743 c-4 -3 -7 -11 -7 -17 0 -6 5 -5 12 2 6 6 9 14 7 17 -3 3
-9 2 -12 -2z"/>
<path d="M12143 6724 c-34 -17 -43 -34 -19 -34 14 0 26 -29 26 -67 0 -23 23
-32 35 -13 3 6 15 10 26 10 10 0 19 2 19 4 0 5 -51 116 -53 116 -1 0 -17 -8
-34 -16z"/>
<path d="M11740 6720 c0 -5 5 -10 11 -10 5 0 7 5 4 10 -3 6 -8 10 -11 10 -2 0
-4 -4 -4 -10z"/>
<path d="M11760 6550 c0 -13 18 -22 24 -11 3 5 -1 11 -9 15 -8 3 -15 1 -15 -4z"/>
<path d="M11805 6550 c-2 -3 5 -7 16 -7 10 -1 19 2 19 6 0 9 -29 10 -35 1z"/>
<path d="M3376 6062 c-2 -4 -1 -14 5 -22 7 -12 9 -10 9 8 0 23 -5 28 -14 14z"/>
<path d="M9982 5957 c-14 -39 -36 -191 -30 -209 8 -24 41 98 46 170 2 39 3 72
0 72 -2 0 -9 -15 -16 -33z"/>
<path d="M3466 5462 c-3 -6 -1 -14 5 -17 15 -10 25 3 12 16 -7 7 -13 7 -17 1z"/>
<path d="M3440 5361 c0 -5 6 -16 13 -23 7 -7 16 -21 20 -31 10 -26 29 -16 33
15 2 22 -3 29 -28 37 -38 13 -38 13 -38 2z"/>
<path d="M3512 5219 c3 -43 18 -47 18 -5 0 20 -5 36 -10 36 -6 0 -9 -14 -8
-31z"/>
<path d="M6980 4410 l0 -780 1375 0 1375 0 0 -29 c0 -27 -3 -29 -34 -27 -18 2
-38 6 -44 10 -6 3 -13 2 -17 -4 -4 -7 -454 -10 -1361 -10 l-1354 0 0 730 0
730 -40 0 -40 0 0 -780 0 -780 2410 0 2410 0 0 50 0 50 -945 0 c-577 0 -945 4
-945 9 0 5 13 19 28 30 27 19 46 20 950 21 l922 1 58 -58 c31 -32 70 -75 85
-96 34 -45 46 -42 26 5 -8 18 -14 44 -14 58 0 19 -7 25 -30 30 -16 4 -48 19
-69 33 l-39 27 57 0 56 0 0 780 0 780 -2410 0 -2410 0 0 -780z m593 398 c3
-24 9 -62 13 -85 l7 -43 -87 0 -86 0 0 -105 0 -105 65 0 65 0 0 -80 0 -80 -65
0 -65 0 0 -180 0 -180 -85 0 -85 0 0 450 0 450 159 0 158 0 6 -42z m456 27
c16 -8 34 -28 40 -46 7 -21 11 -153 11 -386 0 -472 9 -453 -210 -453 -219 0
-210 -19 -210 453 0 233 4 365 11 386 18 51 47 60 197 61 98 0 140 -4 161 -15z
m531 -13 c37 -38 42 -84 38 -338 -3 -182 -5 -204 -22 -223 -11 -12 -25 -21
-33 -21 -19 0 -17 -11 26 -158 l39 -133 -86 3 -85 3 -36 134 c-49 181 -61 182
-61 2 l0 -141 -80 0 -80 0 0 450 0 450 176 0 176 0 28 -28z m346 -157 c47
-206 37 -211 95 43 l33 142 88 0 88 0 0 -450 0 -450 -80 0 -80 0 -2 203 -3
202 -44 -160 c-24 -88 -47 -163 -51 -168 -3 -4 -26 66 -51 155 l-44 163 -3
-197 -2 -198 -80 0 -80 0 0 450 0 451 87 -3 87 -3 42 -180z m694 177 c0 -5 32
-205 70 -445 39 -240 70 -439 70 -442 0 -3 -36 -5 -80 -5 -87 0 -85 -2 -92 75
-3 29 -5 30 -55 33 -57 3 -58 2 -65 -73 l-3 -30 -82 -3 c-46 -2 -83 -1 -83 1
0 2 32 200 70 440 39 240 70 441 70 447 0 6 34 10 90 10 50 0 90 -4 90 -8z
m466 -19 c10 -47 25 -107 30 -125 5 -16 -2 -18 -50 -18 l-56 0 0 -365 0 -365
-80 0 -80 0 0 365 0 365 -55 0 c-30 0 -55 3 -55 8 0 4 4 23 9 42 6 19 15 54
21 78 l11 42 149 0 150 0 6 -27z m437 -15 c3 -24 9 -62 13 -85 l7 -43 -87 0
-86 0 0 -105 0 -105 65 0 65 0 0 -80 0 -80 -65 0 -65 0 0 -95 0 -95 80 0 c92
0 88 5 69 -107 l-11 -63 -154 0 -154 0 0 450 0 450 159 0 158 0 6 -42z m267
-328 l0 -370 40 0 40 0 0 370 0 370 85 0 85 0 0 -392 c0 -239 -4 -408 -10
-430 -19 -69 -43 -78 -201 -78 l-139 0 -32 29 -33 29 -3 421 -3 421 86 0 85 0
0 -370z m720 342 c37 -38 42 -84 38 -338 -3 -182 -5 -204 -22 -223 -11 -12
-25 -21 -33 -21 -19 0 -17 -11 26 -158 l39 -133 -86 3 -85 3 -36 134 c-49 181
-61 182 -61 2 l0 -141 -80 0 -80 0 0 450 0 450 176 0 176 0 28 -28z"/>
<path d="M7830 4400 l0 -290 40 0 40 0 0 290 0 290 -40 0 -40 0 0 -290z"/>
<path d="M8342 4538 l3 -153 43 -3 42 -3 0 155 0 156 -45 0 -46 0 3 -152z"/>
<path d="M9507 4460 c-6 -16 -27 -195 -27 -229 0 -17 6 -21 30 -21 27 0 30 3
29 33 -1 60 -26 232 -32 217z"/>
<path d="M11272 4538 l3 -153 43 -3 42 -3 0 155 0 156 -45 0 -46 0 3 -152z"/>
<path d="M3536 5139 c-13 -43 -13 -89 0 -108 24 -34 30 -25 24 43 -5 64 -15
92 -24 65z"/>
<path d="M3583 4935 c1 -22 7 -44 14 -50 6 -5 14 -23 17 -40 2 -17 3 -12 1 10
-1 22 -10 58 -19 80 l-16 40 3 -40z"/>
<path d="M3667 4714 c-11 -11 -8 -44 4 -44 6 0 8 -11 5 -27 -6 -26 11 -94 27
-109 4 -4 7 -15 7 -25 0 -23 31 -89 42 -89 4 0 8 -9 8 -20 0 -11 5 -20 10 -20
6 0 10 -6 10 -13 0 -7 14 -39 30 -70 37 -72 38 -92 3 -111 -16 -9 -21 -16 -13
-16 12 0 11 -3 -3 -11 -13 -8 -27 -7 -47 1 -61 25 -49 2 15 -30 38 -19 67 -39
64 -45 -5 -12 -96 -12 -121 -1 -11 5 -18 4 -18 -2 0 -5 11 -13 25 -16 13 -3
29 -15 35 -26 6 -11 17 -20 24 -20 7 0 30 -13 51 -30 21 -16 45 -30 54 -30 9
0 25 -6 36 -14 11 -7 38 -23 60 -35 27 -14 33 -21 20 -21 -18 0 -20 -6 -16
-56 2 -37 -1 -59 -9 -64 -14 -8 51 -53 153 -105 52 -27 75 -55 45 -55 -9 0 -9
-3 0 -12 17 -17 15 -45 -4 -56 -13 -7 2 -24 77 -88 155 -133 202 -182 196
-204 -3 -14 1 -24 15 -31 27 -15 32 -6 30 54 -5 113 -14 158 -39 187 -26 32
-41 34 -60 10 -11 -13 -12 -11 -13 10 0 14 -6 50 -14 80 -7 30 -16 67 -20 82
-4 17 -11 25 -19 22 -8 -3 -25 15 -43 47 -16 28 -34 60 -40 70 -6 11 -25 35
-42 54 -18 19 -32 42 -32 51 0 9 -6 14 -13 11 -18 -7 -57 36 -121 135 -31 48
-56 90 -56 92 0 4 -66 114 -110 186 -24 38 -110 215 -110 226 0 11 -20 61 -59
147 -9 21 -20 35 -24 31z"/>
<path d="M2805 4429 c88 -22 174 -46 190 -54 17 -7 44 -16 60 -20 17 -4 98
-28 180 -55 324 -104 416 -131 427 -128 6 2 -56 28 -138 57 -159 56 -252 92
-323 123 -83 37 -209 69 -402 103 -161 28 -158 14 6 -26z"/>
<path d="M2660 4159 c0 -5 58 -20 130 -33 14 -2 36 -8 50 -11 l25 -8 -23 24
c-19 20 -35 25 -102 29 -44 3 -80 2 -80 -1z"/>
<path d="M11890 4134 c0 -8 5 -12 10 -9 6 3 10 10 10 16 0 5 -4 9 -10 9 -5 0
-10 -7 -10 -16z"/>
<path d="M11860 4089 c0 -5 -4 -7 -10 -4 -17 10 -11 -23 7 -45 16 -18 18 -19
24 -3 7 21 -1 63 -12 63 -5 0 -9 -5 -9 -11z"/>
<path d="M11900 4008 c0 -9 5 -20 10 -23 13 -8 13 5 0 25 -8 13 -10 13 -10 -2z"/>
<path d="M3021 3999 c-13 -5 -21 -12 -18 -15 3 -3 18 1 34 10 31 17 21 20 -16
5z"/>
<path d="M2550 3902 c-41 -27 -50 -38 -37 -40 10 -2 37 9 59 25 22 15 50 34
62 40 21 12 21 13 -4 13 -14 0 -50 -17 -80 -38z"/>
<path d="M9324 3356 c-62 -32 -87 -45 -106 -52 -10 -3 -18 -10 -18 -15 0 -16
30 -10 68 15 20 12 46 26 57 30 11 3 31 15 45 26 33 26 7 24 -46 -4z"/>
<path d="M11695 3300 c3 -5 8 -10 11 -10 2 0 4 5 4 10 0 6 -5 10 -11 10 -5 0
-7 -4 -4 -10z"/>
<path d="M9113 3273 c-12 -2 -49 -31 -83 -64 -33 -32 -63 -59 -65 -59 -3 0 -5
7 -5 15 0 19 -14 19 -30 1 -6 -8 -18 -12 -26 -9 -8 3 -15 -1 -15 -11 -3 -33
-4 -37 -18 -45 -7 -5 -10 -14 -7 -20 5 -7 2 -10 -6 -9 -7 2 -12 -3 -10 -10 1
-7 -9 -17 -22 -22 -47 -18 -41 -32 10 -24 96 13 115 24 146 84 15 30 28 60 28
66 0 16 71 78 105 91 17 7 41 14 55 16 21 4 20 4 -5 4 -16 0 -40 -2 -52 -4z"/>
<path d="M6478 3149 c-36 -43 -193 -134 -258 -150 -19 -4 -70 -18 -113 -30
-75 -22 -84 -22 -200 -10 -67 7 -151 19 -187 28 -65 16 -199 67 -269 104 -58
30 -172 47 -319 48 -74 1 -155 6 -180 11 -30 6 -141 7 -299 2 l-252 -8 -93
-47 c-111 -56 -213 -139 -304 -244 -87 -102 -117 -156 -158 -283 -42 -130 -56
-225 -56 -388 0 -176 29 -268 111 -357 72 -78 89 -102 130 -183 24 -48 56 -99
71 -115 15 -15 28 -31 28 -36 0 -5 11 -18 25 -29 14 -11 25 -25 25 -32 0 -10
32 -12 135 -8 75 3 138 2 140 -2 7 -11 142 -33 159 -27 9 4 16 2 16 -4 0 -6 5
-7 10 -4 16 10 140 13 140 4 0 -9 34 -4 53 8 6 4 21 8 32 9 28 3 87 27 103 42
21 19 28 15 61 -34 17 -26 43 -56 59 -68 16 -12 76 -65 133 -119 83 -79 113
-100 154 -112 46 -14 51 -14 62 1 8 11 21 15 37 12 14 -3 24 -1 23 5 -1 5 6
11 16 12 9 2 17 0 17 -5 0 -4 18 -6 40 -4 21 2 42 -1 45 -6 3 -6 15 -10 26
-10 11 0 18 -4 15 -9 -4 -5 3 -7 14 -4 11 3 20 8 20 12 0 3 14 12 30 19 17 8
30 20 30 28 0 18 100 20 118 2 18 -18 23 -5 12 28 -69 210 -76 228 -137 354
-50 103 -159 271 -210 325 -65 69 -117 147 -176 267 -37 74 -67 139 -67 142 0
4 25 42 55 84 30 43 59 90 64 104 9 24 16 27 73 30 38 3 120 -5 206 -19 183
-29 222 -29 324 4 153 50 254 111 376 228 74 70 86 78 130 82 28 3 40 -3 75
-38 56 -56 129 -102 266 -167 134 -63 168 -68 331 -52 184 18 235 13 272 -24
8 -7 33 -23 56 -35 l42 -21 0 -99 0 -98 -53 -60 c-30 -33 -67 -78 -83 -99 -86
-114 -166 -196 -294 -299 -105 -85 -211 -185 -331 -312 -25 -26 -64 -64 -87
-83 -23 -19 -68 -64 -99 -99 -45 -51 -53 -63 -34 -58 18 4 21 2 17 -10 -5 -13
0 -14 31 -7 21 4 59 8 84 8 25 1 52 6 60 12 16 12 58 13 77 1 6 -5 12 -19 12
-33 0 -27 8 -30 24 -10 7 9 24 12 47 9 29 -4 38 -11 52 -44 16 -36 37 -53 37
-29 0 6 7 10 15 10 8 0 15 -7 15 -16 0 -13 3 -14 14 -5 7 6 20 9 28 6 8 -3 23
3 33 15 10 11 22 20 27 20 15 0 8 -19 -14 -40 -44 -41 0 -18 94 50 53 39 101
70 107 70 9 0 7 -64 -3 -133 -3 -17 1 -30 8 -33 16 -6 97 34 109 53 4 7 13 13
18 13 6 0 23 13 39 28 23 23 36 28 75 27 25 0 49 3 51 7 3 4 0 8 -6 8 -23 0 1
18 30 22 33 5 66 -21 57 -45 -2 -7 1 -21 9 -31 11 -16 16 -17 29 -6 12 10 19
10 27 2 17 -17 43 -15 58 3 9 11 15 12 20 5 5 -8 14 -8 33 1 22 10 31 9 54 -7
15 -10 32 -17 37 -16 5 2 37 3 70 3 33 1 72 6 86 14 14 7 44 22 68 35 24 12
46 19 49 16 3 -3 14 -1 24 5 12 6 19 6 19 0 0 -6 25 3 55 19 30 16 57 25 60
19 4 -5 13 -5 23 0 10 5 24 6 33 1 10 -6 24 -3 40 8 28 19 33 21 118 28 35 3
74 12 87 20 13 9 28 13 34 9 5 -3 10 -1 10 4 0 15 27 14 33 -1 4 -10 6 -10 6
0 1 15 31 16 31 1 0 -5 5 -7 10 -4 6 4 8 11 5 16 -4 5 1 9 9 9 18 0 21 -16 6
-25 -5 -3 -10 -11 -10 -16 0 -6 32 21 70 60 54 54 80 89 113 158 l42 88 -1
150 c-3 247 -35 452 -105 660 -111 327 -246 475 -462 505 -39 6 -74 14 -77 18
-3 4 -34 8 -70 10 -76 2 -285 46 -489 103 -92 25 -168 40 -206 40 -55 1 -206
-24 -227 -37 -21 -13 -201 -34 -283 -33 -49 0 -131 -2 -181 -6 -77 -7 -96 -5
-115 9 -31 21 -61 20 -91 -4 -27 -21 -45 -16 -27 7 9 10 8 13 -5 13 -9 0 -16
6 -16 13 -1 18 -156 117 -184 117 -16 0 -36 -14 -58 -41z m-48 -193 c0 -30
-33 -72 -49 -62 -8 5 -4 16 14 38 14 16 25 34 25 39 0 5 2 9 5 9 3 0 5 -11 5
-24z m-250 -16 c0 -5 -4 -10 -10 -10 -5 0 -10 5 -10 10 0 6 5 10 10 10 6 0 10
-4 10 -10z m-1220 -1424 c0 -27 -15 -42 -25 -26 -8 13 3 50 16 50 5 0 9 -11 9
-24z m827 -312 c-3 -3 -12 -4 -19 -1 -8 3 -5 6 6 6 11 1 17 -2 13 -5z"/>
<path d="M4923 3173 c9 -2 25 -2 35 0 9 3 1 5 -18 5 -19 0 -27 -2 -17 -5z"/>
<path d="M9065 3090 c-3 -5 1 -10 9 -10 9 0 16 5 16 10 0 6 -4 10 -9 10 -6 0
-13 -4 -16 -10z"/>
<path d="M9020 3069 c0 -5 5 -7 10 -4 6 3 10 8 10 11 0 2 -4 4 -10 4 -5 0 -10
-5 -10 -11z"/>
<path d="M4980 1437 c0 -8 6 -14 14 -14 8 0 12 6 9 14 -3 7 -9 13 -14 13 -5 0
-9 -6 -9 -13z"/>
</g>
</svg>
