<svg xmlns="http://www.w3.org/2000/svg" width="139.869" height="21.748" viewBox="0 0 139.869 21.748">
  <g id="Groupe_43" data-name="Groupe 43" transform="translate(-131.5 -7014.204)">
    <path id="star" d="M30.642.744,27.868,6.367l-6.205.9a1.36,1.36,0,0,0-.752,2.319L25.4,13.965l-1.062,6.18a1.358,1.358,0,0,0,1.971,1.431l5.551-2.918,5.551,2.918a1.359,1.359,0,0,0,1.971-1.431l-1.062-6.18L42.81,9.591a1.36,1.36,0,0,0-.752-2.319l-6.205-.9L33.08.744A1.36,1.36,0,0,0,30.642.744Z" transform="translate(111 7014.217)" fill="#1b1b1b"/>
    <path id="star-2" data-name="star" d="M30.642.744,27.868,6.367l-6.205.9a1.36,1.36,0,0,0-.752,2.319L25.4,13.965l-1.062,6.18a1.358,1.358,0,0,0,1.971,1.431l5.551-2.918,5.551,2.918a1.359,1.359,0,0,0,1.971-1.431l-1.062-6.18L42.81,9.591a1.36,1.36,0,0,0-.752-2.319l-6.205-.9L33.08.744A1.36,1.36,0,0,0,30.642.744Z" transform="translate(140.287 7014.217)" fill="#1b1b1b"/>
    <path id="star-3" data-name="star" d="M30.642.744,27.868,6.367l-6.205.9a1.36,1.36,0,0,0-.752,2.319L25.4,13.965l-1.062,6.18a1.358,1.358,0,0,0,1.971,1.431l5.551-2.918,5.551,2.918a1.359,1.359,0,0,0,1.971-1.431l-1.062-6.18L42.81,9.591a1.36,1.36,0,0,0-.752-2.319l-6.205-.9L33.08.744A1.36,1.36,0,0,0,30.642.744Z" transform="translate(169.574 7014.217)" fill="#1b1b1b"/>
    <path id="star-4" data-name="star" d="M30.642.744,27.868,6.367l-6.205.9a1.36,1.36,0,0,0-.752,2.319L25.4,13.965l-1.062,6.18a1.358,1.358,0,0,0,1.971,1.431l5.551-2.918,5.551,2.918a1.359,1.359,0,0,0,1.971-1.431l-1.062-6.18L42.81,9.591a1.36,1.36,0,0,0-.752-2.319l-6.205-.9L33.08.744A1.36,1.36,0,0,0,30.642.744Z" transform="translate(198.86 7014.217)" fill="#1b1b1b"/>
    <path id="star-5" data-name="star" d="M30.642.744,27.868,6.367l-6.205.9a1.36,1.36,0,0,0-.752,2.319L25.4,13.965l-1.062,6.18a1.358,1.358,0,0,0,1.971,1.431l5.551-2.918,5.551,2.918a1.359,1.359,0,0,0,1.971-1.431l-1.062-6.18L42.81,9.591a1.36,1.36,0,0,0-.752-2.319l-6.205-.9L33.08.744A1.36,1.36,0,0,0,30.642.744Z" transform="translate(228.147 7014.217)" fill="#1b1b1b"/>
  </g>
</svg>
