<svg xmlns="http://www.w3.org/2000/svg" width="136.764" height="340.455" viewBox="0 0 136.764 340.455">
  <g id="tree-svgrepo-com_3_" data-name="tree-svgrepo-com (3)" transform="translate(-330.634 -78.888)">
    <path id="Tracé_16" data-name="Tracé 16" d="M399.016,78.888S330.634,136.213,330.634,233.4c0,70.128,33.173,103.591,68.382,103.591S467.4,303.239,467.4,233.4c-.291-97.481-68.382-154.514-68.382-154.514Z" fill="#db3333"/>
    <path id="Tracé_17" data-name="Tracé 17" d="M482.614,339.3,445.949,395.75l-1.455-36.082,24.152-47.14L444.2,350.065l-2.328-58.488h-2.619l-3.783,87.587L407.539,336.1l27.644,54.124-1.455,34.628-40.447-61.98,39.574,77.984L428.2,552.01h24.152L446.531,410.3l36.082-71Z" transform="translate(-39.076 -132.668)" fill="#d6d1cb"/>
  </g>
</svg>
