<svg xmlns="http://www.w3.org/2000/svg" width="290.512" height="263.638" viewBox="0 0 290.512 263.638">
  <g id="Groupe_54" data-name="Groupe 54" transform="translate(-780.587 -7584.862)">
    <g id="tree-svgrepo-com" transform="translate(640.793 7505.973)">
      <path id="Tracé_22" data-name="Tracé 22" d="M226.93,194s-11.671,5.721-11.671,17.851S226.93,229.7,226.93,229.7s11.671-5.721,11.671-17.85S226.93,194,226.93,194Zm3.433-73s-11.671,5.721-11.671,17.851S230.363,156.7,230.363,156.7s11.671-5.721,11.671-17.851S230.363,121,230.363,121Zm-28.149,43.253s11.671-5.721,11.671-17.85-11.671-17.851-11.671-17.851-11.671,5.721-11.671,17.851S202.214,164.251,202.214,164.251ZM213.2,127.177s11.671-5.721,11.671-17.851S213.2,91.476,213.2,91.476s-11.671,5.721-11.671,17.851S213.2,127.177,213.2,127.177Zm26.089-48.288S227.617,84.61,227.617,96.74s11.671,17.851,11.671,17.851,11.671-5.721,11.671-17.851C250.96,84.381,239.288,78.889,239.288,78.889Zm60.188,48.746s11.671-5.722,11.671-17.851-11.671-17.851-11.671-17.851S287.8,97.655,287.8,109.784s11.671,17.851,11.671,17.851Zm-23.343,17.851c0,12.129,11.671,17.85,11.671,17.85s11.671-5.721,11.671-17.85S287.8,127.635,287.8,127.635,276.133,133.356,276.133,145.485ZM189.17,200.639s-5.721-11.671-17.851-11.671-17.85,11.671-17.85,11.671,5.721,11.671,17.85,11.671S189.17,200.639,189.17,200.639Zm152.187-28.378c-12.129,0-17.851,11.671-17.851,11.671s5.721,11.671,17.851,11.671,17.85-11.671,17.85-11.671S353.486,172.261,341.357,172.261Zm-51.492,27.462s5.721,11.672,17.851,11.672,17.85-11.671,17.85-11.671-5.721-11.671-17.85-11.671-17.851,11.671-17.851,11.671ZM232.88,163.564s-12.358-4.348-20.826,4.348c-8.7,8.7-4.348,20.826-4.348,20.826s12.358,4.348,20.826-4.348C237.229,175.922,232.88,163.564,232.88,163.564Zm97.949-40.278s-12.358-4.348-20.826,4.348c-8.7,8.7-4.348,20.826-4.348,20.826s12.358,4.348,20.826-4.348C335.177,135.415,330.829,123.286,330.829,123.286Zm-7.094,32.726s-12.358-4.348-20.826,4.348c-8.7,8.7-4.348,20.826-4.348,20.826s12.358,4.348,20.826-4.348C328.083,168.37,323.735,156.012,323.735,156.012ZM191.458,217.573s-12.358-4.348-20.826,4.348c-8.7,8.7-4.348,20.826-4.348,20.826s12.358,4.348,20.826-4.348c8.7-8.468,4.348-20.826,4.348-20.826ZM340.212,108.64c8.7-8.7,4.348-20.826,4.348-20.826s-12.358-4.348-20.826,4.348c-8.7,8.7-4.348,20.826-4.348,20.826S331.516,117.336,340.212,108.64ZM330.6,164.251s12.358,4.348,20.826-4.348c8.7-8.7,4.348-20.826,4.348-20.826s-12.358-4.348-20.826,4.348C326.252,152.122,330.6,164.251,330.6,164.251Zm-58.129,45.313s-4.348,12.358,4.348,20.826c8.7,8.7,20.826,4.348,20.826,4.348s4.348-12.358-4.348-20.826C284.6,205.216,272.472,209.564,272.472,209.564Zm-100.237-49.89s-4.348,12.358,4.348,20.826c8.7,8.7,20.826,4.348,20.826,4.348s4.348-12.358-4.348-20.826C184.592,155.325,172.234,159.674,172.234,159.674Zm-6.179,23.343s4.348-12.358-4.348-20.826c-8.7-8.7-20.826-4.348-20.826-4.348s-4.348,12.358,4.348,20.826S166.055,183.017,166.055,183.017Zm19.452-30.9s4.348-12.358-4.348-20.826c-8.7-8.7-20.826-4.348-20.826-4.348s-4.348,12.358,4.348,20.826C173.15,156.47,185.508,152.121,185.508,152.121Zm120.148,65.452S301.307,229.931,310,238.4c8.7,8.7,20.826,4.348,20.826,4.348s4.348-12.358-4.348-20.826C318.013,213.454,305.655,217.573,305.655,217.573Zm-38.218-94.287c-8.7-8.7-20.826-4.348-20.826-4.348s-4.348,12.358,4.348,20.826c8.7,8.7,20.826,4.348,20.826,4.348s4.348-12.129-4.348-20.826Zm14.189-5.035s4.348-12.358-4.348-20.826c-8.7-8.7-20.826-4.348-20.826-4.348S252.1,105.436,260.8,113.9c8.468,8.7,20.826,4.348,20.826,4.348ZM196.264,238.857s-11.671,5.721-11.671,17.85,11.671,17.851,11.671,17.851,11.671-5.721,11.671-17.851S196.264,238.857,196.264,238.857Z" fill="#db3333"/>
      <path id="Tracé_23" data-name="Tracé 23" d="M417.479,342.684c-4.806-1.373-7.094,11.671-11.214,16.935-3.662,4.577-8.7,4.119-15.333,3.891-.458-12.587-.915-23.114-1.373-29.98-.458-6.408-2.06-8.7-6.866-8.7s-6.637,2.517-6.866,8.7c-.915,15.333-1.831,48.517-2.975,82.387-10.985-.458-23.8-5.035-31.353-14.418-7.781-9.612-10.756-38.218-15.333-37.074-4.577.915-3.433,33.641,7.552,47.6a51.605,51.605,0,0,0,38.9,19.91c-1.144,43.482-2.06,83.76-2.06,83.76h24.487s-1.831-82.845-3.662-139.371c10.756-.458,16.706-2.517,21.054-7.552,5.035-5.492,9.841-24.487,5.035-26.089" transform="translate(-129.446 -173.17)" fill="#fef7f1"/>
    </g>
    <g id="tree-svgrepo-com_2_" data-name="tree-svgrepo-com (2)" transform="translate(763.338 7672.201)">
      <path id="Tracé_14" data-name="Tracé 14" d="M297.187,101.791a11.528,11.528,0,0,0,.678,5.716,17.929,17.929,0,0,1-.678-3.972v-1.55a16.013,16.013,0,0,0,3,7.848s5.62-.775,6.976-8.72c-.1.678-.194,1.356-.291,1.938a19.27,19.27,0,0,0,.775-7.751,86.715,86.715,0,0,0-2.035-9.98c.1.1.388-.1.388-.291-.1-.388-.388-.388-.678-.194-.1-.388-.194-.775-.291-1.066-.484-1.744-5.91,9.011-7.364,13.371a12.5,12.5,0,0,0-.484,4.651Zm-18.8-16.568.1-.1.1.1-.1-.1a11.012,11.012,0,0,0,3-9.786A80.617,80.617,0,0,0,278.294,64c.194-.388.291-.678.484-1.066a7.9,7.9,0,0,1,.194.872c.388.969.872,1.841,1.163,2.81.581,2.035,1.066,4.069,1.55,6.2a17.176,17.176,0,0,1,.194,7.364,17.918,17.918,0,0,1-1.647,3.876,11.267,11.267,0,0,0,2.519-5.91c.194-2.616-.872-5.232-1.453-7.751-.581-2.228-.872-4.651-1.647-6.782-.1-.291-.484-1.744-.969-1.066v.1a11.366,11.366,0,0,1-.484,1.066c-.484-1.163-.872-1.841-.969-1.453a72.619,72.619,0,0,0-3.1,10.173c-1.453,9.786,4.263,12.789,4.263,12.789Zm-19.184,40.693c-3.585-2.519-8.526-3.1-12.6-3.391-.1,0-.1,0-.1.1-.1,0-.1.1,0,.194a.338.338,0,0,0,.1.194h.1l.1.1a.1.1,0,0,0-.1-.1c3.2.291,8.526.581,12.111,2.616a11.4,11.4,0,0,0-1.938-.678,59.653,59.653,0,0,0-9.3-1.26q-.291,0,0,.581a8.082,8.082,0,0,1-.775-1.163,12.492,12.492,0,0,1,.581,1.163,2.288,2.288,0,0,0,.872.775c.678.775,1.647,1.841,2.616,2.81a23.168,23.168,0,0,0,2.132,2.228l1.163.872a22.032,22.032,0,0,1-3.1-2.907,44.955,44.955,0,0,0,3.488,3.1c-.1-.1-.194-.1-.388-.194a2.027,2.027,0,0,1,.581.388c.1.1.194.1.291.194a10.132,10.132,0,0,0,9.011,1.066c-.1.1.581-4.069-4.844-6.685ZM273.256,110.8a44.847,44.847,0,0,0,1.841-5.426c0-.1-.1-.194-.194-.291,0-.1-.1-.194-.291-.1,0-.388-.388.1-.581.194a25.5,25.5,0,0,0-4.651,3c-3.682,3-6.976,6.588-6.685,12.111a.208.208,0,0,0,.194.194,2.682,2.682,0,0,0,.872.1v.194s4.457,1.066,8.236-6.685a30.689,30.689,0,0,0,1.26-3.294ZM274.322,105.182Zm-7.848,6.879a12.032,12.032,0,0,0-2.81,8.429h-.388c-.969-.1-.1-3.779.1-4.457.678-2.325,2.519-3.779,4.263-5.329,1.26-1.066,2.422-2.228,3.682-3.2l.872-.581a53.409,53.409,0,0,0-5.716,5.135Zm27.517.291a5.677,5.677,0,0,0-3.294,2.519.338.338,0,0,0-.1.194l.1-.1a6.794,6.794,0,0,0-1.163,2.713s3,3.488,7.945-.291a34.364,34.364,0,0,0,3.876-4.166h.291v.1c-2.81,3.488-8.236,9.3-12.5,5.135-.194-.1-.194-.388-.1-.678a1.4,1.4,0,0,0-.194.678c0,.1-.194.1-.1.1,4.069,5.038,10.27-1.55,13.08-4.941a.3.3,0,0,0,.388,0q.145-.436-.581-.581c.291-.388.581-.678.775-.969.291-.969-6.1-.388-8.429.291ZM284.2,128.63a5.927,5.927,0,0,0-1.163.484,7.6,7.6,0,0,0-1.356.484,3,3,0,0,1,.775-.194,8.038,8.038,0,0,0-2.907,4.457,4.877,4.877,0,0,0,3.682,1.453,4.618,4.618,0,0,1-4.651-1.26c-.388-.388.194-1.647.775-2.616a8.226,8.226,0,0,0-1.26,2.616c0,.1-.291.291-.291.388,2.228,2.713,5.135,2.035,7.751.291a14.6,14.6,0,0,0,1.938-1.163,35.263,35.263,0,0,0,4.748-5.329C293.021,127.467,286.529,128.048,284.2,128.63Zm-11.433-11.045c-.1-.194-.291,0-.484.581-.1-.194-.1-.291-.194-.484a.356.356,0,0,0,.1-.291c-.581-.872-1.938,4.36-2.035,4.651-.969,3.876-.969,7.364,1.647,10.561,0,0,.1.291.194.291a2.01,2.01,0,0,0,.969-.581c.1.1.194.194.194.291,0,0,3.488-1.26,2.132-7.848a56.933,56.933,0,0,0-2.519-7.17Zm-.581,14.437c-.775.484-1.647-1.26-1.938-1.841a8.594,8.594,0,0,1-.291-5.62c.194-1.26.194-2.616.484-3.779.1-.291,1.163-2.422,1.356-3,.1.194.194.484.291.678a47.416,47.416,0,0,0-1.55,7.17,8.879,8.879,0,0,0,2.035,6.2A.5.5,0,0,1,272.19,132.021Zm28.1-16.277a7.657,7.657,0,0,0-2.81,3.488,8.045,8.045,0,0,0-1.163,2.422,8.845,8.845,0,0,1,.775-1.26l-.291,1.163s3,1.744,7.073-3.2a30.347,30.347,0,0,0,2.81-4.457.1.1,0,0,0,.1-.1c-2.035,3.585-5.813,10.076-10.464,8.332-.1,0-.194-.1-.1-.291a6.174,6.174,0,0,0-.194.678c-.388,0-.775.1-1.066.1a3.568,3.568,0,0,0-1.841,1.066,3.4,3.4,0,0,0-.775.484,1.637,1.637,0,0,1,.484-.194,3.58,3.58,0,0,0-.678,1.356s1.647,2.035,4.554.1c-1.55,1.356-3.488,2.228-5.232.581-.291-.291.291-1.26.484-1.647a4.054,4.054,0,0,0-1.066,1.744c0,.1,0,.1.1.194,2.325,2.907,5.813-.388,7.654-2.325h.1c0-.1,0-.1-.1-.194l.872-.872c.388-.194.775-.291,1.163-.484,2.907-1.647,4.748-5.523,6.492-8.429.1-.1,0-.194-.1-.291a.338.338,0,0,0-.194-.1,13.27,13.27,0,0,1,.775-1.356c.291-.678-5.329,2.132-7.364,3.488ZM284.3,99.078c-.872.388-.872,3.682-1.066,4.457-.484,2.132-.484,3.972.872,5.62a12.843,12.843,0,0,1-.775-2.325c0-.1-.1-.291-.1-.388a4.646,4.646,0,0,0,1.453,2.616,4.507,4.507,0,0,0,.969-1.26,4.527,4.527,0,0,1-.484.969,3.294,3.294,0,0,0,.678-1.453,8.259,8.259,0,0,0,.194-3.972,31.408,31.408,0,0,0-1.356-3.876c.1-.1.194-.291.1-.388l-.194.194a.356.356,0,0,1-.1-.291c0-.1-.1,0-.194.1ZM271.415,104.6h0c.1.1.581,0,1.066-.581,1.744-1.647.775-5.91.291-7.751,0-.1-.194-.1-.291-.1,0-.1-.194-.194-.194-.194-.775.194-1.26,2.616-1.55,3.294a5.423,5.423,0,0,0,0,4.263c0-.194-.1-.291-.1-.484a4.622,4.622,0,0,0,.775,1.55Zm-.775-4.554a.885.885,0,0,1,.291-.484,5.957,5.957,0,0,0-.291,1.066Q270.494,100.193,270.64,100.047Zm26.645-10.755a1.649,1.649,0,0,0,.1.678c.1.291.194.678.291.969a6.788,6.788,0,0,1-.291-1.356,3.275,3.275,0,0,0,.581,1.163s2.519-.678,2.422-5.62c0-.581-.194-1.841-.291-3.1.194-.484.484-.969.388-1.066.484,3.1,1.066,8.623-2.132,10.367-.291.1-.484-.1-.581-.388.1.388.291.678.388,1.066,0,.1,0-.194.1-.291,3.876-.969,2.81-7.848,2.325-10.755a1.393,1.393,0,0,1,.291-.194c0-.1-.388-.194-.388-.194a.533.533,0,0,0-.484.291c-.1-.484-.1-.775-.194-1.066-.194-.678-2.035,3.972-2.519,5.813A6.789,6.789,0,0,0,297.284,89.293Zm-3.391-8.236a4.8,4.8,0,0,0,1.647,2.519c.1.1.1-.388.194-.388a7.224,7.224,0,0,1-1.356-1.647,4.852,4.852,0,0,0,.775.678s1.938-1.841.581-5.91c-.194-.484-.678-1.453-1.163-2.422,0-.291,0-.484-.1-.484.1.1.194,0,.194-.1,1.163,2.035,2.713,5.038,2.325,7.654.581-2.519-1.066-5.716-2.228-7.751v-.194l-.1.1c-.1-.1-.1-.1-.1.1l-.1.1v-.194l-.291.291a6.953,6.953,0,0,0-.678-1.066c-.291-.484-.678,4.263-.581,6.007a6.056,6.056,0,0,0,.969,2.713Zm-7.46-7.267c-.194-.484-1.647,3.294-1.938,4.651a4.2,4.2,0,0,0,1.163,3.779,3.4,3.4,0,0,0,.484.775s.194.194.194.1c3.294-1.163,2.035-6.1,1.163-8.72a.182.182,0,0,0,0-.291.1.1,0,0,0-.1.1c-.1-.194-.581.1-.484.291v.1c-.1.1-.1.194-.194.194a2.843,2.843,0,0,0-.291-.969ZM287.4,74.372Zm-.291.678c.872,2.519,2.035,5.91-.484,7.46-.291.194-.581,0-.872-.291.388-.194,2.228-1.163,1.841-4.554-.1-.484-.291-1.453-.581-2.422C287.111,75.244,287.111,75.147,287.111,75.05Zm-3.682-1.744.1-.1c.194.194.388.291.581.484a2.568,2.568,0,0,1-.581-.484,3.964,3.964,0,0,0,1.066-3.682c-.194-.678-.581-1.938-.969-3,.1-.291.291-.678.388-.969v-.1a10.052,10.052,0,0,0-.388.969c-.388-1.066-.775-1.841-.872-1.55-.291.775-1.066,3.1-1.26,3.972-.388,3.585,1.938,4.457,1.938,4.457Zm7.751,5.426V77.278c0-.581-1.938,2.616-2.519,3.876a5.61,5.61,0,0,0,0,3.972.965.965,0,0,0,.388-.1,2.28,2.28,0,0,0,.194.775c2.907-.291,2.907-5.426,2.907-7.654h0c0,2.325-.194,6.492-2.713,7.46-.388.1,0-.291,0-.678.581-.388,1.356-1.356,1.647-3.488a9.461,9.461,0,0,0,.1-1.841,10.235,10.235,0,0,0,.872-1.26.1.1,0,0,1-.1-.1.988.988,0,0,0-.775.484Zm-21.412-7.17c.1.1.194.291.291.388s-.1.1,0,.1c2.035-1.26,2.325-3.2,2.325-5.523,0-.872.678-3.876,0-4.554,0,0,0,.291-.1.291l-.1-.1v.1l-.1.1c-.1.872.194,3.682.194,4.166a13.3,13.3,0,0,1-.484,2.713c-.1.291-1.163,2.907-1.55,2.325-.1-.1-.1-.194-.194-.291a5.959,5.959,0,0,0,1.163-2.907,37.161,37.161,0,0,0-.1-4.554c.388-.484.678-1.066.969-1.453,0-.1,0-.194.1-.194-.291.484-.678.969-1.066,1.55-.1-.969-.194-1.55-.291-1.356a32,32,0,0,0-2.228,3.972c-1.453,3.972.484,5.91.484,5.91a4.476,4.476,0,0,0,.678-.678Zm-4.36-.678c.1.1.1.194.194.194l.1.1c3.391-1.163,2.132-6.007,1.26-8.623v-.194h-.291c0-.1,0-.291-.1-.291-.388.1-.775.775-1.066,1.55a2.315,2.315,0,0,0-.291-.678c-.194-.484-1.647,3.294-1.938,4.651a4.388,4.388,0,0,0,1.163,3.876,1.731,1.731,0,0,0,.969-.581Zm1.066-3.972a25.9,25.9,0,0,0-.678-2.519c.291-.581.678-1.163.775-1.453.872,2.519,1.938,6.2-.581,7.848-.194.1-.291.1-.388,0a4.826,4.826,0,0,0,.872-3.876Zm-18.7,25.869c-.1-.1-.291-.1-.291.1a25.482,25.482,0,0,0-1.453,7.267,32.7,32.7,0,0,1,1.744-7.073c0,.388.969,2.132.969,2.325.291,1.066.775,2.035.969,3.1a6.8,6.8,0,0,1,.1,2.422v-.388c-.388-2.035-2.035-7.17-2.325-6.395a49.213,49.213,0,0,0-1.453,6.3c0,.291-.1.678-.1.969v.194c-.1,4.554,2.325,5.038,2.325,5.038a9.125,9.125,0,0,0,1.55-4.069,12.357,12.357,0,0,0-.291-6.2c.1-.194-1.163-3.972-1.744-3.585Zm41.759-17.246a8.061,8.061,0,0,0,1.744,1.26,3.7,3.7,0,0,1-1.356-1.066c.484.291.872.484.872.484a5.792,5.792,0,0,0,.484-5.91c-.581-1.26-1.938-3.585-3-5.329,0-.194.1-.388.1-.581.388.678.969,1.647,1.066,1.744.581.969,1.066,1.938,1.55,2.907a12.62,12.62,0,0,1,1.453,3.294c.194.678-.1,4.748-.969,4.457.1,0,.1.1.194.1s0,.194,0,.1c2.325-3.1.678-6.395-.872-9.3a20.577,20.577,0,0,0-2.422-3.779q0-.145-.291-.291c-.194-.194-.291-.194-.388,0-.1.1,0,.194.1.291,0,.1-.1.291-.1.388-.581-.872-1.066-1.453-1.066-1.163a31.809,31.809,0,0,0-.388,6.1c.291,3.682,2.035,5.523,3.294,6.3Zm-29.648,3.488a.735.735,0,0,0,.388.194c5.426-2.325,3-11.239,1.356-15.405-.1-.194-.194-.1-.194.1,1.647,4.263,3.585,11.627-1.066,14.63,1.066-1.066,2.325-3.294,1.744-7.267a58.845,58.845,0,0,0-1.744-5.716c.388-.678.775-1.356.678-1.356.1.194.291,0,.194-.194-.194-.388-.581.388-.969,1.26a4.724,4.724,0,0,0-.291-.678c-.388-.872-2.519,5.813-2.907,8.332A7.259,7.259,0,0,0,259.3,79.41c0,.1.291-.1.581-.388Zm-7.751,7.364a2.264,2.264,0,0,0,.678-.678c2.713-2.035,2.81-5.426,2.422-8.72a24.186,24.186,0,0,0-.969-4.554c.1-.194-.678-.775-.872-.581a26.666,26.666,0,0,0-1.55,3.294,30.718,30.718,0,0,0-1.356,3.585c-1.163,5.523,1.647,7.654,1.647,7.654Zm2.132-13.661c.1.484.484,1.26.484,1.453.194,1.066,0,2.325.194,3.391a14.327,14.327,0,0,1,.1,4.069,7.5,7.5,0,0,1-.775,1.841,5.484,5.484,0,0,0,.291-2.519,44.569,44.569,0,0,0-1.066-6.782A10.59,10.59,0,0,1,254.266,72.725Zm-1.647,27.129a4.614,4.614,0,0,0,1.356-3.294,4.625,4.625,0,0,0,0-2.81c-.194-.872-.678-3.294-1.55-3.682-.1,0,0,.194,0,.194v.1c-.194.194.1.388.194.291-.1.1,1.163,2.81,1.26,3.2a3.957,3.957,0,0,1-.1,1.841c-.388-1.647-1.647-4.844-1.841-4.36-.194.581-.678,1.938-.969,3a15.455,15.455,0,0,1,1.26-4.069c.1-.194-.194-.388-.291-.194a12.791,12.791,0,0,0-1.26,5.813c-.194,3.2,1.938,3.972,1.938,3.972Zm-3-6.879a9.446,9.446,0,0,0,.775-2.132c1.066-2.81.291-5.232-1.163-7.945a9.778,9.778,0,0,0,.678,1.453,7.831,7.831,0,0,1,.775,4.263,5.561,5.561,0,0,1-.1,1.163,6.952,6.952,0,0,0-.484-3.2,37.485,37.485,0,0,0-3.488-5.716,7.479,7.479,0,0,0,.194-1.453h.291c0,.1.775,1.163,1.163,1.744-.678-1.163-1.453-2.519-1.841-2.132a.338.338,0,0,0-.194.1c-.1.388-.1.775-.194,1.26a.1.1,0,0,0-.1.1,51.084,51.084,0,0,0-.388,6.588c.678,5.813,4.069,5.91,4.069,5.91Zm38.853,28.776a3.256,3.256,0,0,0-1.55.969,3.407,3.407,0,0,0-1.841,1.841h.1c2.132,2.035,5.135-.581,6.685-2.228.194-.194.1-.291-.1-.194l.872-.872c.291-.291-3,.1-4.166.484Zm-3,2.616c-.194-.1.388-.484.872-.775-.1.1-.1.291-.194.388,0,0,1.453,1.26,3.972-.388C288.661,124.754,286.917,125.432,285.464,124.367Zm14.34-13.758c-.388.1-1.744-2.422-1.938-3,.194.581.388,1.066.581,1.647.194.388.872,2.035,1.453,2.035a5.593,5.593,0,0,0,2.907-1.26,6.6,6.6,0,0,1-2.035.969C300.482,111.093,300.094,110.608,299.8,110.608Zm3-.581a10.231,10.231,0,0,0,4.166-6.879l-.581,1.744a12.959,12.959,0,0,1-3.585,5.135Zm-21.412-7.267c1.356-1.55,1.938-3.876,2.132-6.395a14.989,14.989,0,0,1-.581,3A15.27,15.27,0,0,1,281.394,102.76Zm-1.841,1.356c-1.26.581-1.744-1.163-2.132-2.325a9.434,9.434,0,0,1-.581-3.294,13.7,13.7,0,0,0,2.132,5.523s4.941-.969,4.36-10.367c-.1-1.744-1.163-6.879-1.744-9.5l.194-.388c.678,3.1,1.938,8.139,1.744,12.6.388-4.263-.484-8.817-1.356-12.692a.1.1,0,0,0-.1-.1c-.194-.291-.388-.194-.581,0,0-.1,0-.194-.1-.194-.388-1.356-3.682,7.267-4.457,10.658a8.533,8.533,0,0,0-.194,1.647v.1a14.339,14.339,0,0,0,1.938,8.72c0,.1.1.1.194.1a4.138,4.138,0,0,0,2.616-1.841,6.4,6.4,0,0,1-1.938,1.356ZM270.93,92.2c-.678-4.941-4.36-9.4-7.17-13.177.194-.1.291-.388.194-.484-.484-.484-.775.484-.872.969l-.194-.194c-.872-.969-.388,9.4.194,13.177a10.9,10.9,0,0,0,5.62,8.042.1.1,0,0,0,.1.1c2.035-2.035,2.422-5.62,2.132-8.429Zm-2.325-4.36a63.788,63.788,0,0,0-5.038-7.557,3.66,3.66,0,0,0-.1-1.163.134.134,0,0,0,.194,0A41.738,41.738,0,0,1,269.38,89a15.893,15.893,0,0,1,.969,4.36,21.077,21.077,0,0,0-1.744-5.523Zm-7.267,3.294c-.484-4.166-2.325-8.236-4.263-11.82a.735.735,0,0,0,.194-.388c-.291-.388-.484.194-.581.678a.519.519,0,0,0,.388-.291C258.819,82.7,260.757,86.967,261.338,91.134Zm-6.3-3.972a46.537,46.537,0,0,0-.194,6.395v.581c.194,3.779,1.841,7.073,4.263,8.429a11.676,11.676,0,0,0,2.228-6.879v-.1A19.337,19.337,0,0,0,260.369,89,80.249,80.249,0,0,0,256.4,80.67a.356.356,0,0,1,.1-.291,5.218,5.218,0,0,0,.1-.775h-.1c.1.1-.1.581-.194.872a.735.735,0,0,1-.194-.388c-.388-.678-.775,3-1.066,6.879.1.1.1.1,0,.194Zm6.395,8.429a16.435,16.435,0,0,0-.1-4.36,22.05,22.05,0,0,1,.194,2.519,13.015,13.015,0,0,1-.1,1.841Zm17.44-10.367c.388-.1.872-.581,1.356-1.356A8.979,8.979,0,0,1,278.875,85.223Zm0,.1h0a.1.1,0,0,1,.1-.1.356.356,0,0,1-.291-.1A.208.208,0,0,0,278.875,85.32Zm-.291-22.866Zm.291,22.963ZM256.2,122.138a7.821,7.821,0,0,0-.484-6.492,12.941,12.941,0,0,0-.678-1.744c-2.325-4.263-7.557-6.588-11.627-8.139-.194-.1-.291.291-.1.388,3.294,1.356,8.139,3.585,10.658,7.073a10.847,10.847,0,0,0-1.938-1.647,55.672,55.672,0,0,0-8.429-3.972h-.1a8.148,8.148,0,0,0-.388-.969c.194,0,.291-.388.1-.388-1.26-.291,1.647,6.976,1.841,7.557a15.469,15.469,0,0,0,3.294,5.232,8.641,8.641,0,0,0,7.848,3.1Zm-9.98-6.588a5.6,5.6,0,0,1-.484-1.356,25.455,25.455,0,0,0,1.744,3.294,8.311,8.311,0,0,1-1.26-1.938Zm41.662-1.453a7.139,7.139,0,0,1-.388-1.356A3.8,3.8,0,0,0,287.886,114.1Zm1.453,2.616a9.233,9.233,0,0,1,1.163-1.647A8.052,8.052,0,0,0,289.339,116.712Zm-.388.969a3.031,3.031,0,0,1,.484-.969A1.542,1.542,0,0,0,288.952,117.681Zm-7.17,11.917a3.256,3.256,0,0,0-1.55.969,6.811,6.811,0,0,0-.678.969,6.107,6.107,0,0,1,2.228-1.938Zm7.073-28.776h0C288.661,100.823,288.855,100.919,288.855,100.823Zm2.228-4.263c.194-3.682-1.744-7.557-3.294-10.658-.1-.194-.388-.1-.291.1a28.987,28.987,0,0,1,2.81,8.042,21.8,21.8,0,0,0-.484-2.132c-.388-1.163-1.647-3.972-2.422-5.62.1,0,.1-.1,0-.194s-.1-.1-.194-.1a3.228,3.228,0,0,0-.291-.581c-.291-.484-.581,1.744-.775,4.166a2.076,2.076,0,0,0-.1.581c-.484,3.972-.194,7.654,2.713,10.561A5.573,5.573,0,0,0,291.083,96.559Zm-3.972,1.647a3.471,3.471,0,0,1-.388-1.066,8.467,8.467,0,0,0,2.132,3,2.628,2.628,0,0,0,.678-.872,3.793,3.793,0,0,1-.775.969c-.484.678-1.453-1.55-1.647-2.035Zm-13.564-4.844c3.682-3.682.1-10.076-2.132-13.274-.1-.194-.388.1-.291.291,2.035,3,5.038,8.139,2.81,11.917.581-1.26.969-3.488-.388-6.685a31.835,31.835,0,0,0-2.616-4.263c0-.291,0-.581-.1-.581.194.194.388-.194.194-.291-.194-.194-.291.1-.484.484-.1-.1-.194-.291-.291-.291-.484-.581-.581,5.716-.291,8.042a6.249,6.249,0,0,0,2.616,4.554,4.1,4.1,0,0,0,.678.484c.291-.194.291-.291.291-.388Zm-21.994,11.82c0,.1.1.291.1.388a7.533,7.533,0,0,1,.1,1.26,16.7,16.7,0,0,0,.678,2.035,2.008,2.008,0,0,1,.194.581,4.721,4.721,0,0,0,4.069,3,5.1,5.1,0,0,0,.388-3.779c-.388-2.907-3.682-5.426-5.716-6.879a.1.1,0,0,0-.1-.1h-.194a.735.735,0,0,0-.194.388,12.786,12.786,0,0,0,.678,3.1Zm3.585.484a37.727,37.727,0,0,0-3.779-2.81h-.1v-.388a14.808,14.808,0,0,1,3.876,3.2Zm8.817,0a.156.156,0,1,0,.291-.1c-.1-.291-.291-.291-.484-.1-.1,0-.194,0-.194.1a13.527,13.527,0,0,0-2.035,1.938,15.266,15.266,0,0,0-1.163,1.453c.581-.581,1.55-.969,2.132-1.55.1-.1.678-.678,1.066-1.163v.194a31.9,31.9,0,0,0-3.294,4.069,6.559,6.559,0,0,0-.678,4.554c-.678,0-.194-.872-.291-1.453a7.382,7.382,0,0,1,.291-3.294,6.982,6.982,0,0,0-.581,5.135v.1c.194,0,.388.1.581.1,0,.194.1.291.1.484,0,0,2.81.581,3.972-4.263a35.627,35.627,0,0,0,.581-5.62c0-.194-.1-.1-.291,0-.1-.194,0-.291,0-.581h0Zm-3.972,3.682a3.031,3.031,0,0,0-.484.969,5.494,5.494,0,0,1,.775-1.26l-.291.291Zm19.281,15.405c.1,0,.1-.484.1-.484l.1-.1a8.7,8.7,0,0,1-1.55-1.841,7.411,7.411,0,0,1-1.647-3.391,22.752,22.752,0,0,1-.1-2.519,6.536,6.536,0,0,0-.291-1.647,1.337,1.337,0,0,1,.291.388,37.26,37.26,0,0,0,.969,5.135,5.944,5.944,0,0,0,2.616,3.488c-.1.194-.194.291-.291.484a.182.182,0,0,0,.291,0c.1-.1.1-.291.194-.388l.581.291s1.744-2.035-.775-6.2a46.361,46.361,0,0,0-3.294-4.069c-.1-.1-.194.1-.1.484l-.291-.291c.1-.194.194-.388.1-.484l-.1.1c-.1,0-.388-.194-.484-.194-.678.484.581,3.972.678,4.651.291,2.713.678,5.329,3,6.588Zm5.038-15.115h0C284.3,109.542,284.2,109.639,284.3,109.639Zm.1-.1h.194a1.507,1.507,0,0,0,.581-.775A2.949,2.949,0,0,1,284.4,109.542Zm-.291-.388a1.338,1.338,0,0,0,.291.388v-.1C284.3,109.349,284.107,109.252,284.107,109.155Zm-1.066,9.689a2.746,2.746,0,0,0,1.744-.872c.678-.484,1.55-1.55,1.647-3.779a27.441,27.441,0,0,0-.581-4.069c0-.1-.1-.1-.291.1a.356.356,0,0,0-.291-.1c-.872.1-2.132,2.713-2.519,3.391a5.338,5.338,0,0,0,0,5.62c-.1.1.194-.291.291-.291Zm-.1-3.876a4.241,4.241,0,0,0,.678,3.2c-.194.1-.291.194-.484.194-.388.1-.194-.1-.388-.484a3.414,3.414,0,0,1,.194-2.907Zm9.108,9.592h0l.194-.194C292.246,124.463,292.149,124.463,292.052,124.56Zm6.685-.388C298.641,124.366,298.641,124.463,298.737,124.173ZM271.221,104.6c-.194-.291-.291-.581-.484-.872A3.486,3.486,0,0,0,271.221,104.6Zm0,.1h.1c-.1,0-.1,0-.194-.1.1,0,.1,0,.1.1Zm7.848,11.142s.1.484.194.484a2.664,2.664,0,0,0,1.55-1.938,6.2,6.2,0,0,0,.388-3.294c-.1-.872-.775-3.2-.969-3.972,0-.1-.1,0-.194.1-.194,0-.581.1-.581.291v.1a8.84,8.84,0,0,0-1.066,2.907,6.028,6.028,0,0,0,.678,5.329Zm.484-7.46a32.352,32.352,0,0,0-.775,3.391,5.383,5.383,0,0,0,.872,3.682l-.194.194c-.678.581-.775-1.26-.969-1.647a5.99,5.99,0,0,1-.291-2.907C278.391,110.608,279.166,109.252,279.553,108.38Zm-4.069-4.069c-.775,2.035-2.616,7.46.194,8.914.1,0,.1-.291.194-.291a1.338,1.338,0,0,0,.291-.388,1.2,1.2,0,0,1,.291.194,5.27,5.27,0,0,0,1.066-3.779c-.1-.678-.388-1.938-.581-2.907-.1-.872-.194-1.841-.581-2.035-.1,0-.388.194-.484.194v.1c-.194-.1-.291-.1-.388,0Zm-.291,3.585c0,.194-.1.291-.1.484a5.244,5.244,0,0,0,.484,3.682C274.709,111,274.806,109.446,275.193,107.9Zm17.052-25.482c-.581-.872-1.163,5.813-.969,8.332v.581a.583.583,0,0,0,.1.388,15.057,15.057,0,0,0,.484,2.228c-.1-.291-.1-.678-.194-.969a8.786,8.786,0,0,0,3.1,4.166,4.185,4.185,0,0,0,1.744-3.391,4.8,4.8,0,0,1-1.647,3.585.759.759,0,0,1-.775.1,4.215,4.215,0,0,0,.678.581c-.678.678-2.035,2.325-3.391,4.069-.291.291-.484.484-.484.581-2.422,2.907-4.263,6.2-3.391,10.076a9.19,9.19,0,0,1,0-2.325,5.875,5.875,0,0,1,.581-2.325,8.521,8.521,0,0,0,.484,5.62s2.713-.291,4.748-3.585a7.2,7.2,0,0,1-4.748,4.263c-.291.1-.484,0-.678-.291,0,.1.1.194.1.291a2.2,2.2,0,0,1-.1.388c1.841-.1,3.488-1.744,4.651-3.294,2.519-3.391,3.1-8.429,3.1-12.6,0-.194-.291-.194-.388-.194v-.872a5.5,5.5,0,0,0,1.938-4.166c.1-3.682-2.519-7.364-4.263-10.367.1-.1.194-.194.1-.291s-.194-.1-.388,0c-.1-.194-.291-.388-.388-.581Zm.388,13.274c.291.388.872,1.453,1.55,1.744a9.715,9.715,0,0,1-2.228-3.488,3.482,3.482,0,0,0,.678,1.744Zm3.1-12.5a.182.182,0,0,0,.291,0,3.884,3.884,0,0,0,.969-2.132A4.057,4.057,0,0,1,295.734,83.189ZM284.107,65.264c-.1,0-.1-.291-.194-.291,0,0,.1.194,0,.194h0v.291C284.107,65.361,284.107,65.361,284.107,65.264Zm.1,8.429Zm.872-4.748a6.9,6.9,0,0,1,.388,2.035c0,.484-.581,3-1.26,2.713.1,0,.1.1.194.1s.1.194.1.1c1.55-1.453,1.55-3.1.969-5.135-.194-.872-.484-3-1.26-3.488,0,.1-.1.194-.1.291a33.7,33.7,0,0,0,.969,3.391Zm-.872-3.682c.1-.194,0-.194,0,0Zm7.848,12.886Zm-.1-.1h0v.194C292.052,78.247,291.955,78.054,291.955,78.054ZM289.242,85.9h-.1C289.049,85.8,289.242,85.9,289.242,85.9ZM272.19,62.067a.338.338,0,0,0-.1-.194c-.194.194-.1.388.1.194Zm0,0h0C272.384,62.067,272.287,61.97,272.19,62.067Zm1.453,8.817v.194C273.643,70.981,273.74,70.884,273.643,70.884Zm-1.163,0c0-.581-1.938,2.616-2.519,3.876a3.932,3.932,0,0,0-.388,1.841,18.729,18.729,0,0,0-2.228-4.844c0-.1.1-.194,0-.291v-.1a2.2,2.2,0,0,1-.388.1c-.291.194-.388.581-.581,1.163-.1-.194-.291-.388-.291-.581-.291-.484-.678,4.263-.581,6.007a4.9,4.9,0,0,0,2.132,3.876,2.866,2.866,0,0,0,.291-.388l.291.291c.1.1.291.291.291.194a4.169,4.169,0,0,0,1.26-3.294c.1,0,.194,0,.484-.194v.1c0,.1.1-.1.194-.194a.1.1,0,0,0,.1-.1.5.5,0,0,0,.388.194,1.777,1.777,0,0,0,.969-.678,2.893,2.893,0,0,1-1.356.581c.581-.388,1.356-1.356,1.647-3.391a5.921,5.921,0,0,0,.291-2.422c.194-.291.484-.581.678-.872,0,2.035.1,4.748-1.066,6.2,1.647-1.356,1.55-5.038,1.55-6.879v-.1c0-.1,0-.1-.1-.194-.194-.1-.388,0-.388.1a3.62,3.62,0,0,0-.678.581v-.581Zm-4.069,10.561c0,.1-.1.1-.194,0,.484-.872,1.066-2.519.1-5.232a19.833,19.833,0,0,0-1.26-2.519,4.818,4.818,0,0,0-.1-1.55c.1.1.291-.1.388-.194C268.9,74.469,270.737,78.635,268.411,81.445Zm22.963-4.554a.338.338,0,0,0-.194-.1C291.277,76.794,291.277,76.891,291.374,76.891Zm-46.6,14.34a31.929,31.929,0,0,0-1.26-5.038c-.1-.291-.775-.872-1.066-.388a.356.356,0,0,0,.1.291c-1.356,3.972-3.391,8.623-2.907,12.886a8.736,8.736,0,0,0,.581,2.132c.678,3.488,2.616,4.069,2.616,4.069a12.967,12.967,0,0,0,2.132-6.588A19.019,19.019,0,0,0,244.77,91.231Zm-4.554,4.941a5.524,5.524,0,0,0-.1,1.26,7.831,7.831,0,0,1,.1-1.55,23.977,23.977,0,0,1,1.26-5.038,39.414,39.414,0,0,0-1.26,5.329Zm2.325-8.526c.194-.388.291-.872.484-1.26a.1.1,0,0,0,.1-.1,30.186,30.186,0,0,0,.678,3,38.8,38.8,0,0,1,.775,4.651,10.53,10.53,0,0,1,.1,1.744,34.29,34.29,0,0,0-2.132-8.042Zm6.685-4.844c-.194-.484-.484-1.066-.678-1.453a1.2,1.2,0,0,1-.194-.291c.388.678.678,1.356.775,1.453a.356.356,0,0,0,.1.291Zm16.084,25.676a.356.356,0,0,0,.291-.1v.1s1.647-.194,2.519-2.81a19.759,19.759,0,0,0,.775-4.36c0-.1-.1-.1-.1-.194s-.291-.388-.291-.388c-.678,0-1.55,2.132-1.938,2.713-1.066,1.453-1.841,2.81-1.26,4.748,0-.1-.1.291,0,.291Zm3.1-7.17c0,.1.1.1.194.1v.1c-.1,0-.291.194-.484.484A1.686,1.686,0,0,0,268.411,101.307Zm-3,4.554a5.214,5.214,0,0,1,.969-1.938c.194-.194.872-.969,1.453-1.647a27.082,27.082,0,0,0-1.841,2.713,4.591,4.591,0,0,0-.388,3C265.214,108.089,265.311,106.055,265.408,105.861Zm19.668,18.8Zm-20.25-25c0-.194-.1-.194-.1,0s-.1.388-.1.581v-.194c.1-.581-3.391,2.228-4.554,3.488a4.292,4.292,0,0,0-1.066,3.2c-.388-.291-.1-1.938,0-2.325.291-1.066,1.26-1.647,2.035-2.325.194-.194,3.488-2.228,3.488-2.422h0c-.1-.872-2.519,1.26-2.713,1.356-1.938,1.453-3.779,3.2-3.1,6.007,0,.1.1.194.194.291h.291c0,.1.1.291.1.388,0,0,2.907.388,4.457-3.391a12.467,12.467,0,0,0,.581-2.132c.194-.872.388-1.744.484-2.519Z" transform="translate(0 0)" fill="#db3333"/>
      <path id="Tracé_15" data-name="Tracé 15" d="M417.655,520.945c2.616-5.038,8.526-10.948,8.623-13.661,0-.484-9.5,9.786-10.27,12.208-2.035,6.395-3.682,4.457-3.876,6.2-2.132-.484-4.844-3.488-5.135-4.36-.388-1.26-3-4.36-3-4.36-.484-3,.581-9.98-1.163-1.453-4.457-5.135-5.813-10.076-5.716-8.332.291,3.391,5.135,8.72,8.72,16.956,4.166,9.689,2.81,33.524-3.585,41.178,3.488,0,18.7.194,18.7.194-6.976-4.36-8.042-35.268-3.294-44.569Z" transform="translate(-137.811 -389.215)" fill="#fef7f1"/>
    </g>
  </g>
</svg>
