<svg xmlns="http://www.w3.org/2000/svg" width="181.758" height="202.947" viewBox="0 0 181.758 202.947">
  <g id="tree_video" transform="translate(-175.361 -137.457)">
    <path id="Tracé_18" data-name="Tracé 18" d="M311.4,163.4c-2.771-17.7-20.74-28.143-37.78-25.547-16.739,2.546-27.859,18.455-27.066,34.514.847,17.18,19.884,30.229,36.289,27.8a1.573,1.573,0,0,0,1.072-.613c17.734-1.739,30.3-18.194,27.485-36.149Zm-99.5,1.14c-9.669,1.424-18.933,10.363-18.262,20.492.879,13.22,13.63,23.029,26.746,19.338a1.739,1.739,0,0,0,.536-.257c11.963-1.834,16.923-10.949,15.252-22.749-1.681-11.918-13.008-18.478-24.272-16.824ZM276.969,212.1c-13.328-3.262-27.03,6.686-29.882,19.676-3.136,14.27,7.056,31.414,22.641,32.761a1.762,1.762,0,0,0,1.545-.6c12.7.91,25.412-6.587,27.787-19.9,2.744-15.437-7.146-28.278-22.091-31.936ZM199.5,208.829c-16.721,1.6-29.756,15.986-21.69,32.509a1.586,1.586,0,0,0,.982.861c10.138,21.555,44.4,17.041,46.467-7.7,1.185-14.148-11.647-27.012-25.759-25.669Zm125.889,6.4a7.335,7.335,0,0,0-9.02-5.506c-4.181,1.113-6.087,6.1-4.51,9.926,1.334,3.249,5.254,4.627,8.5,4.289,4.127-.428,5.957-4.375,5.335-8.106a1.167,1.167,0,0,0-.3-.6Zm-37.834,60.43c-8.281-3.474-14.486,9.291-6.389,13.4,7.123,3.614,14.031-4.573,10.5-10.165A8.634,8.634,0,0,0,287.557,275.662Zm47.81-98.192c-11.174-1.856-20.5,13.968-8.016,19.893,9.759,4.636,16.171-2.028,16.721-8.894C344.464,183.557,341.874,178.542,335.367,177.47Zm5.443-31.495v-.2a4.074,4.074,0,0,0-2.523-4.019l-.185-.09c-3.433-1.636-6.682,2.618-5.218,5.7,1.685,3.555,7.862,2.866,7.926-1.392Zm-102.982,1.244a4.282,4.282,0,0,0-3.888.221,3.816,3.816,0,0,0-2.329,2.235,3.478,3.478,0,0,0,.324,3.077l-.086-.1c.032.072.09.1.122.176a4.618,4.618,0,0,0,.374.523,4.687,4.687,0,0,0,5.817,1.5,4.112,4.112,0,0,0,2.347-3.352,4.221,4.221,0,0,0-2.681-4.285Zm60.178,56.073c-2.541,0-4.83,1.5-5.091,4.213-.221,2.347,1.663,5.087,4.208,5.087s4.835-1.5,5.091-4.213C302.435,206.031,300.556,203.292,298.006,203.292Zm58.538,6.317a4.2,4.2,0,0,0-.734-1.361,4.42,4.42,0,0,0-3.113-1.59l.023-.027-.514-.045a4.716,4.716,0,0,0-4.037,7.646c.252.284.509.572.667.716,1.879,1.735,4.492,2.356,6.628.545a4.8,4.8,0,0,0,1.081-5.884Zm-8.349,4.668c-.018-.018-.018-.032-.027-.045l-.266-.3.293.347Z" fill="#1b1b1b"/>
    <path id="Tracé_19" data-name="Tracé 19" d="M281.344,279.192,277.5,270.2C278.8,273.461,280.078,276.444,281.344,279.192ZM260.077,319.1l6.867,6.943q-3.338-3.565-6.867-6.943Zm34.113,15.747c4.573-39.064,19.762-65.572,53.978-89.839,0,0-.212.09-.6.275-4.046,1.91-27.926,14.364-47.661,50.905q-1.974,3.685-3.587,7.547c-2.893-3.235-8.6-10.638-14.977-24.543q6.457,15.077,12.779,30.211a201.848,201.848,0,0,0-8.633,35.3q-9.287-9.309-18.54-18.656c11.732,12.5,16.242,21.166,17.67,24.383-5.137,35.672-4.294,70.694-4.294,70.694s10.8-10.521,12.274-10.588,12.129,8.178,12.129,8.178-10.277-30.661-11.3-63.233c11.206-18.721,32.675-23.56,36.365-24.268-18.5,3.113-29.729,9.949-36.42,16.275.081-4.24.324-8.475.816-12.643Zm36.158-3.731-.554.1C329.979,331.192,330.164,331.152,330.348,331.12Z" transform="translate(-63.585 -80.726)" fill="#1b1b1b"/>
  </g>
</svg>
